<svg width="827" height="785" viewBox="0 0 827 785" fill="none" xmlns="http://www.w3.org/2000/svg">
<mask id="mask0_813_800" style="mask-type:alpha" maskUnits="userSpaceOnUse" x="0" y="0" width="827" height="785">
<rect x="0.973389" y="0.678223" width="825.369" height="784.208" rx="25" fill="#F38534"/>
</mask>
<g mask="url(#mask0_813_800)">
<rect x="-8.229" y="-17.3916" width="879.952" height="877.486" fill="#F38534"/>
<g style="mix-blend-mode:soft-light">
<mask id="path-3-outside-1_813_800" maskUnits="userSpaceOnUse" x="35.6277" y="32.7205" width="757" height="746" fill="black">
<rect fill="white" x="35.6277" y="32.7205" width="757" height="746"/>
<path d="M204.438 42.7205V67.4732H201.167C192.84 67.4732 186 72.6963 186 79.0548V172.616C186 204.408 156.26 223.484 119.382 223.484H60.795V111.756H45.6277V87.0029H60.795V67.4732H45.6277V42.7205H98.862V198.731H119.382C135.145 198.731 147.933 188.966 147.933 176.93V83.3694C147.933 57.0271 171.725 42.7205 201.167 42.7205H204.438Z"/>
<path d="M276.409 98.1303V173.524C276.409 185.56 289.197 195.324 304.959 195.324H309.42C316.855 195.324 323.992 193.054 329.346 189.193L340.647 180.791C358.193 167.62 372.766 163.532 396.26 163.532V192.599C382.877 192.599 377.821 193.962 367.413 201.683L356.111 210.085C343.621 219.396 326.966 224.619 309.42 224.619H304.959C268.379 224.619 238.342 207.587 238.342 173.751V42.7205H276.409V52.9395C276.409 64.9752 289.197 74.7401 304.959 74.7401H309.42C316.855 74.7401 323.992 72.4692 329.346 68.6086L340.647 60.2063C358.193 46.8081 372.766 42.7205 396.26 42.7205V71.7879C382.877 71.7879 377.821 73.1504 367.413 80.8715L356.111 89.2738C343.621 98.5844 326.966 103.807 309.42 103.807H304.959C294.847 103.807 285.033 101.31 276.409 98.1303ZM344.215 248.236L330.833 258.455L344.215 268.674L330.833 278.893L317.45 268.674L304.067 278.893L290.684 268.674L304.067 258.455L290.684 248.236L304.067 238.017L317.45 248.236L330.833 238.017L344.215 248.236Z"/>
<path d="M588.677 98.5844V127.652H557.153C541.985 127.652 534.848 132.875 522.654 143.094C509.569 153.994 493.212 167.62 461.093 167.62H429.866V138.552H461.093C475.665 138.552 482.506 133.329 494.402 123.337C506.892 112.891 524.141 98.5844 556.855 98.5844H588.677ZM490.238 69.517C490.238 61.5689 498.863 54.9833 509.271 54.9833C519.68 54.9833 528.305 61.5689 528.305 69.517C528.305 77.4651 519.68 84.0507 509.271 84.0507C498.863 84.0507 490.238 77.6922 490.238 69.517Z"/>
<path d="M749.867 42.7205H781.688V71.7879H749.867C737.079 71.7879 729.941 75.4213 721.019 82.6882V158.99C729.049 156.265 738.566 154.448 749.867 154.448H781.688V183.516H749.867C734.699 183.516 727.562 188.739 715.368 198.958C702.283 209.858 685.926 223.484 653.807 223.484H622.58V194.416H653.807C666.595 194.416 673.435 190.556 682.655 183.062V107.214C674.625 109.939 665.108 111.756 653.807 111.756H622.58V82.6882H653.807C668.38 82.6882 675.22 77.4651 687.116 67.4732C699.904 57.0271 717.153 42.7205 749.867 42.7205Z"/>
<path d="M204.438 286.16V310.913H201.167C192.84 310.913 186 316.136 186 322.495V416.055C186 447.848 156.26 466.923 119.382 466.923H60.795V355.195H45.6277V330.443H60.795V310.913H45.6277V286.16H98.862V442.398H119.382C135.145 442.398 147.933 432.633 147.933 420.597V327.036C147.933 300.694 171.725 286.387 201.167 286.387H204.438V286.16Z"/>
<path d="M276.409 341.57V416.964C276.409 428.999 289.197 438.764 304.959 438.764H309.42C316.855 438.764 323.992 436.493 329.346 432.633L340.647 424.231C358.193 411.059 372.766 406.972 396.26 406.972V436.039C382.877 436.039 377.821 437.402 367.413 445.123L356.111 453.525C343.621 462.836 326.966 468.059 309.42 468.059H304.959C268.379 468.059 238.342 451.027 238.342 417.191V286.614H276.409V296.833C276.409 308.869 289.197 318.634 304.959 318.634H309.42C316.855 318.634 323.992 316.363 329.346 312.503L340.647 304.1C358.193 290.929 372.766 286.841 396.26 286.841V315.228C382.877 315.228 377.821 316.59 367.413 324.311L356.111 332.714C343.621 342.024 326.966 347.247 309.42 347.247H304.959C294.847 347.247 285.033 344.749 276.409 341.57ZM344.215 491.903L330.833 502.122L344.215 512.341L330.833 522.56L317.45 512.341L304.067 522.56L290.684 512.341L304.067 502.122L290.684 491.903L304.067 481.684L317.45 491.903L330.833 481.684L344.215 491.903Z"/>
<path d="M588.677 342.251V371.319H557.153C541.985 371.319 534.848 376.542 522.654 386.761C509.569 397.661 493.212 411.286 461.093 411.286H429.866V382.219H461.093C475.665 382.219 482.506 376.996 494.402 367.004C506.892 356.558 524.141 342.251 556.855 342.251H588.677ZM490.238 313.184C490.238 305.236 498.863 298.65 509.271 298.65C519.68 298.65 528.305 305.236 528.305 313.184C528.305 321.132 519.68 327.718 509.271 327.718C498.863 327.718 490.238 321.132 490.238 313.184Z"/>
<path d="M749.867 286.16H781.688V315.228H749.867C737.079 315.228 729.941 318.861 721.019 326.128V402.43C729.049 399.705 738.566 397.888 749.867 397.888H781.688V426.956H749.867C734.699 426.956 727.562 432.179 715.368 442.398C702.283 453.298 685.926 466.923 653.807 466.923H622.58V437.856H653.807C666.595 437.856 673.435 433.995 682.655 426.501V350.654C674.625 353.379 665.108 355.195 653.807 355.195H622.58V326.128H653.807C668.38 326.128 675.22 320.905 687.116 310.913C699.904 300.694 717.153 286.16 749.867 286.16Z"/>
<path d="M204.438 529.827V554.58H201.167C192.84 554.58 186 559.803 186 566.161V659.722C186 691.515 156.26 710.59 119.382 710.59H60.795V598.862H45.6277V574.109H60.795V554.58H45.6277V529.827H98.862V685.837H119.382C135.145 685.837 147.933 676.073 147.933 664.037V570.476C147.933 544.134 171.725 529.827 201.167 529.827H204.438Z"/>
<path d="M276.409 585.01V660.403C276.409 672.439 289.197 682.204 304.959 682.204H309.42C316.855 682.204 323.992 679.933 329.346 676.073L340.647 667.67C358.193 654.499 372.766 650.412 396.26 650.412V679.479C382.877 679.479 377.821 680.841 367.413 688.563L356.111 696.965C343.621 706.276 326.966 711.499 309.42 711.499H304.959C268.379 711.499 238.342 694.467 238.342 660.631V530.054H276.409V540.273C276.409 552.309 289.197 562.074 304.959 562.074H309.42C316.855 562.074 323.992 559.803 329.346 555.942L340.647 547.54C358.193 534.369 372.766 530.281 396.26 530.281V559.349C382.877 559.349 377.821 560.711 367.413 568.432L356.111 576.835C343.621 586.145 326.966 591.368 309.42 591.368H304.959C294.847 590.687 285.033 588.189 276.409 585.01ZM344.215 735.343L330.833 745.562L344.215 755.781L330.833 766L317.45 755.781L304.067 766L290.684 755.781L304.067 745.562L290.684 735.343L304.067 725.124L317.45 735.343L330.833 725.124L344.215 735.343Z"/>
<path d="M588.677 585.691V614.758H557.153C541.985 614.758 534.848 619.982 522.654 630.201C509.569 641.101 493.212 654.726 461.093 654.726H429.866V625.659H461.093C475.665 625.659 482.506 620.436 494.402 610.444C506.892 599.998 524.141 585.691 556.855 585.691H588.677ZM490.238 556.624C490.238 548.676 498.863 542.09 509.271 542.09C519.68 542.09 528.305 548.676 528.305 556.624C528.305 564.572 519.68 571.157 509.271 571.157C498.863 571.157 490.238 564.572 490.238 556.624Z"/>
<path d="M749.867 529.827H781.688V558.895H749.867C737.079 558.895 729.941 562.528 721.019 569.795V646.097C729.049 643.372 738.566 641.555 749.867 641.555H781.688V670.622H749.867C734.699 670.622 727.562 675.845 715.368 686.065C702.283 696.965 685.926 710.59 653.807 710.59H622.58V681.523H653.807C666.595 681.523 673.435 677.662 682.655 670.168V594.32C674.625 597.046 665.108 598.862 653.807 598.862H622.58V569.795H653.807C668.38 569.795 675.22 564.572 687.116 554.58C699.904 544.134 717.153 529.827 749.867 529.827Z"/>
</mask>
<path d="M204.438 42.7205V67.4732H201.167C192.84 67.4732 186 72.6963 186 79.0548V172.616C186 204.408 156.26 223.484 119.382 223.484H60.795V111.756H45.6277V87.0029H60.795V67.4732H45.6277V42.7205H98.862V198.731H119.382C135.145 198.731 147.933 188.966 147.933 176.93V83.3694C147.933 57.0271 171.725 42.7205 201.167 42.7205H204.438Z" fill="#FFD5D3"/>
<path d="M276.409 98.1303V173.524C276.409 185.56 289.197 195.324 304.959 195.324H309.42C316.855 195.324 323.992 193.054 329.346 189.193L340.647 180.791C358.193 167.62 372.766 163.532 396.26 163.532V192.599C382.877 192.599 377.821 193.962 367.413 201.683L356.111 210.085C343.621 219.396 326.966 224.619 309.42 224.619H304.959C268.379 224.619 238.342 207.587 238.342 173.751V42.7205H276.409V52.9395C276.409 64.9752 289.197 74.7401 304.959 74.7401H309.42C316.855 74.7401 323.992 72.4692 329.346 68.6086L340.647 60.2063C358.193 46.8081 372.766 42.7205 396.26 42.7205V71.7879C382.877 71.7879 377.821 73.1504 367.413 80.8715L356.111 89.2738C343.621 98.5844 326.966 103.807 309.42 103.807H304.959C294.847 103.807 285.033 101.31 276.409 98.1303ZM344.215 248.236L330.833 258.455L344.215 268.674L330.833 278.893L317.45 268.674L304.067 278.893L290.684 268.674L304.067 258.455L290.684 248.236L304.067 238.017L317.45 248.236L330.833 238.017L344.215 248.236Z" fill="#FFD5D3"/>
<path d="M588.677 98.5844V127.652H557.153C541.985 127.652 534.848 132.875 522.654 143.094C509.569 153.994 493.212 167.62 461.093 167.62H429.866V138.552H461.093C475.665 138.552 482.506 133.329 494.402 123.337C506.892 112.891 524.141 98.5844 556.855 98.5844H588.677ZM490.238 69.517C490.238 61.5689 498.863 54.9833 509.271 54.9833C519.68 54.9833 528.305 61.5689 528.305 69.517C528.305 77.4651 519.68 84.0507 509.271 84.0507C498.863 84.0507 490.238 77.6922 490.238 69.517Z" fill="#FFD5D3"/>
<path d="M749.867 42.7205H781.688V71.7879H749.867C737.079 71.7879 729.941 75.4213 721.019 82.6882V158.99C729.049 156.265 738.566 154.448 749.867 154.448H781.688V183.516H749.867C734.699 183.516 727.562 188.739 715.368 198.958C702.283 209.858 685.926 223.484 653.807 223.484H622.58V194.416H653.807C666.595 194.416 673.435 190.556 682.655 183.062V107.214C674.625 109.939 665.108 111.756 653.807 111.756H622.58V82.6882H653.807C668.38 82.6882 675.22 77.4651 687.116 67.4732C699.904 57.0271 717.153 42.7205 749.867 42.7205Z" fill="#FFD5D3"/>
<path d="M204.438 286.16V310.913H201.167C192.84 310.913 186 316.136 186 322.495V416.055C186 447.848 156.26 466.923 119.382 466.923H60.795V355.195H45.6277V330.443H60.795V310.913H45.6277V286.16H98.862V442.398H119.382C135.145 442.398 147.933 432.633 147.933 420.597V327.036C147.933 300.694 171.725 286.387 201.167 286.387H204.438V286.16Z" fill="#FFD5D3"/>
<path d="M276.409 341.57V416.964C276.409 428.999 289.197 438.764 304.959 438.764H309.42C316.855 438.764 323.992 436.493 329.346 432.633L340.647 424.231C358.193 411.059 372.766 406.972 396.26 406.972V436.039C382.877 436.039 377.821 437.402 367.413 445.123L356.111 453.525C343.621 462.836 326.966 468.059 309.42 468.059H304.959C268.379 468.059 238.342 451.027 238.342 417.191V286.614H276.409V296.833C276.409 308.869 289.197 318.634 304.959 318.634H309.42C316.855 318.634 323.992 316.363 329.346 312.503L340.647 304.1C358.193 290.929 372.766 286.841 396.26 286.841V315.228C382.877 315.228 377.821 316.59 367.413 324.311L356.111 332.714C343.621 342.024 326.966 347.247 309.42 347.247H304.959C294.847 347.247 285.033 344.749 276.409 341.57ZM344.215 491.903L330.833 502.122L344.215 512.341L330.833 522.56L317.45 512.341L304.067 522.56L290.684 512.341L304.067 502.122L290.684 491.903L304.067 481.684L317.45 491.903L330.833 481.684L344.215 491.903Z" fill="#FFD5D3"/>
<path d="M588.677 342.251V371.319H557.153C541.985 371.319 534.848 376.542 522.654 386.761C509.569 397.661 493.212 411.286 461.093 411.286H429.866V382.219H461.093C475.665 382.219 482.506 376.996 494.402 367.004C506.892 356.558 524.141 342.251 556.855 342.251H588.677ZM490.238 313.184C490.238 305.236 498.863 298.65 509.271 298.65C519.68 298.65 528.305 305.236 528.305 313.184C528.305 321.132 519.68 327.718 509.271 327.718C498.863 327.718 490.238 321.132 490.238 313.184Z" fill="#FFD5D3"/>
<path d="M749.867 286.16H781.688V315.228H749.867C737.079 315.228 729.941 318.861 721.019 326.128V402.43C729.049 399.705 738.566 397.888 749.867 397.888H781.688V426.956H749.867C734.699 426.956 727.562 432.179 715.368 442.398C702.283 453.298 685.926 466.923 653.807 466.923H622.58V437.856H653.807C666.595 437.856 673.435 433.995 682.655 426.501V350.654C674.625 353.379 665.108 355.195 653.807 355.195H622.58V326.128H653.807C668.38 326.128 675.22 320.905 687.116 310.913C699.904 300.694 717.153 286.16 749.867 286.16Z" fill="#FFD5D3"/>
<path d="M204.438 529.827V554.58H201.167C192.84 554.58 186 559.803 186 566.161V659.722C186 691.515 156.26 710.59 119.382 710.59H60.795V598.862H45.6277V574.109H60.795V554.58H45.6277V529.827H98.862V685.837H119.382C135.145 685.837 147.933 676.073 147.933 664.037V570.476C147.933 544.134 171.725 529.827 201.167 529.827H204.438Z" fill="#FFD5D3"/>
<path d="M276.409 585.01V660.403C276.409 672.439 289.197 682.204 304.959 682.204H309.42C316.855 682.204 323.992 679.933 329.346 676.073L340.647 667.67C358.193 654.499 372.766 650.412 396.26 650.412V679.479C382.877 679.479 377.821 680.841 367.413 688.563L356.111 696.965C343.621 706.276 326.966 711.499 309.42 711.499H304.959C268.379 711.499 238.342 694.467 238.342 660.631V530.054H276.409V540.273C276.409 552.309 289.197 562.074 304.959 562.074H309.42C316.855 562.074 323.992 559.803 329.346 555.942L340.647 547.54C358.193 534.369 372.766 530.281 396.26 530.281V559.349C382.877 559.349 377.821 560.711 367.413 568.432L356.111 576.835C343.621 586.145 326.966 591.368 309.42 591.368H304.959C294.847 590.687 285.033 588.189 276.409 585.01ZM344.215 735.343L330.833 745.562L344.215 755.781L330.833 766L317.45 755.781L304.067 766L290.684 755.781L304.067 745.562L290.684 735.343L304.067 725.124L317.45 735.343L330.833 725.124L344.215 735.343Z" fill="#FFD5D3"/>
<path d="M588.677 585.691V614.758H557.153C541.985 614.758 534.848 619.982 522.654 630.201C509.569 641.101 493.212 654.726 461.093 654.726H429.866V625.659H461.093C475.665 625.659 482.506 620.436 494.402 610.444C506.892 599.998 524.141 585.691 556.855 585.691H588.677ZM490.238 556.624C490.238 548.676 498.863 542.09 509.271 542.09C519.68 542.09 528.305 548.676 528.305 556.624C528.305 564.572 519.68 571.157 509.271 571.157C498.863 571.157 490.238 564.572 490.238 556.624Z" fill="#FFD5D3"/>
<path d="M749.867 529.827H781.688V558.895H749.867C737.079 558.895 729.941 562.528 721.019 569.795V646.097C729.049 643.372 738.566 641.555 749.867 641.555H781.688V670.622H749.867C734.699 670.622 727.562 675.845 715.368 686.065C702.283 696.965 685.926 710.59 653.807 710.59H622.58V681.523H653.807C666.595 681.523 673.435 677.662 682.655 670.168V594.32C674.625 597.046 665.108 598.862 653.807 598.862H622.58V569.795H653.807C668.38 569.795 675.22 564.572 687.116 554.58C699.904 544.134 717.153 529.827 749.867 529.827Z" fill="#FFD5D3"/>
<path d="M204.438 42.7205V67.4732H201.167C192.84 67.4732 186 72.6963 186 79.0548V172.616C186 204.408 156.26 223.484 119.382 223.484H60.795V111.756H45.6277V87.0029H60.795V67.4732H45.6277V42.7205H98.862V198.731H119.382C135.145 198.731 147.933 188.966 147.933 176.93V83.3694C147.933 57.0271 171.725 42.7205 201.167 42.7205H204.438Z" stroke="#FFD5D3" stroke-width="20" mask="url(#path-3-outside-1_813_800)"/>
<path d="M276.409 98.1303V173.524C276.409 185.56 289.197 195.324 304.959 195.324H309.42C316.855 195.324 323.992 193.054 329.346 189.193L340.647 180.791C358.193 167.62 372.766 163.532 396.26 163.532V192.599C382.877 192.599 377.821 193.962 367.413 201.683L356.111 210.085C343.621 219.396 326.966 224.619 309.42 224.619H304.959C268.379 224.619 238.342 207.587 238.342 173.751V42.7205H276.409V52.9395C276.409 64.9752 289.197 74.7401 304.959 74.7401H309.42C316.855 74.7401 323.992 72.4692 329.346 68.6086L340.647 60.2063C358.193 46.8081 372.766 42.7205 396.26 42.7205V71.7879C382.877 71.7879 377.821 73.1504 367.413 80.8715L356.111 89.2738C343.621 98.5844 326.966 103.807 309.42 103.807H304.959C294.847 103.807 285.033 101.31 276.409 98.1303ZM344.215 248.236L330.833 258.455L344.215 268.674L330.833 278.893L317.45 268.674L304.067 278.893L290.684 268.674L304.067 258.455L290.684 248.236L304.067 238.017L317.45 248.236L330.833 238.017L344.215 248.236Z" stroke="#FFD5D3" stroke-width="20" mask="url(#path-3-outside-1_813_800)"/>
<path d="M588.677 98.5844V127.652H557.153C541.985 127.652 534.848 132.875 522.654 143.094C509.569 153.994 493.212 167.62 461.093 167.62H429.866V138.552H461.093C475.665 138.552 482.506 133.329 494.402 123.337C506.892 112.891 524.141 98.5844 556.855 98.5844H588.677ZM490.238 69.517C490.238 61.5689 498.863 54.9833 509.271 54.9833C519.68 54.9833 528.305 61.5689 528.305 69.517C528.305 77.4651 519.68 84.0507 509.271 84.0507C498.863 84.0507 490.238 77.6922 490.238 69.517Z" stroke="#FFD5D3" stroke-width="20" mask="url(#path-3-outside-1_813_800)"/>
<path d="M749.867 42.7205H781.688V71.7879H749.867C737.079 71.7879 729.941 75.4213 721.019 82.6882V158.99C729.049 156.265 738.566 154.448 749.867 154.448H781.688V183.516H749.867C734.699 183.516 727.562 188.739 715.368 198.958C702.283 209.858 685.926 223.484 653.807 223.484H622.58V194.416H653.807C666.595 194.416 673.435 190.556 682.655 183.062V107.214C674.625 109.939 665.108 111.756 653.807 111.756H622.58V82.6882H653.807C668.38 82.6882 675.22 77.4651 687.116 67.4732C699.904 57.0271 717.153 42.7205 749.867 42.7205Z" stroke="#FFD5D3" stroke-width="20" mask="url(#path-3-outside-1_813_800)"/>
<path d="M204.438 286.16V310.913H201.167C192.84 310.913 186 316.136 186 322.495V416.055C186 447.848 156.26 466.923 119.382 466.923H60.795V355.195H45.6277V330.443H60.795V310.913H45.6277V286.16H98.862V442.398H119.382C135.145 442.398 147.933 432.633 147.933 420.597V327.036C147.933 300.694 171.725 286.387 201.167 286.387H204.438V286.16Z" stroke="#FFD5D3" stroke-width="20" mask="url(#path-3-outside-1_813_800)"/>
<path d="M276.409 341.57V416.964C276.409 428.999 289.197 438.764 304.959 438.764H309.42C316.855 438.764 323.992 436.493 329.346 432.633L340.647 424.231C358.193 411.059 372.766 406.972 396.26 406.972V436.039C382.877 436.039 377.821 437.402 367.413 445.123L356.111 453.525C343.621 462.836 326.966 468.059 309.42 468.059H304.959C268.379 468.059 238.342 451.027 238.342 417.191V286.614H276.409V296.833C276.409 308.869 289.197 318.634 304.959 318.634H309.42C316.855 318.634 323.992 316.363 329.346 312.503L340.647 304.1C358.193 290.929 372.766 286.841 396.26 286.841V315.228C382.877 315.228 377.821 316.59 367.413 324.311L356.111 332.714C343.621 342.024 326.966 347.247 309.42 347.247H304.959C294.847 347.247 285.033 344.749 276.409 341.57ZM344.215 491.903L330.833 502.122L344.215 512.341L330.833 522.56L317.45 512.341L304.067 522.56L290.684 512.341L304.067 502.122L290.684 491.903L304.067 481.684L317.45 491.903L330.833 481.684L344.215 491.903Z" stroke="#FFD5D3" stroke-width="20" mask="url(#path-3-outside-1_813_800)"/>
<path d="M588.677 342.251V371.319H557.153C541.985 371.319 534.848 376.542 522.654 386.761C509.569 397.661 493.212 411.286 461.093 411.286H429.866V382.219H461.093C475.665 382.219 482.506 376.996 494.402 367.004C506.892 356.558 524.141 342.251 556.855 342.251H588.677ZM490.238 313.184C490.238 305.236 498.863 298.65 509.271 298.65C519.68 298.65 528.305 305.236 528.305 313.184C528.305 321.132 519.68 327.718 509.271 327.718C498.863 327.718 490.238 321.132 490.238 313.184Z" stroke="#FFD5D3" stroke-width="20" mask="url(#path-3-outside-1_813_800)"/>
<path d="M749.867 286.16H781.688V315.228H749.867C737.079 315.228 729.941 318.861 721.019 326.128V402.43C729.049 399.705 738.566 397.888 749.867 397.888H781.688V426.956H749.867C734.699 426.956 727.562 432.179 715.368 442.398C702.283 453.298 685.926 466.923 653.807 466.923H622.58V437.856H653.807C666.595 437.856 673.435 433.995 682.655 426.501V350.654C674.625 353.379 665.108 355.195 653.807 355.195H622.58V326.128H653.807C668.38 326.128 675.22 320.905 687.116 310.913C699.904 300.694 717.153 286.16 749.867 286.16Z" stroke="#FFD5D3" stroke-width="20" mask="url(#path-3-outside-1_813_800)"/>
<path d="M204.438 529.827V554.58H201.167C192.84 554.58 186 559.803 186 566.161V659.722C186 691.515 156.26 710.59 119.382 710.59H60.795V598.862H45.6277V574.109H60.795V554.58H45.6277V529.827H98.862V685.837H119.382C135.145 685.837 147.933 676.073 147.933 664.037V570.476C147.933 544.134 171.725 529.827 201.167 529.827H204.438Z" stroke="#FFD5D3" stroke-width="20" mask="url(#path-3-outside-1_813_800)"/>
<path d="M276.409 585.01V660.403C276.409 672.439 289.197 682.204 304.959 682.204H309.42C316.855 682.204 323.992 679.933 329.346 676.073L340.647 667.67C358.193 654.499 372.766 650.412 396.26 650.412V679.479C382.877 679.479 377.821 680.841 367.413 688.563L356.111 696.965C343.621 706.276 326.966 711.499 309.42 711.499H304.959C268.379 711.499 238.342 694.467 238.342 660.631V530.054H276.409V540.273C276.409 552.309 289.197 562.074 304.959 562.074H309.42C316.855 562.074 323.992 559.803 329.346 555.942L340.647 547.54C358.193 534.369 372.766 530.281 396.26 530.281V559.349C382.877 559.349 377.821 560.711 367.413 568.432L356.111 576.835C343.621 586.145 326.966 591.368 309.42 591.368H304.959C294.847 590.687 285.033 588.189 276.409 585.01ZM344.215 735.343L330.833 745.562L344.215 755.781L330.833 766L317.45 755.781L304.067 766L290.684 755.781L304.067 745.562L290.684 735.343L304.067 725.124L317.45 735.343L330.833 725.124L344.215 735.343Z" stroke="#FFD5D3" stroke-width="20" mask="url(#path-3-outside-1_813_800)"/>
<path d="M588.677 585.691V614.758H557.153C541.985 614.758 534.848 619.982 522.654 630.201C509.569 641.101 493.212 654.726 461.093 654.726H429.866V625.659H461.093C475.665 625.659 482.506 620.436 494.402 610.444C506.892 599.998 524.141 585.691 556.855 585.691H588.677ZM490.238 556.624C490.238 548.676 498.863 542.09 509.271 542.09C519.68 542.09 528.305 548.676 528.305 556.624C528.305 564.572 519.68 571.157 509.271 571.157C498.863 571.157 490.238 564.572 490.238 556.624Z" stroke="#FFD5D3" stroke-width="20" mask="url(#path-3-outside-1_813_800)"/>
<path d="M749.867 529.827H781.688V558.895H749.867C737.079 558.895 729.941 562.528 721.019 569.795V646.097C729.049 643.372 738.566 641.555 749.867 641.555H781.688V670.622H749.867C734.699 670.622 727.562 675.845 715.368 686.065C702.283 696.965 685.926 710.59 653.807 710.59H622.58V681.523H653.807C666.595 681.523 673.435 677.662 682.655 670.168V594.32C674.625 597.046 665.108 598.862 653.807 598.862H622.58V569.795H653.807C668.38 569.795 675.22 564.572 687.116 554.58C699.904 544.134 717.153 529.827 749.867 529.827Z" stroke="#FFD5D3" stroke-width="20" mask="url(#path-3-outside-1_813_800)"/>
</g>
<path d="M535.988 250.03C535.988 250.03 541.568 278.359 555.732 297.674C569.896 316.989 617.111 339.738 611.102 377.939C611.102 377.939 644.153 383.09 618.828 424.296C618.828 424.296 624.408 450.049 596.938 446.615C596.938 446.615 605.093 484.387 561.312 481.383C561.312 481.383 542.426 491.684 524.398 481.383C524.398 481.383 500.791 492.543 486.627 482.241C486.627 482.241 473.321 497.693 460.015 486.534L445.421 466.36C445.421 466.36 366.443 442.752 337.685 453.054C308.927 463.355 283.173 454.771 279.31 446.186C279.31 446.186 262.141 451.337 259.137 441.465C256.132 431.593 253.127 397.254 270.726 393.391C270.726 393.391 241.109 372.359 254.415 340.167C254.415 340.167 238.534 226.852 368.16 222.988C497.786 219.125 513.668 227.281 535.988 250.03Z" fill="url(#paint0_linear_813_800)" stroke="#8A3933" stroke-width="4.29226" stroke-miterlimit="10"/>
<g opacity="0.3">
<path d="M535.988 250.03C535.988 250.03 541.568 278.359 555.732 297.674C569.896 316.989 617.111 339.738 611.102 377.939C611.102 377.939 644.153 383.09 618.828 424.296C618.828 424.296 624.408 450.049 596.938 446.615C596.938 446.615 605.093 484.387 561.312 481.383C561.312 481.383 542.426 491.684 524.398 481.383C524.398 481.383 500.791 492.543 486.627 482.241C486.627 482.241 473.321 497.693 460.015 486.534L445.421 466.36C445.421 466.36 366.443 442.752 337.685 453.054C308.927 463.355 283.173 454.771 279.31 446.186C279.31 446.186 262.141 451.337 259.137 441.465C256.132 431.593 253.127 397.254 270.726 393.391C270.726 393.391 241.109 372.359 254.415 340.167C254.415 340.167 238.534 226.852 368.16 222.988C497.786 219.125 513.668 227.281 535.988 250.03Z" stroke="#8A3933" stroke-width="4.29226" stroke-miterlimit="10"/>
<path d="M540.709 409.273C546.718 412.707 553.586 415.711 560.883 415.711C564.317 415.711 567.75 415.282 571.184 414.423C574.618 413.565 577.623 411.848 581.056 410.131C587.066 406.268 592.646 401.547 597.796 395.967C602.947 390.387 607.239 384.378 611.102 378.368C608.527 385.236 604.235 392.104 599.942 398.113C595.221 404.122 590.07 409.702 583.203 413.994C576.764 418.286 569.038 421.291 560.883 420.862C552.727 420.862 545.001 417.428 538.563 413.136L540.709 409.273Z" fill="#8A3933"/>
<path d="M620.545 424.725C618.828 429.876 614.536 432.451 609.814 433.309C605.522 434.168 601.23 433.309 597.367 432.022C593.504 430.734 589.211 428.588 587.065 424.725C585.778 422.579 585.778 420.433 586.207 418.286C586.636 416.14 587.495 414.423 589.211 412.707C587.495 416.14 587.065 420.433 589.211 423.437C591.358 426.442 595.221 427.729 598.654 428.588C602.517 429.446 606.381 429.876 609.385 429.017C612.819 428.588 615.823 426.013 616.682 423.437L620.545 424.725Z" fill="#8A3933"/>
<path d="M593.504 428.588C591.358 432.451 588.353 435.885 584.919 438.46C581.486 441.465 577.623 443.611 573.33 445.328C564.746 448.332 555.303 447.903 547.147 444.899C538.992 441.894 531.266 438.031 524.828 432.022C521.823 429.017 518.819 425.154 517.531 420.433C517.102 417.857 517.531 415.282 518.818 413.136C520.106 410.99 522.252 409.702 524.828 410.131C522.682 410.99 521.823 412.707 521.394 414.424C520.965 416.14 521.394 417.857 521.823 419.145C523.111 422.15 525.686 425.154 528.691 427.3C534.7 432.022 541.997 435.885 549.294 438.46C551.01 439.319 553.157 439.319 554.874 439.748C556.59 440.177 558.737 440.177 560.453 440.606C564.317 440.606 567.75 440.177 571.613 439.319C575.047 438.031 578.481 436.314 581.486 434.168C584.49 432.022 587.495 429.017 589.641 426.442L593.504 428.588Z" fill="#8A3933"/>
<path d="M496.928 332.012C500.791 332.87 504.654 334.158 508.517 335.446C512.38 336.733 515.814 338.021 519.248 339.738C526.545 343.172 533.412 347.035 539.851 351.756C546.289 356.478 551.869 362.487 556.59 368.925C561.312 375.364 563.887 383.519 564.317 391.245C560.883 383.948 557.02 377.939 552.727 371.93C548.006 365.921 542.426 360.77 536.417 356.478C530.408 352.185 523.969 348.322 517.102 344.889C510.234 341.455 503.366 338.45 496.07 336.304L496.928 332.012Z" fill="#8A3933"/>
<path d="M575.906 442.752C572.472 448.332 568.18 453.483 563.029 457.775C557.878 462.067 551.869 466.359 544.572 466.789C542.855 467.218 540.709 466.789 538.992 466.359C537.275 465.93 535.558 465.501 533.842 464.642C530.837 463.355 527.832 461.638 525.257 459.921C522.682 458.204 519.677 455.629 517.96 453.053C517.102 451.766 516.243 450.049 515.385 448.332C514.956 447.473 514.956 446.615 514.956 445.756C514.956 444.898 515.385 444.04 516.243 443.61C514.956 444.898 515.814 446.615 516.672 447.903C517.531 449.19 518.389 450.478 519.677 451.336C521.823 453.483 524.399 455.199 527.403 456.487C529.978 457.775 532.983 459.492 535.988 460.35C537.275 461.209 538.563 461.209 540.28 461.638C541.568 461.638 542.855 462.067 544.572 461.638C550.152 460.779 555.303 457.775 560.024 453.912C564.746 450.049 569.038 445.327 572.472 440.177L575.906 442.752Z" fill="#8A3933"/>
<path d="M534.7 463.785C531.266 467.648 527.403 470.223 523.111 472.798C518.818 475.374 514.097 476.661 509.375 477.52C504.654 477.949 499.503 477.091 495.211 475.374C490.489 473.657 487.056 470.223 484.051 466.789C487.914 469.365 491.777 472.369 496.069 473.228C500.362 474.515 504.654 474.944 508.946 474.086C513.238 473.228 517.101 471.511 520.964 469.365C524.828 467.218 528.261 464.214 531.695 461.209L534.7 463.785Z" fill="#8A3933"/>
</g>
<path d="M278.881 446.186C278.881 446.186 279.739 433.738 299.913 436.313C319.657 438.889 317.082 425.154 317.082 425.154" fill="url(#paint1_linear_813_800)"/>
<path d="M276.735 446.186C277.164 440.606 281.456 436.743 285.749 435.026C290.47 433.309 294.762 433.738 299.055 434.167C302.918 434.597 307.21 435.455 310.644 434.167C314.078 433.309 316.653 429.446 316.653 425.154C317.511 427.3 317.082 429.446 316.653 431.592C315.794 433.738 314.078 435.455 311.931 436.743C307.639 438.889 302.918 438.889 298.625 438.46C294.762 438.03 290.899 438.46 287.466 439.318C284.032 440.606 281.456 443.181 281.027 446.186H276.735Z" fill="#8A3933"/>
<path d="M535.988 250.03C535.988 250.03 541.568 278.359 555.732 297.674C569.896 316.989 617.111 339.738 611.102 377.939C611.102 377.939 644.153 383.09 618.828 424.296C618.828 424.296 624.408 450.049 596.938 446.615C596.938 446.615 605.093 484.387 561.312 481.383C561.312 481.383 542.426 491.684 524.398 481.383C524.398 481.383 500.791 492.543 486.627 482.241C486.627 482.241 473.321 497.693 460.015 486.534L445.421 466.36C445.421 466.36 366.443 442.752 337.685 453.054C308.927 463.355 283.173 454.771 279.31 446.186C279.31 446.186 262.141 451.337 259.137 441.465C256.132 431.593 253.127 397.254 270.726 393.391C270.726 393.391 241.109 372.359 254.415 340.167C254.415 340.167 238.534 226.852 368.16 222.988C497.786 219.125 513.668 227.281 535.988 250.03Z" stroke="#8A3933" stroke-width="4.29226" stroke-miterlimit="10"/>
<path d="M486.197 468.935C479.759 474.086 473.32 477.949 467.311 480.954V424.725H361.292V479.666C355.283 476.662 348.416 472.798 341.119 467.648L312.79 614.872H515.385C515.385 568.516 486.197 515.292 486.197 468.935Z" fill="url(#paint2_linear_813_800)" stroke="#893932" stroke-width="4.29226" stroke-miterlimit="10"/>
<path d="M543.285 322.999C535.559 319.136 524.399 334.588 518.39 343.601C518.39 327.291 517.102 311.839 515.814 299.82C515.814 299.82 521.823 223.418 444.133 227.281C366.443 231.144 382.754 230.715 382.754 230.715C382.754 230.715 269.438 241.446 293.904 343.601C293.904 343.601 294.333 346.606 295.621 352.186C288.324 343.601 275.447 331.154 268.58 335.875C258.708 342.743 279.31 438.031 316.653 416.57C335.11 455.2 367.302 493.402 420.526 487.392C472.892 481.383 498.216 448.333 509.805 409.702C549.723 424.296 554.015 328.579 543.285 322.999Z" fill="url(#paint3_linear_813_800)" stroke="#893932" stroke-width="4.29226" stroke-miterlimit="10"/>
<path d="M280.169 340.167C280.169 340.167 256.561 319.994 272.014 374.076C287.466 427.73 308.498 422.579 318.37 417.857L312.361 387.811C312.79 388.241 285.749 341.884 280.169 340.167Z" fill="url(#paint4_linear_813_800)"/>
<path d="M531.695 329.436C531.695 329.436 554.015 305.829 545.431 362.057C536.846 418.286 513.668 416.14 502.079 413.135L504.225 382.231C504.225 382.231 526.115 331.582 531.695 329.436Z" fill="url(#paint5_linear_813_800)"/>
<path d="M543.285 322.999C535.559 319.136 524.399 334.588 518.39 343.601C518.39 327.291 517.102 311.839 515.814 299.82C515.814 299.82 521.823 223.418 444.133 227.281C366.443 231.144 382.754 230.715 382.754 230.715C382.754 230.715 269.438 241.446 293.904 343.601C293.904 343.601 294.333 346.606 295.621 352.186C288.324 343.601 275.447 331.154 268.58 335.875C258.708 342.743 279.31 438.031 316.653 416.57C335.11 455.2 367.302 493.402 420.526 487.392C472.892 481.383 498.216 448.333 509.805 409.702C549.723 424.296 554.015 328.579 543.285 322.999Z" stroke="#893932" stroke-width="4.29226" stroke-miterlimit="10"/>
<path d="M441.129 362.916C441.129 362.916 472.462 324.715 499.933 359.911V384.377C499.933 384.377 499.074 408.414 476.754 408.414C454.435 408.414 444.992 395.966 444.992 395.966L441.129 362.916Z" fill="url(#paint6_linear_813_800)"/>
<path d="M384.471 371.072L380.608 402.835C380.608 402.835 369.019 413.994 353.567 413.994C338.114 413.994 327.384 394.679 327.384 394.679L320.945 367.638C320.945 367.638 329.53 347.464 352.708 347.464C375.886 347.464 384.471 371.072 384.471 371.072Z" fill="url(#paint7_linear_813_800)"/>
<path d="M480.188 393.821C475.038 393.821 471.175 389.958 471.175 384.807V362.917C471.175 357.766 475.038 353.903 480.188 353.903C485.339 353.903 489.202 357.766 489.202 362.917V384.807C489.202 389.529 485.339 393.821 480.188 393.821Z" fill="#F68A3B" stroke="#CC6328" stroke-width="4.29226" stroke-miterlimit="10"/>
<path d="M480.188 382.661C481.848 382.661 483.193 378.625 483.193 373.647C483.193 368.669 481.848 364.633 480.188 364.633C478.529 364.633 477.184 368.669 477.184 373.647C477.184 378.625 478.529 382.661 480.188 382.661Z" fill="#CC6328"/>
<path d="M433.403 316.989C433.403 316.989 430.398 329.437 436.836 330.295C442.846 331.583 475.038 305.829 502.937 334.158C502.508 334.158 492.207 293.382 433.403 316.989Z" fill="#A1553C" stroke="#883832" stroke-width="4.29226" stroke-miterlimit="10"/>
<path opacity="0.16" d="M522.681 294.24C522.681 294.24 526.974 334.588 518.389 342.314C509.375 350.04 451.859 323.857 453.147 313.555C454.434 302.825 444.991 251.747 444.991 251.747C451.43 288.231 446.708 313.126 444.991 314.414C420.526 347.464 356.142 318.277 356.142 318.277C363.009 312.697 371.164 264.624 371.164 264.624C371.164 264.624 356.571 310.122 348.415 315.272C340.26 319.994 328.671 335.875 292.187 346.177C292.187 346.177 276.305 319.994 292.187 274.496C292.187 274.496 302.059 231.573 383.183 231.144C464.307 230.715 503.366 219.555 522.681 294.24Z" fill="#681C0E"/>
<path d="M377.603 332.012C377.603 332.012 387.046 326.003 382.325 319.564C377.603 312.697 341.548 313.555 320.945 337.592C320.945 337.592 366.873 317.418 377.603 332.012Z" fill="#A1553C" stroke="#883832" stroke-width="4.29226" stroke-miterlimit="10"/>
<path d="M444.992 395.537C449.284 399.83 454.435 402.405 460.014 404.551C463.019 405.41 465.594 406.268 468.599 406.697C471.604 407.127 474.608 407.127 477.184 407.127C478.9 407.127 481.476 407.127 483.193 406.268C485.339 405.839 487.056 404.98 488.773 403.693C490.49 402.405 492.206 401.117 493.494 398.971C494.782 397.254 495.64 395.108 496.928 393.391L497.786 393.821C497.357 395.967 496.499 398.113 495.211 400.259C493.923 402.405 492.206 404.122 490.49 405.839C488.773 407.556 486.197 408.414 484.051 409.273C481.905 410.131 479.33 410.131 476.754 410.131C473.75 410.131 470.745 409.702 467.741 409.273C464.736 408.843 461.731 407.985 458.727 406.697C455.722 405.41 453.147 404.122 450.571 402.405C447.996 400.688 445.85 398.542 443.704 395.967L444.992 395.537Z" fill="#E58650"/>
<path d="M380.608 403.264C378.461 405.41 376.315 407.127 374.169 408.844C371.594 410.561 369.019 411.849 366.443 413.136C363.868 414.424 360.863 414.853 357.859 415.282C354.854 415.712 351.849 415.282 348.845 414.853H349.274C345.84 414.424 343.694 413.136 341.548 411.849C339.402 410.561 337.256 408.844 335.539 406.698C333.822 404.981 332.105 402.835 330.817 400.689C329.53 398.543 328.242 396.396 327.384 394.25L327.813 393.821C329.53 395.538 330.817 397.684 332.534 399.401C334.251 401.118 335.968 402.835 337.685 404.552C339.402 406.269 341.548 407.556 343.265 408.844C344.982 410.132 347.557 410.99 349.274 410.99H349.703C352.279 411.419 354.854 411.419 357.859 411.419C360.434 410.99 363.009 410.561 366.014 409.702C371.165 407.986 376.315 405.41 381.037 402.406L380.608 403.264Z" fill="#E58650"/>
<path d="M332.964 413.994L334.251 410.131L335.539 405.838L338.544 408.414L341.119 410.56L337.256 412.277L332.964 413.994Z" fill="#E58650"/>
<path d="M352.279 421.72L350.562 417.857L348.416 413.994H352.279H355.713L353.996 417.857L352.279 421.72Z" fill="#E58650"/>
<path d="M369.877 419.145L366.872 416.14L363.868 413.136L367.302 411.848L370.736 410.56L370.306 414.853L369.877 419.145Z" fill="#E58650"/>
<path d="M456.581 413.136L456.152 408.844V404.552L459.585 405.839L463.019 407.127L459.585 410.132L456.581 413.136Z" fill="#E58650"/>
<path d="M476.754 416.999L475.037 413.136L473.321 409.272H476.754H480.617L478.471 413.136L476.754 416.999Z" fill="#E58650"/>
<path d="M518.389 343.601L510.234 393.82V335.016L517.96 327.719L520.965 334.587L518.389 343.601Z" fill="#BA5A3B"/>
<path d="M299.484 343.172L313.219 392.104L288.324 339.309L292.187 329.437L297.767 334.158L299.484 343.172Z" fill="#BA5A3B"/>
<path d="M522.252 338.45L511.951 375.793L510.234 335.016" fill="#BA5A3B"/>
<path d="M522.252 338.45L511.951 375.793L510.234 335.016" stroke="#8A3933" stroke-width="4.29226" stroke-miterlimit="10"/>
<path d="M297.767 337.592L308.498 383.09L288.753 344.889" fill="#BA5A3B"/>
<path d="M297.767 337.592L308.498 383.09L288.753 344.889" stroke="#8A3933" stroke-width="4.29226" stroke-miterlimit="10"/>
<path d="M493.494 411.419L490.061 409.273L486.198 407.127L489.202 405.41L492.207 403.264L493.065 407.556L493.494 411.419Z" fill="#E58650"/>
<path d="M522.681 285.656C522.681 285.656 526.974 326.003 518.389 333.729C509.375 341.455 451.859 315.272 453.147 304.971C454.434 294.24 444.991 243.162 444.991 243.162C451.43 279.647 446.708 304.542 444.991 305.829C420.526 338.88 356.142 309.692 356.142 309.692C363.009 304.112 371.164 256.039 371.164 256.039C371.164 256.039 356.571 301.537 348.415 306.688C340.26 311.409 328.671 327.291 292.187 337.592C292.187 337.592 276.305 311.409 292.187 265.911C292.187 265.911 302.059 222.989 383.183 222.559C464.307 222.13 503.366 210.97 522.681 285.656Z" fill="url(#paint8_linear_813_800)" stroke="#8A3933" stroke-width="4.29226" stroke-miterlimit="10"/>
<path d="M523.111 285.655C523.969 293.381 524.828 301.107 524.828 308.833C524.828 312.696 524.828 316.559 524.398 320.422C523.969 324.285 523.111 328.148 521.394 332.012C520.965 332.87 520.106 333.728 519.248 334.587C518.389 335.445 517.102 335.875 516.243 335.875C514.097 336.304 511.951 336.304 510.234 335.875C506.371 335.445 502.508 334.587 498.645 333.299C490.919 331.153 483.622 328.148 476.754 324.715C469.887 321.281 462.59 317.418 456.581 312.267C455.293 310.979 453.576 309.263 452.718 307.116C452.288 305.829 452.288 304.112 452.288 303.683C452.288 302.824 452.288 301.966 452.288 301.107C452.288 297.244 451.859 293.381 451.001 289.518C448.855 274.066 446.279 258.614 443.704 243.591L447.996 242.732C449.713 253.034 451.001 263.765 451.001 274.495C451.001 279.646 451.001 285.226 450.572 290.377C450.572 292.952 450.142 295.527 449.713 298.532C449.284 299.82 449.284 301.107 448.855 302.395C448.855 303.253 448.425 303.683 448.425 304.541C448.425 304.97 447.996 305.399 447.996 305.829C447.996 306.258 447.996 306.258 447.567 306.687C447.138 307.116 447.138 307.546 446.708 307.975L447.138 307.546C441.987 314.413 434.69 319.564 426.535 321.71C418.38 324.285 410.224 324.715 402.069 323.856C393.914 323.427 385.758 321.71 378.032 319.564C370.306 317.418 362.58 314.842 355.283 311.838L353.137 310.979L354.854 308.404C355.283 307.975 355.283 307.975 355.712 307.546C356.142 307.116 356.142 306.687 356.571 306.258C357 305.399 357.429 304.541 357.859 303.253C358.717 301.107 359.576 298.961 360.005 296.815C361.292 292.523 362.58 287.801 363.439 283.509C365.585 274.495 367.302 265.481 369.018 256.468L373.311 257.326C370.306 266.769 366.872 276.641 363.439 285.655C361.722 290.377 359.576 295.098 357 299.39C356.571 300.678 355.712 301.536 355.283 302.824C354.854 304.112 353.996 304.97 353.137 306.258C352.708 307.116 350.562 308.833 349.703 309.263C348.845 309.692 347.986 310.55 346.699 311.409C338.973 317.847 330.817 324.285 321.804 329.007C312.79 333.728 303.347 337.591 293.475 340.167H291.329L290.47 338.879C287.465 332.87 286.178 326.861 284.89 320.852C284.032 314.842 283.602 308.404 284.032 302.395C284.461 296.386 285.319 289.947 286.607 283.938C287.036 280.934 288.324 277.929 288.753 274.924L291.758 266.34L292.616 266.769L290.041 275.354C289.612 278.358 288.753 281.363 288.324 284.367C287.465 290.377 286.607 296.386 286.607 302.395C286.607 308.404 287.036 314.413 288.324 320.422C289.612 326.002 291.329 332.012 294.333 337.162L291.758 336.304C301.201 333.728 310.644 329.865 319.228 325.573C327.813 320.852 335.539 314.842 343.265 308.404C344.123 307.546 345.411 306.687 346.27 306.258C347.128 305.829 347.128 305.399 347.557 305.399C347.986 304.97 348.416 304.97 348.416 304.541C349.274 303.683 349.703 302.824 350.562 301.536C350.991 300.678 351.849 299.39 352.279 298.532C354.425 294.24 356.571 289.518 358.288 285.226C361.722 275.783 365.155 266.34 368.16 256.897L372.452 257.755C370.735 267.198 369.018 276.212 366.872 285.226C366.443 288.66 365.155 292.952 363.868 297.673C363.009 299.82 362.58 302.395 361.292 304.541C360.863 305.829 360.434 306.687 359.576 307.975C359.146 308.404 359.146 309.263 358.717 309.692C358.288 310.121 357.859 310.979 357 311.409L356.571 307.975C363.868 310.979 371.165 313.555 378.891 315.701C386.617 317.847 394.343 319.135 402.069 319.564C409.795 319.993 417.521 319.564 424.818 317.418C432.115 315.272 438.553 310.979 442.845 304.97L443.275 304.541C443.275 304.541 442.845 304.541 442.845 304.97C442.845 304.541 442.845 304.541 443.275 304.112C443.275 303.683 443.704 302.824 443.704 302.395C444.133 301.107 444.133 299.82 444.562 298.532C444.992 295.957 444.992 293.381 445.421 290.806C445.85 285.655 445.85 280.504 445.85 275.354C445.421 265.052 444.562 254.751 442.845 244.449L447.138 243.591C449.713 259.043 452.288 274.495 454.005 289.947C454.435 293.81 454.864 297.673 454.864 301.536C454.864 303.253 454.435 306.258 454.864 306.687C455.293 307.975 456.581 309.263 457.868 310.55C463.448 315.701 470.316 319.564 477.184 322.998C484.051 326.432 491.348 329.436 498.645 331.582C502.508 332.87 505.942 333.728 509.805 334.158C511.522 334.587 513.668 334.587 515.385 334.158C516.243 334.158 517.102 333.728 517.531 333.299C517.96 332.87 518.819 332.012 519.248 331.582C520.965 328.578 521.823 324.715 522.252 320.852C522.682 316.989 523.111 313.126 523.111 309.263C523.111 301.536 523.111 293.81 522.682 286.084L523.111 285.655Z" fill="#883832"/>
<path d="M377.603 438.89C382.754 442.753 388.334 445.757 394.343 447.474C400.352 449.191 406.79 450.05 412.8 450.05C419.238 450.05 425.247 448.762 431.685 447.045C434.69 446.187 437.695 444.899 440.699 444.04C443.704 442.753 446.708 441.465 449.713 440.177L450.571 441.894C447.996 443.611 444.991 445.328 441.987 447.474C438.982 448.762 435.978 450.479 432.544 451.766C426.106 454.342 419.238 455.629 412.37 455.629C405.503 455.629 398.206 454.342 391.767 451.766C388.334 450.479 385.329 448.762 382.754 447.045C380.178 444.899 377.174 442.753 375.028 440.177L377.603 438.89Z" fill="#CB6254"/>
<path d="M423.53 421.72L414.946 426.871L405.932 422.149V416.999H423.53V421.72Z" fill="#C65C55"/>
<path d="M463.878 434.597C465.595 431.163 467.741 427.729 470.316 425.154C471.175 424.295 471.604 423.866 472.891 423.008C473.75 422.579 475.467 421.72 477.184 422.149C478.042 422.579 478.471 423.008 478.901 423.437C479.33 423.866 479.759 424.295 479.759 424.725C480.188 425.583 481.047 426.442 481.047 427.3L482.334 429.875C482.764 430.734 483.193 431.163 482.334 430.734C481.476 430.734 482.334 430.734 482.764 429.875C483.193 429.446 484.051 428.588 484.481 428.158C487.056 425.583 489.202 422.579 491.777 420.003L493.924 421.72C492.207 425.154 490.06 428.158 487.485 431.163C486.627 432.022 486.197 432.451 485.339 433.309C484.91 433.738 484.481 434.168 484.051 434.597C483.622 435.026 482.764 435.455 481.047 435.455C479.759 435.455 478.901 434.168 478.471 433.738C478.042 433.309 477.613 432.451 477.613 432.022L476.754 429.446C476.325 428.588 475.896 427.729 475.896 427.3C475.896 426.871 475.467 426.871 475.467 426.442C475.038 426.012 475.038 426.012 475.038 426.012C475.038 426.012 474.608 426.012 474.179 426.442C473.321 426.871 472.891 427.3 472.033 427.729C469.458 429.875 466.882 432.88 464.307 435.885L463.878 434.597Z" fill="#F79968"/>
<path d="M333.393 434.597C335.11 431.163 337.256 427.729 339.831 425.154C340.69 424.295 341.119 423.866 342.407 423.008C343.265 422.579 344.982 421.72 346.699 422.149C347.557 422.579 347.987 423.008 348.416 423.437C348.845 423.866 349.274 424.295 349.274 424.725C349.703 425.583 350.562 426.442 350.562 427.3L351.85 429.875C352.279 430.734 352.708 431.163 351.85 430.734C350.991 430.734 351.85 430.734 352.279 429.875C352.708 429.446 353.566 428.588 353.996 428.158C356.571 425.583 358.717 422.579 361.293 420.003L363.439 421.72C361.722 425.154 359.576 428.158 357 431.163C356.142 432.022 355.713 432.451 354.854 433.309C354.425 433.738 353.996 434.168 353.566 434.597C353.137 435.026 352.279 435.455 350.562 435.455C349.274 435.455 348.416 434.168 347.987 433.738C347.557 433.309 347.128 432.451 347.128 432.022L346.27 429.446C345.84 428.588 345.411 427.729 345.411 427.3C345.411 426.871 344.982 426.871 344.982 426.442C344.553 426.012 344.553 426.012 344.553 426.012C344.553 426.012 344.123 426.012 343.694 426.442C342.836 426.871 342.407 427.3 341.548 427.729C338.973 429.875 336.397 432.88 333.822 435.885L333.393 434.597Z" fill="#F79968"/>
<path d="M369.448 398.113C364.297 398.113 360.434 394.25 360.434 389.099V367.209C360.434 362.058 364.297 358.195 369.448 358.195C374.598 358.195 378.461 362.058 378.461 367.209V389.099C378.032 394.25 374.169 398.113 369.448 398.113Z" fill="#F68A3B" stroke="#CC6328" stroke-width="4.29226" stroke-miterlimit="10"/>
<path d="M369.448 386.095C371.107 386.095 372.452 382.059 372.452 377.081C372.452 372.103 371.107 368.067 369.448 368.067C367.788 368.067 366.443 372.103 366.443 377.081C366.443 382.059 367.788 386.095 369.448 386.095Z" fill="#CC6328"/>
<path d="M370.735 372.36C373.106 372.36 375.028 370.438 375.028 368.067C375.028 365.697 373.106 363.775 370.735 363.775C368.365 363.775 366.443 365.697 366.443 368.067C366.443 370.438 368.365 372.36 370.735 372.36Z" fill="#FCCFB9"/>
<path d="M482.763 369.784C485.134 369.784 487.056 367.862 487.056 365.491C487.056 363.121 485.134 361.199 482.763 361.199C480.393 361.199 478.471 363.121 478.471 365.491C478.471 367.862 480.393 369.784 482.763 369.784Z" fill="#FCCFB9"/>
<path d="M562.17 245.308C567.321 274.496 552.727 293.811 552.727 293.811C405.932 180.924 253.557 340.167 253.557 340.167C224.369 324.286 204.195 299.391 190.46 273.637C165.136 226.422 160.844 176.203 160.414 174.486C159.985 171.052 165.994 160.751 178.871 161.18C192.177 161.609 289.182 116.54 304.634 115.682C320.087 114.394 377.603 113.965 404.644 107.527C431.686 101.088 441.558 102.805 498.216 127.271C508.517 131.992 518.818 135.855 528.691 139.289C571.613 154.312 605.951 159.463 615.394 166.76C626.554 175.774 562.17 245.308 562.17 245.308Z" fill="#F68A3B"/>
<path d="M514.097 369.784L543.714 323.857" stroke="#8A3933" stroke-width="4.29226" stroke-miterlimit="10"/>
<path d="M306.781 380.515L268.58 335.446" stroke="#8A3933" stroke-width="4.29226" stroke-miterlimit="10"/>
<path d="M253.557 340.167C224.369 324.286 204.196 299.391 190.46 273.637C230.378 210.112 297.767 183.929 298.625 183.929C258.278 216.55 253.557 340.167 253.557 340.167Z" fill="url(#paint9_linear_813_800)"/>
<path d="M552.728 293.382C552.728 293.382 537.705 181.783 483.193 169.764C483.193 169.764 529.979 165.901 562.171 244.879C566.892 274.496 552.728 293.382 552.728 293.382Z" fill="url(#paint10_linear_813_800)"/>
<path d="M562.17 245.308C562.17 245.308 532.983 161.609 483.193 170.194C454.864 174.915 491.777 156.029 528.262 139.29C571.184 154.312 605.522 159.463 614.965 166.76C626.554 175.774 562.17 245.308 562.17 245.308Z" fill="url(#paint11_linear_813_800)"/>
<path d="M524.399 357.337C526.545 361.2 528.262 365.063 529.549 368.926C530.837 373.218 531.695 377.51 530.408 382.232C529.549 384.378 528.691 386.953 526.545 388.241C524.828 389.529 522.682 390.816 520.106 391.246C517.531 391.675 514.956 390.387 513.668 388.67C512.38 386.953 511.522 384.807 511.093 382.661C511.951 384.378 513.239 386.095 514.956 387.383C516.672 388.67 517.96 388.67 519.677 388.241C521.394 387.812 522.682 386.524 523.969 385.666C525.257 384.807 525.686 383.09 526.115 381.373C526.545 377.94 526.115 374.077 524.828 370.213C523.54 366.35 522.252 362.917 520.106 359.483L524.399 357.337Z" fill="#8A3933"/>
<path d="M295.621 365.921C293.904 369.355 292.187 373.218 290.899 376.652C289.612 380.515 289.182 384.378 289.612 387.812C290.041 389.529 290.47 391.246 291.758 392.104C293.045 393.392 294.762 394.25 296.05 394.679C297.767 395.109 299.484 394.679 300.772 393.821C302.059 392.533 303.347 391.246 304.635 389.1C304.205 391.246 303.347 393.392 302.059 395.109C300.772 396.826 298.196 398.113 295.621 397.684C293.045 397.255 291.329 396.396 289.182 394.679C287.036 393.392 286.178 390.816 285.319 388.67C284.032 383.949 284.89 379.657 286.178 375.364C287.466 371.072 289.182 367.209 291.329 363.775L295.621 365.921Z" fill="#8A3933"/>
<path d="M441.129 362.916C441.129 362.916 459.585 314.414 502.508 344.889L499.503 359.912C499.933 359.912 478.042 324.286 441.129 362.916Z" fill="#462E2D"/>
<path d="M445.85 345.747L449.713 347.464L453.576 349.181L451.001 351.756L448.425 353.902L447.138 350.039L445.85 345.747Z" fill="#462E2D"/>
<path d="M469.457 330.724L472.462 335.016L475.037 338.879L471.174 339.308L467.311 340.167L468.17 335.445L469.457 330.724Z" fill="#462E2D"/>
<path d="M503.367 337.592L502.508 344.889L501.221 352.615L495.211 349.61L489.202 346.606L495.641 341.884L503.367 337.592Z" fill="#462E2D"/>
<path d="M384.471 371.072C384.471 371.072 370.735 319.565 311.073 357.766L320.945 368.067C320.945 368.067 330.388 347.894 352.708 347.894C375.028 347.894 384.471 371.072 384.471 371.072Z" fill="#462E2D"/>
<path d="M374.169 345.318L370.306 347.035L366.443 348.752L369.018 351.327L372.023 353.473L372.882 349.61L374.169 345.318Z" fill="#462E2D"/>
<path d="M344.982 336.734L343.694 341.026L341.977 345.747L345.84 345.318L350.132 344.889L347.557 340.597L344.982 336.734Z" fill="#462E2D"/>
<path d="M306.781 351.757L311.073 357.337L316.224 362.487L320.945 357.766L325.666 353.473L321.374 351.757H306.781Z" fill="#462E2D"/>
<path d="M487.056 468.935C487.056 468.935 486.626 469.794 486.197 470.652C485.339 470.223 484.051 470.223 483.193 470.223C478.9 470.223 475.467 473.657 475.467 477.949C475.467 478.807 475.467 479.666 475.896 480.524H475.467C472.033 480.524 469.457 482.67 468.17 485.675H467.741C463.877 485.675 460.873 488.25 460.014 492.113C459.585 492.113 458.727 492.113 458.298 492.113C455.293 492.113 452.718 493.83 451.43 496.406C451.001 496.406 450.142 496.406 449.713 496.406C446.708 496.406 443.704 498.552 442.845 501.127C441.558 500.269 440.27 499.839 438.982 499.839C435.549 499.839 432.973 501.986 431.686 504.99C430.398 504.132 428.681 503.273 426.964 503.273C424.389 503.273 422.243 504.561 420.955 506.278C419.667 504.99 417.521 503.702 415.375 503.702C413.229 503.702 411.083 504.561 409.795 505.849C408.507 504.561 406.361 503.702 404.215 503.702C402.927 503.702 401.21 504.132 400.352 504.99C399.064 504.132 397.347 503.273 395.63 503.273C394.343 503.273 393.055 503.702 392.197 504.132C390.909 501.556 388.334 499.41 385.329 499.41C384.041 499.41 382.324 499.839 381.466 500.698C380.608 497.264 377.603 494.259 373.74 494.259C372.881 494.259 371.594 494.689 370.735 494.689V494.259C370.735 489.967 367.302 486.533 363.009 486.533C363.009 482.241 359.575 478.807 355.283 478.807C354.854 478.807 354.425 478.807 353.996 478.807C353.996 478.378 353.996 477.949 353.996 477.52C353.996 473.227 350.562 469.794 346.269 469.794H345.84C344.553 468.935 342.836 468.506 341.548 468.506H313.219V720.033H530.837V468.935H487.056Z" fill="url(#paint12_linear_813_800)"/>
<path d="M515.385 635.904H313.219V805.448H515.385V635.904Z" fill="url(#paint13_linear_813_800)"/>
<path d="M530.837 468.935V720.462H515.385V805.019H313.219V720.462V635.904V468.935H341.548C342.836 468.935 344.553 469.364 345.84 470.223H346.269C350.562 470.223 353.996 473.657 353.996 477.949C353.996 478.378 353.996 478.807 353.996 479.237C354.425 479.237 354.854 479.237 355.283 479.237C359.576 479.237 363.009 482.67 363.009 486.963C367.302 486.963 370.735 490.396 370.735 494.689V495.118C371.594 494.689 372.882 494.689 373.74 494.689C377.603 494.689 380.608 497.264 381.466 501.127C382.754 500.269 384.041 499.839 385.329 499.839C388.334 499.839 390.909 501.556 392.197 504.561C393.484 504.132 394.343 503.702 395.631 503.702C397.347 503.702 399.064 504.132 400.352 505.419C401.64 504.561 402.927 504.132 404.215 504.132C406.361 504.132 408.507 504.99 409.795 506.278C411.083 504.99 413.229 504.132 415.375 504.132C417.521 504.132 419.667 504.99 420.955 506.707C422.243 504.99 424.389 503.702 426.964 503.702C428.681 503.702 430.398 504.132 431.686 505.419C432.544 502.415 435.549 500.269 438.982 500.269C440.27 500.269 441.987 500.698 442.845 501.556C444.133 498.981 446.708 496.835 449.713 496.835C450.142 496.835 451.001 496.835 451.43 496.835C452.718 494.259 455.293 492.543 458.298 492.543C458.727 492.543 459.585 492.543 460.015 492.543C460.444 489.109 463.878 486.104 467.741 486.104H468.17C469.028 483.1 472.033 480.953 475.467 480.953H475.896C475.467 480.095 475.467 479.237 475.467 478.378C475.467 474.086 478.9 470.652 483.193 470.652C484.051 470.652 485.339 471.081 486.197 471.081C487.056 469.794 487.056 469.364 487.056 469.364L530.837 468.935ZM535.129 464.643H530.837H487.056H484.48L484.051 465.931C483.622 465.931 483.622 465.931 483.193 465.931C476.754 465.931 471.604 470.652 471.174 477.09C469.028 477.949 466.882 479.666 465.594 481.383C462.161 482.241 459.156 484.387 457.439 487.392C454.435 487.821 451.859 489.109 449.713 491.255C446.708 491.255 443.704 492.972 441.558 495.118C440.699 495.118 439.841 494.689 439.412 494.689C435.978 494.689 432.973 495.976 430.398 498.552C429.11 498.981 428.252 498.981 426.964 498.981C424.818 498.981 422.672 499.41 420.526 500.698C418.809 499.839 417.092 499.41 415.375 499.41C413.229 499.41 411.512 499.839 409.795 500.698C408.078 499.839 406.361 499.41 404.215 499.41C402.927 499.41 401.64 499.41 400.352 499.839C398.635 498.981 396.918 498.552 395.201 498.552C394.772 498.552 393.914 498.552 393.484 498.552C391.338 496.406 388.334 494.689 384.9 494.689C384.471 494.689 383.612 494.689 383.183 494.689C381.037 491.684 377.603 489.538 373.74 489.538C372.452 486.104 369.877 483.529 366.443 482.241C365.155 478.378 362.151 475.374 357.859 474.515C356.571 469.364 352.279 465.931 346.699 465.501C345.84 465.072 344.982 464.643 344.123 464.643V464.214H341.119H312.79H308.498V468.506V635.046V719.603V804.161V808.453H312.79H514.955H519.248V804.161V723.896H530.408H534.7V719.603V468.935V464.643H535.129Z" fill="#939393"/>
<path d="M812.839 748.361C808.976 799.01 576.335 847.512 509.805 860.389C498.645 862.535 492.206 863.823 492.206 863.823C511.092 495.117 487.056 468.505 487.056 468.505C493.065 467.218 499.074 466.359 505.083 465.501C613.677 451.336 635.568 510.999 702.098 574.524C772.062 641.054 817.131 689.128 812.839 748.361Z" fill="#B13C25" stroke="#682321" stroke-width="8.58453" stroke-miterlimit="10"/>
<g opacity="0.2">
<path d="M593.074 669.383C591.787 650.926 591.787 632.899 593.504 614.442C594.362 605.428 595.221 595.985 598.225 586.542C599.513 581.821 601.23 577.099 605.522 572.378C606.81 571.09 608.097 570.232 609.814 569.373L612.819 568.086C614.536 567.227 616.682 566.369 618.399 565.081C626.125 560.789 632.563 555.209 641.148 550.058C643.294 548.77 645.869 547.483 649.303 547.053C650.162 547.053 651.449 547.053 652.308 547.053C652.737 547.053 653.595 547.483 654.025 547.483L654.883 547.912C654.883 547.912 655.741 548.341 656.171 548.77C658.746 550.058 659.175 553.063 659.604 554.35C659.604 555.209 659.604 555.638 659.604 556.496C659.604 556.926 659.605 557.784 659.175 557.784C658.317 561.218 657.029 563.364 655.741 565.51C654.454 567.656 653.166 569.802 651.878 571.519C641.148 586.972 629.988 601.136 615.823 613.584C621.833 595.556 633.851 581.392 642.865 565.939C644.152 564.223 645.011 562.076 645.869 560.36C646.728 558.643 647.586 556.496 648.015 555.638C648.015 555.638 648.015 555.638 648.015 556.067C648.015 556.496 648.015 556.496 648.445 557.355C648.874 557.784 649.303 558.643 649.732 559.072C650.162 559.501 650.591 559.501 650.161 559.501C650.161 559.501 650.162 559.501 650.591 559.501C650.591 559.501 650.591 559.501 650.161 559.501C649.303 559.501 647.586 560.359 645.869 561.218C638.572 565.081 630.846 571.09 622.262 575.382C620.116 576.67 617.97 577.529 615.394 578.387L613.677 578.816L612.819 579.245C612.39 579.245 612.39 579.675 612.39 579.675C611.96 579.675 611.531 580.104 611.102 580.533C608.956 582.679 606.81 586.542 605.522 590.405C602.517 598.561 600.8 607.574 599.084 616.159C597.367 625.173 596.508 634.186 595.22 643.2C594.791 651.356 593.933 660.369 593.074 669.383Z" fill="#682321"/>
<path d="M610.673 633.758C624.838 635.045 639.431 635.904 653.596 636.762C660.893 637.191 667.76 637.191 675.057 637.191C678.491 637.191 681.925 637.191 685.358 636.762C687.075 636.762 688.792 636.333 690.509 636.333C691.368 636.333 691.797 635.904 692.655 635.904C693.085 635.904 693.085 635.904 693.085 635.904C693.085 635.904 692.655 635.904 692.655 636.333L692.226 636.762C692.226 637.191 691.797 637.621 691.797 638.05L698.235 642.342C692.226 645.776 686.217 648.351 679.779 651.356C673.34 653.931 667.331 656.507 660.893 658.653C654.454 660.799 648.016 662.516 641.148 663.803C634.71 665.091 627.413 665.52 620.975 663.374C627.413 664.662 634.281 663.374 640.719 661.657C647.157 659.94 653.167 657.365 659.176 654.36C671.194 648.781 682.783 641.913 693.943 634.616L702.098 629.036L700.381 638.908C700.381 639.338 699.952 640.196 699.952 640.625C699.523 641.054 699.523 641.484 699.094 641.913C698.665 642.342 697.806 642.771 697.377 643.201C696.518 643.63 695.66 643.63 695.231 644.059C693.943 644.488 693.085 644.488 691.797 644.488C689.651 644.488 687.934 644.488 686.217 644.488C682.354 644.488 678.92 644.059 675.057 643.63C667.76 642.771 660.893 641.913 653.596 640.625C638.573 639.338 624.408 636.762 610.673 633.758Z" fill="#682321"/>
<path d="M626.554 686.123C633.422 689.986 640.719 691.702 648.016 693.419C655.312 694.707 662.609 695.565 669.906 695.995C677.203 696.424 684.929 696.424 692.226 696.424C696.089 696.424 699.952 696.424 703.815 696.424C707.678 696.424 711.541 696.424 715.404 696.424C711.97 698.141 708.107 699.429 704.244 700.716C700.381 701.575 696.518 702.862 692.655 703.721C684.929 705.438 676.774 705.867 669.048 705.438C660.892 705.009 653.166 703.721 645.44 700.287C637.714 697.712 630.417 692.99 626.554 686.123Z" fill="#682321"/>
<path d="M623.55 708.872C632.134 712.735 640.289 718.315 648.015 723.466C655.742 728.616 663.897 734.196 671.623 739.776C679.349 745.356 687.075 750.936 694.372 756.945L699.952 761.238C700.81 762.096 701.669 762.525 702.956 763.813L703.386 764.242C703.386 764.242 703.386 764.242 703.815 764.671L704.244 765.101C703.386 768.105 706.39 758.662 702.956 772.827C692.655 774.114 701.669 773.685 700.381 773.685C701.24 773.685 702.527 773.256 702.527 772.827C702.956 772.827 703.386 772.397 703.386 771.968C703.815 771.539 703.815 771.539 703.815 771.539L704.244 771.11V770.68C704.244 770.251 704.244 770.251 704.244 770.68L703.815 771.968C702.956 776.26 702.098 781.411 700.381 786.133C699.523 788.708 698.664 791.283 697.377 793.859C696.518 795.146 695.66 796.434 694.372 797.722C693.084 799.009 691.367 800.726 688.792 801.156C686.217 802.014 683.212 801.156 681.495 800.297C679.778 799.439 678.491 798.151 677.203 797.293C674.628 795.146 673.769 793 672.052 791.283C666.472 783.557 660.463 776.26 654.883 768.534C643.723 753.082 632.993 737.63 622.691 721.319C636.426 734.625 649.303 748.79 661.751 762.954C668.189 770.251 674.198 777.548 680.207 784.416C681.924 786.133 683.212 788.279 684.5 789.137C684.929 789.566 685.787 789.996 685.787 789.996C686.217 789.996 685.787 789.996 685.358 789.996C684.929 790.425 686.217 789.566 686.646 787.85C687.504 786.133 688.363 784.416 688.792 782.27C690.08 777.977 690.938 773.685 692.226 768.964L692.655 766.817C692.655 766.388 692.655 765.959 693.514 765.101L693.943 764.671C693.943 764.242 694.372 764.242 694.372 763.813C694.372 763.813 694.801 763.384 694.801 762.954C695.23 762.525 695.66 762.525 696.089 762.096C696.089 762.096 697.377 761.667 698.235 761.238C696.947 761.238 705.961 760.808 695.66 762.096C691.797 776.26 694.801 766.817 693.943 769.822C693.943 769.822 693.943 770.251 694.372 770.251L694.801 770.68L692.226 768.534L686.646 763.813C679.349 757.804 672.052 751.794 665.185 745.356C657.888 739.347 651.02 732.909 643.723 726.47L632.993 717.027L627.842 712.306C626.983 712.306 625.696 710.16 623.55 708.872Z" fill="#682321"/>
<path d="M582.773 679.255C582.773 689.557 580.627 699.429 578.052 708.872C575.047 718.315 572.042 727.758 568.179 737.201C564.746 746.644 560.453 755.657 555.732 764.671C551.01 773.256 545.43 782.27 537.704 788.708C543.284 780.553 547.147 771.539 551.01 762.525C554.444 753.511 557.878 744.068 560.883 734.625C563.887 725.182 566.462 715.739 569.467 706.296C572.472 696.853 575.476 687.41 580.198 678.826L582.773 679.255Z" fill="#682321"/>
<path d="M559.595 818.754C559.166 816.608 559.595 814.462 559.595 812.316C559.595 810.17 560.024 808.024 560.453 805.877C560.882 801.585 561.741 797.293 562.599 793.001C564.316 784.416 566.033 775.832 567.75 767.247C569.467 758.663 571.184 750.507 573.33 741.923C575.476 733.338 577.622 725.183 579.768 717.028H583.631C584.919 726.041 584.061 735.055 582.773 743.64C581.485 752.224 578.91 760.809 576.764 769.393C574.189 777.978 571.613 786.133 568.609 794.288C566.892 798.581 565.604 802.444 563.887 806.736C562.17 810.599 560.453 814.462 559.595 818.754Z" fill="#682321"/>
<path d="M590.928 686.123C591.358 691.273 591.358 695.995 591.787 701.145C591.787 703.721 592.216 705.867 592.216 708.442C592.216 709.73 592.645 710.588 592.645 711.876C592.645 712.735 593.075 714.022 593.504 714.451C593.504 714.451 593.504 714.452 593.504 714.022C593.504 713.593 593.075 713.164 591.787 712.735C591.358 712.735 590.928 712.305 590.499 712.735C590.07 712.735 590.07 712.735 589.641 712.735C589.212 712.735 589.212 712.735 589.212 712.735C589.212 712.735 589.641 711.876 590.07 711.018C590.928 709.301 591.358 706.725 592.216 704.579L593.504 701.145C593.933 700.287 593.933 699.858 594.362 698.999C594.791 698.57 594.791 698.57 595.221 697.712C595.65 697.282 595.65 697.282 596.079 696.853C596.508 696.424 597.367 695.995 597.796 695.995C598.655 695.995 599.084 695.565 600.371 695.995C601.659 695.995 602.518 696.853 603.376 697.282C603.805 697.712 603.805 697.712 604.234 698.141C604.664 698.57 605.093 699.429 605.093 699.429C605.093 699.858 605.522 700.716 605.522 700.716C605.951 702.862 605.951 703.721 605.951 705.438V709.301L604.234 768.105C604.234 777.977 603.805 787.849 603.805 797.292C603.805 799.868 603.805 802.014 604.234 804.16C604.234 805.448 604.235 806.306 604.664 807.164C604.664 807.594 604.664 808.023 604.664 807.594C604.664 807.594 604.664 807.164 604.234 807.164C604.234 807.164 603.376 806.306 602.947 805.877C602.518 805.447 601.23 805.018 600.371 805.018C599.513 805.018 598.655 805.018 597.796 805.447C596.938 805.877 596.938 805.877 596.508 806.306C596.079 806.306 596.079 806.735 595.65 806.735L595.221 807.164V806.735L595.65 806.306C595.65 805.877 596.079 805.877 596.079 805.018C596.508 804.16 596.938 802.872 597.367 802.014C598.225 799.868 599.084 797.721 599.513 795.146C605.093 776.689 609.385 757.374 613.677 738.488L617.541 717.456L621.833 738.059L632.993 789.566L624.408 790.425L628.7 755.228L632.993 790.425L637.714 829.913L624.408 791.283L613.248 739.776H621.833C620.545 749.648 618.828 759.091 616.682 768.963C614.965 778.835 612.819 788.278 610.244 798.151C609.385 800.726 608.956 802.872 608.097 805.447C607.668 806.735 607.239 808.023 606.81 809.311C606.81 809.74 605.951 810.598 605.951 811.457L605.522 812.744L605.093 813.174C604.664 813.603 604.664 814.032 604.234 814.461C603.805 814.89 603.376 814.89 603.376 815.32C602.947 815.749 602.947 815.749 601.659 816.178C600.801 816.607 599.942 816.607 598.655 816.607C597.796 816.607 596.508 816.178 595.65 815.749C594.791 815.32 593.933 814.032 593.504 813.603C593.075 813.174 593.075 812.744 592.645 812.315C592.216 811.027 592.216 810.169 591.787 809.311C591.358 807.594 591.358 806.306 591.358 805.018C590.928 802.443 590.928 799.868 590.928 797.292C590.499 787.42 590.928 777.548 591.358 767.676C591.787 747.931 593.504 728.187 594.362 708.872V705.438V702.862V703.292C594.362 703.292 594.362 703.721 594.792 704.15C594.792 704.579 595.221 704.579 595.221 705.008C595.65 705.438 596.938 706.296 597.796 706.296C599.084 706.296 599.513 706.296 599.942 706.296C600.371 706.296 601.23 705.867 601.659 705.438C602.088 705.009 602.088 705.008 602.088 705.008C602.518 704.579 602.088 704.579 602.518 704.579C602.518 704.579 602.088 705.009 602.088 705.438L600.801 708.872C599.942 711.018 598.655 713.593 597.367 716.168C596.508 717.456 596.079 718.744 593.933 720.461C593.504 720.89 592.645 721.319 592.216 721.748C591.787 721.748 591.358 722.178 590.499 722.178C589.641 722.178 588.782 722.178 587.924 722.178C586.207 721.748 585.349 720.461 584.919 719.602C584.919 719.173 584.49 718.744 584.49 718.744L584.061 717.885C583.632 715.739 583.632 714.451 583.632 713.164C583.632 711.876 583.632 710.588 584.061 709.301C584.49 706.725 584.919 704.15 585.349 702.004C587.495 695.566 588.782 690.844 590.928 686.123Z" fill="#682321"/>
</g>
<path d="M509.805 860.389C498.645 862.535 492.206 863.823 492.206 863.823C511.092 495.117 487.056 468.505 487.056 468.505C493.065 467.217 499.074 466.359 505.083 465.5C507.229 465.93 544.572 475.373 509.805 860.389Z" fill="#99342D"/>
<path d="M812.839 748.361C808.976 799.01 576.335 847.512 509.805 860.389C498.645 862.535 492.206 863.823 492.206 863.823C511.092 495.117 487.056 468.505 487.056 468.505C493.065 467.218 499.074 466.359 505.083 465.501C613.677 451.336 635.568 510.999 702.098 574.524C772.062 641.054 817.131 689.128 812.839 748.361Z" stroke="#682321" stroke-width="8.58453" stroke-miterlimit="10"/>
<path opacity="0.4" d="M635.139 708.872C610.244 704.58 576.335 704.58 576.335 704.58C576.335 704.58 606.381 731.621 621.833 745.356C637.714 759.092 636.856 815.32 636.856 815.32C636.856 815.32 624.837 801.156 608.956 782.699C607.668 781.412 606.38 779.695 605.093 778.407C595.65 767.676 585.348 756.087 575.476 745.356C575.047 744.927 574.618 744.498 574.189 744.069C567.75 737.201 561.741 731.192 556.161 725.612C554.873 724.324 554.015 723.466 553.156 722.178C529.549 693.849 570.755 660.37 573.33 630.753C574.618 616.159 569.038 597.703 563.029 582.68C562.599 581.821 562.599 581.392 562.17 580.534C555.732 564.652 548.864 552.634 548.864 552.634L579.768 568.515C579.768 568.515 625.266 599.849 626.125 624.744C626.983 650.068 659.605 685.265 679.778 695.995C700.381 707.585 660.034 713.164 635.139 708.872Z" fill="#682321"/>
<path opacity="0.2" d="M604.235 699C584.49 695.137 558.737 695.137 558.737 695.137C558.737 695.137 581.915 717.886 594.362 729.475C602.947 737.631 605.093 763.384 605.951 778.407V778.837C596.938 768.106 586.207 756.517 576.335 745.357C575.906 744.928 575.476 744.498 575.047 744.069C567.75 735.914 560.453 728.617 554.015 722.608C530.408 694.279 571.613 660.799 574.189 631.183C575.476 616.589 569.896 598.132 563.887 583.109C563.458 582.251 563.458 581.822 563.029 580.963C569.896 586.543 596.938 608.863 597.796 627.749C598.225 649.21 623.979 679.256 639.86 688.27C654.883 697.713 623.55 702.863 604.235 699Z" fill="#682321"/>
<path d="M16.6236 748.361C20.4867 799.01 253.127 847.512 319.657 860.389C330.817 862.535 337.256 863.823 337.256 863.823C318.37 495.117 342.407 468.505 342.407 468.505C336.397 467.218 330.388 466.359 324.379 465.501C215.785 451.336 193.894 510.999 127.364 574.524C57.4001 641.054 11.9021 689.128 16.6236 748.361Z" fill="#B13C25" stroke="#682321" stroke-width="8.58453" stroke-miterlimit="10"/>
<g opacity="0.2">
<path d="M236.387 669.383C235.529 660.37 234.671 651.356 233.383 642.342C232.095 633.328 231.237 624.315 229.52 615.301C227.803 606.287 226.086 597.702 223.081 589.547C221.794 585.684 219.648 581.821 217.502 579.675C217.072 579.246 216.643 578.817 216.214 578.817C216.214 578.817 215.785 578.817 215.785 578.387L214.926 577.958L213.209 577.529C211.063 576.67 208.488 575.812 206.342 574.524C197.757 570.232 190.031 564.652 182.734 560.36C181.017 559.501 179.3 558.643 178.442 558.643C178.442 558.643 178.442 558.643 178.013 558.643C178.013 558.643 178.013 558.643 178.442 558.643C178.442 558.643 178.871 558.643 178.871 558.214C179.73 557.784 180.159 557.355 180.159 556.497C180.588 555.638 180.588 555.638 180.588 555.209C180.588 554.78 180.588 555.209 180.588 554.78C181.017 555.638 181.876 557.784 182.734 559.501C183.593 561.218 184.88 563.364 185.739 565.081C194.323 580.533 206.342 594.698 212.78 612.725C199.045 600.278 187.456 586.113 176.725 570.661C175.437 568.515 174.15 566.798 172.862 564.652C171.574 562.506 170.287 560.36 169.428 556.926C169.428 556.497 169.428 556.068 168.999 555.638C168.999 555.209 168.999 554.78 168.999 553.492C168.999 552.204 169.857 549.2 172.433 547.912C172.862 547.483 173.72 547.054 173.72 547.054L174.579 546.625C175.008 546.625 175.867 546.195 176.296 546.195C177.583 546.195 178.442 546.195 179.3 546.195C182.734 547.054 185.31 548.341 187.456 549.2C196.04 554.351 202.908 559.931 210.205 564.223C211.922 565.51 214.068 566.369 215.785 567.227L218.789 568.515C220.506 569.374 221.794 570.232 223.081 571.52C227.374 576.241 228.661 580.963 230.378 585.684C232.954 595.127 234.241 604.141 235.1 613.584C237.675 632.899 237.675 651.356 236.387 669.383Z" fill="#682321"/>
<path d="M218.789 633.757C204.625 636.332 190.46 638.908 176.296 641.054C168.999 641.912 162.131 643.2 154.834 644.059C151.401 644.488 147.538 644.917 143.675 644.917C141.958 644.917 139.812 644.917 138.095 644.917C137.236 644.917 135.949 644.917 134.661 644.488C134.232 644.488 133.373 644.059 132.515 643.629C132.085 643.629 131.656 643.2 130.798 642.342C130.369 641.912 130.369 641.483 129.939 641.054C129.51 640.625 129.51 639.766 129.51 639.337L127.793 629.465L135.949 635.045C146.679 642.342 158.698 649.209 170.716 654.789C176.725 657.794 182.734 659.94 189.173 662.086C195.611 663.803 202.049 665.091 208.917 663.803C202.479 665.949 195.182 665.52 188.743 664.232C181.876 662.944 175.437 661.228 168.999 659.081C162.561 656.935 156.122 654.36 150.113 651.785C143.675 649.209 137.665 646.205 131.656 642.771L138.095 638.479C138.095 638.049 138.095 637.62 137.665 637.191C137.665 636.762 137.236 636.762 137.236 636.762L136.807 636.332C136.807 636.332 136.807 636.332 137.236 636.332C137.665 636.332 138.524 636.762 139.382 636.762C141.099 637.191 142.816 637.191 144.533 637.191C147.967 637.62 151.401 637.62 154.834 637.62C162.131 637.62 168.999 637.191 176.296 637.191C190.46 636.332 204.625 635.045 218.789 633.757Z" fill="#682321"/>
<path d="M202.908 686.124C198.616 692.991 191.319 697.713 184.022 700.717C176.296 703.722 168.57 705.439 160.414 705.868C152.259 706.297 144.533 705.439 136.807 704.151C132.944 703.293 129.081 702.434 125.218 701.146C121.355 699.859 117.921 698.571 114.058 696.854C117.921 696.425 121.784 696.854 125.647 696.854C129.51 696.854 133.373 696.854 137.236 696.854C144.962 696.854 152.259 696.854 159.556 696.425C166.853 695.996 174.15 695.137 181.447 693.85C188.743 691.703 196.04 689.557 202.908 686.124Z" fill="#682321"/>
<path d="M205.912 708.872C203.766 710.16 202.479 711.876 200.333 713.593L195.182 718.315L184.451 727.758C177.154 734.196 170.287 740.205 162.99 746.644C155.693 753.082 148.396 759.091 141.529 765.101L135.949 769.822L133.373 771.968L133.802 771.539L134.232 771.11C133.373 768.105 136.378 777.548 132.515 763.384C122.213 762.096 131.227 762.525 129.939 762.525C131.227 762.525 132.086 762.954 132.086 763.384C132.515 763.813 132.944 763.813 133.373 764.242C133.802 764.671 133.802 764.671 133.802 765.101C133.802 765.53 134.232 765.53 134.232 765.959L134.661 766.388C135.09 767.247 135.09 767.676 135.519 768.105L135.949 770.251C137.236 774.973 138.095 779.265 139.382 783.557C139.812 785.703 140.67 787.42 141.529 789.137C142.387 790.854 143.675 791.713 142.816 791.283C142.387 791.283 142.387 791.283 142.387 791.283C142.816 791.283 143.245 790.854 143.675 790.425C144.962 789.566 146.25 787.42 147.967 785.703C153.976 778.407 159.985 771.11 166.424 764.242C178.871 750.078 191.748 735.913 205.483 722.607C195.611 738.918 184.451 754.37 173.291 769.822C167.711 777.548 162.131 785.274 156.122 792.571C154.835 794.288 153.547 796.434 150.972 798.58C149.684 799.439 148.396 800.726 146.679 801.585C144.962 802.443 141.958 803.302 139.382 802.443C136.807 801.585 135.09 800.297 133.802 799.009C132.515 797.722 131.656 796.434 130.798 795.146C129.51 792.571 128.652 789.996 127.793 787.42C126.076 782.699 125.218 777.548 124.359 773.256L123.93 771.968V772.397L124.359 772.827C124.359 772.827 124.359 773.256 124.789 773.256C125.218 773.685 125.647 773.685 125.647 774.114C125.647 774.114 126.935 774.544 127.793 774.973C126.506 774.973 135.519 775.402 125.218 774.114C121.355 759.95 124.359 769.393 123.93 766.388L124.359 765.959C124.789 765.53 124.789 765.53 124.789 765.53L125.218 765.101C126.506 764.242 127.364 763.384 128.223 762.525L133.802 758.233C141.529 752.653 148.825 746.644 156.551 741.064C164.278 735.484 172.004 730.333 180.159 724.753C189.173 718.315 196.899 713.164 205.912 708.872Z" fill="#682321"/>
<path d="M249.264 678.397C253.986 687.411 257.42 696.854 259.995 705.868C262.57 715.311 265.575 724.754 268.58 734.197C271.584 743.64 274.589 752.653 278.452 762.096C281.886 771.11 285.749 780.124 291.758 788.279C284.032 781.841 278.452 772.827 273.73 764.243C269.009 755.229 264.716 746.215 261.283 736.772C257.42 727.329 254.415 717.886 251.41 708.443C248.835 699 246.689 689.128 246.689 678.826L249.264 678.397Z" fill="#682321"/>
<path d="M269.867 818.754C269.009 814.462 266.862 810.599 265.575 806.307C263.858 802.443 262.57 798.151 260.853 793.859C257.849 785.704 255.273 777.119 252.698 768.964C250.552 760.379 247.976 752.224 246.689 743.21C245.401 734.626 244.543 725.612 245.83 716.598H249.693C251.84 724.753 253.986 733.338 256.132 741.493C258.278 749.649 259.995 758.233 261.712 766.818C263.429 775.402 265.146 783.987 266.862 792.571C267.721 796.863 268.579 801.156 269.009 805.448C269.438 807.594 269.438 809.74 269.867 811.886C269.867 814.033 270.296 816.179 269.867 818.754Z" fill="#682321"/>
<path d="M238.534 686.124C240.25 690.845 241.538 695.566 242.826 700.717C243.255 703.293 243.684 705.439 244.114 708.014C244.114 709.302 244.543 710.589 244.543 711.877C244.543 713.165 244.543 714.452 244.114 716.599L243.684 717.457C243.684 717.886 243.255 718.316 243.255 718.316C242.826 719.174 241.967 720.032 240.25 720.891C239.392 721.32 238.534 721.32 237.675 720.891C236.817 720.891 236.817 720.462 235.958 720.462C235.1 720.032 234.671 719.603 234.241 719.174C232.524 717.457 231.666 716.169 230.807 714.882C229.52 712.306 228.232 710.16 227.374 707.585L226.086 704.151C226.086 703.722 225.657 703.293 225.657 703.293C225.657 703.293 225.657 703.293 226.086 703.722C226.086 704.151 226.515 704.151 226.515 704.151C226.944 704.58 227.374 705.009 228.232 705.009C228.661 705.009 229.091 705.439 230.378 705.009C231.237 705.009 232.524 704.151 232.954 703.722C233.383 703.293 233.383 703.293 233.383 702.863C233.812 702.434 233.812 701.576 233.812 702.005V701.576V704.151V707.585C234.671 726.9 236.387 746.644 236.817 766.389C237.246 776.261 237.246 786.133 237.246 796.005C237.246 798.581 237.246 801.156 236.817 803.732C236.817 805.019 236.387 806.307 236.387 808.024C236.387 808.882 235.958 809.741 235.529 811.028C235.529 811.458 235.1 811.887 234.671 812.316C234.671 812.745 233.812 813.604 232.524 814.462C231.666 814.891 230.808 815.321 229.52 815.321C228.661 815.321 227.803 815.321 226.515 814.891C225.228 814.462 225.228 814.462 224.798 814.033C224.369 813.604 223.94 813.604 223.94 813.175C223.511 812.745 223.511 812.316 223.081 811.887L222.652 811.458L222.223 810.17C221.794 809.311 221.365 808.453 221.365 808.024C220.935 806.736 220.506 805.448 220.077 804.161C219.218 801.585 218.36 799.439 217.931 796.864C215.355 786.992 213.209 777.549 211.492 767.677C209.775 757.804 207.629 748.361 206.342 738.489H214.926L203.766 789.996L190.46 828.627L195.182 789.138L199.474 753.941L203.766 789.138L195.182 788.279L206.342 736.772L210.634 716.169L214.497 737.201C218.789 756.087 223.511 775.403 228.661 793.859C229.52 796.005 229.949 798.152 230.807 800.727C231.237 801.585 231.666 802.873 232.095 803.732C232.095 804.161 232.524 804.59 232.524 805.019L232.954 805.448V805.878C232.954 805.878 232.954 805.448 232.524 805.448C232.524 805.448 232.095 805.019 231.666 805.019C231.237 805.019 231.237 804.59 230.378 804.161C229.52 803.732 228.661 803.732 227.803 803.732C226.944 803.732 226.086 804.161 225.228 804.59C224.369 805.019 223.94 805.878 223.94 805.878C223.94 806.307 223.511 806.307 223.511 806.307C223.511 806.736 223.511 805.878 223.511 805.878C223.511 805.019 223.94 803.732 223.94 802.873C223.94 800.727 224.369 798.152 224.369 796.005C224.369 786.562 224.369 776.69 223.94 766.818L222.223 708.014V704.151C222.223 702.863 222.223 701.576 222.652 699.43C222.652 699.43 222.652 698.571 223.081 698.142C223.081 698.142 223.511 697.283 223.94 696.854C224.369 696.425 224.369 696.425 224.798 695.996C225.657 695.137 226.515 694.708 227.803 694.708C229.091 694.708 229.52 694.708 230.378 694.708C231.237 694.708 231.666 695.137 232.095 695.567C232.524 695.996 232.954 695.996 232.954 696.425C233.383 696.854 233.383 697.283 233.812 697.713C234.241 698.571 234.671 699.43 234.671 699.859L235.958 703.293C236.817 705.439 237.675 707.585 238.104 709.731C238.534 710.589 238.963 711.448 238.963 711.448C238.963 711.448 238.963 711.448 238.534 711.448C238.534 711.448 238.104 711.448 237.675 711.448C237.246 711.448 236.817 711.448 236.387 711.448C235.1 711.877 234.671 712.306 234.671 712.736C234.671 712.736 234.671 712.736 234.671 713.165C235.1 712.736 235.1 711.877 235.529 710.589C235.529 709.302 235.958 708.443 235.958 707.156C235.958 705.009 236.387 702.434 236.387 699.859C238.104 695.996 238.104 690.845 238.534 686.124Z" fill="#682321"/>
</g>
<path d="M319.657 860.389C330.817 862.535 337.256 863.823 337.256 863.823C318.37 495.117 342.407 468.505 342.407 468.505C336.397 467.217 330.388 466.359 324.379 465.5C321.804 465.93 284.461 474.943 319.657 860.389Z" fill="#99342D"/>
<path d="M16.6236 748.361C20.4867 799.01 253.127 847.512 319.657 860.389C330.817 862.535 337.256 863.823 337.256 863.823C318.37 495.117 342.407 468.505 342.407 468.505C336.397 467.218 330.388 466.359 324.379 465.501C215.785 451.336 193.894 510.999 127.364 574.524C57.4001 641.054 11.9021 689.128 16.6236 748.361Z" stroke="#682321" stroke-width="8.58453" stroke-miterlimit="10"/>
<path opacity="0.4" d="M194.323 708.872C219.218 704.58 253.127 704.58 253.127 704.58C253.127 704.58 223.082 731.621 207.629 745.356C191.748 759.092 192.606 815.32 192.606 815.32C192.606 815.32 204.625 801.156 220.506 782.699C221.794 781.412 223.082 779.695 224.369 778.407C233.812 767.676 244.114 756.087 253.986 745.356C254.415 744.927 254.844 744.498 255.273 744.069C261.712 737.201 267.721 731.192 273.301 725.612C274.589 724.324 275.447 723.466 276.306 722.178C299.913 693.849 258.707 660.37 256.132 630.753C254.844 616.159 260.424 597.703 266.433 582.68C266.863 581.821 266.863 581.392 267.292 580.534C273.73 564.652 280.598 552.634 280.598 552.634L249.694 568.515C249.694 568.515 204.196 599.849 203.337 624.744C202.479 650.068 169.857 685.265 149.684 695.995C129.081 707.155 169.428 713.164 194.323 708.872Z" fill="#682321"/>
<path opacity="0.2" d="M225.228 699C244.972 695.137 270.726 695.137 270.726 695.137C270.726 695.137 247.548 717.886 235.1 729.475C226.515 737.631 224.369 763.384 223.511 778.407V778.837C232.525 768.106 243.255 756.517 253.128 745.357C253.557 744.928 253.986 744.498 254.415 744.069C261.712 735.914 269.009 728.617 275.447 722.608C299.055 694.279 257.849 660.799 255.274 631.183C253.986 616.589 259.566 598.132 265.575 583.109C266.004 582.251 266.004 581.822 266.434 580.963C259.566 586.543 232.525 608.863 231.666 627.749C231.237 649.21 205.483 679.256 189.602 688.27C174.15 697.713 205.913 702.863 225.228 699Z" fill="#682321"/>
<path d="M426.535 104.093C441.987 104.093 459.156 110.102 497.786 127.271C508.088 131.993 518.389 135.856 528.262 139.29C571.184 154.313 605.522 159.463 614.965 166.76C626.554 176.203 561.741 245.309 561.741 245.309C566.892 274.496 552.298 293.811 552.298 293.811C553.157 295.099 554.015 296.387 554.873 297.674C569.038 316.989 616.253 339.738 610.244 377.94C610.244 377.94 643.294 383.09 617.97 424.296C617.97 424.296 622.691 446.616 600.801 446.616C599.513 446.616 597.796 446.616 596.079 446.187C596.079 446.187 599.942 463.356 588.782 473.657C632.134 491.685 657.029 532.461 701.24 574.525C771.204 641.055 816.702 689.129 812.409 748.362C808.546 799.011 575.906 847.513 509.376 860.39C498.216 862.536 491.777 863.824 491.777 863.824C492.636 843.221 493.923 823.906 494.353 805.02H334.251C335.11 823.477 335.968 843.221 336.826 863.824C336.826 863.824 330.388 862.536 319.228 860.39C252.698 847.513 20.0574 799.011 16.1943 748.362C11.9021 689.129 56.9708 641.055 127.364 574.525C187.456 517.867 211.063 463.356 293.904 463.356C303.347 463.356 313.219 464.214 324.379 465.502C329.53 466.36 335.11 467.219 340.69 468.077V467.648C341.119 468.077 341.548 468.077 341.977 468.506C342.406 468.936 342.836 468.936 343.265 469.365C344.123 469.365 344.982 469.794 345.84 470.653H346.269C349.703 470.653 352.708 472.799 353.566 475.803C356.142 477.091 358.717 478.808 360.863 479.666V472.369C352.708 466.789 345.411 459.922 338.973 452.196C338.114 452.625 337.256 452.625 336.397 453.054C326.954 456.488 317.941 457.776 310.214 457.776C293.475 457.776 281.027 451.767 278.452 446.187C278.452 446.187 273.73 447.474 269.009 447.474C264.287 447.474 259.566 446.187 258.278 441.465C254.844 431.593 252.269 397.255 269.867 393.392C269.867 393.392 240.251 372.36 253.557 340.168C224.369 324.286 204.195 299.391 190.46 273.638C165.136 226.423 160.844 176.632 160.414 174.486C159.985 171.052 165.565 161.18 178.013 161.18C178.442 161.18 178.442 161.18 178.871 161.18C178.871 161.18 178.871 161.18 179.3 161.18C193.465 161.18 289.182 116.97 304.634 115.682C320.087 114.395 377.603 113.965 404.644 107.527C412.8 105.381 419.667 104.093 426.535 104.093ZM426.535 86.9241C417.521 86.9241 409.366 88.641 400.352 90.7871C381.466 95.5086 343.265 96.7963 320.516 97.6547C312.79 98.084 307.21 98.084 302.918 98.5132C293.904 98.9424 276.735 105.81 236.817 122.121C216.643 130.276 185.739 142.724 178.442 144.011C178.013 144.011 178.013 144.011 177.583 144.011C166.424 144.011 156.551 148.733 149.684 156.459C144.533 162.897 141.958 170.194 142.816 176.632V177.062C144.962 194.231 151.83 239.299 174.579 281.364C190.031 310.122 209.346 332.442 232.954 347.894C230.378 365.921 236.817 381.373 244.972 392.533C235.1 410.561 238.534 437.173 241.538 446.616C242.397 448.762 243.255 450.908 244.543 452.625C205.054 465.073 179.73 492.543 151.83 523.018C140.241 535.466 128.652 548.342 114.916 561.649C43.6648 629.037 -6.55468 682.261 -1.40396 749.22C0.312945 769.823 17.482 798.152 138.524 834.637C204.625 854.381 277.593 869.833 315.365 877.13C326.954 879.276 333.393 880.564 333.393 880.564L354.854 884.427L353.566 862.966C352.708 849.23 352.279 835.924 351.42 822.618H475.896C475.467 835.924 474.608 849.659 473.75 863.395L472.462 884.856L493.923 880.993C493.923 880.993 500.362 879.705 511.951 877.559C549.723 870.262 622.691 855.239 688.792 835.066C809.834 798.582 827.432 770.253 828.72 749.65C833.871 682.69 783.651 629.466 712.4 562.078C698.664 549.201 687.075 536.324 675.486 523.877C654.454 500.698 635.997 480.525 611.531 466.36C611.961 465.073 612.39 463.785 612.39 462.068C619.687 459.922 624.408 455.63 627.413 451.767C633.851 443.611 635.139 434.168 634.71 427.73C644.582 410.132 646.299 394.25 640.29 381.803C636.856 374.506 631.705 369.784 626.984 366.78C624.837 337.592 600.371 316.56 583.632 302.396C579.339 298.533 575.047 295.099 572.043 292.094C575.906 283.081 580.198 268.916 578.91 251.318C584.49 245.309 593.075 235.436 602.088 224.706C628.7 192.085 633.422 178.779 632.564 168.906C632.134 162.897 629.559 157.317 624.837 153.883C616.682 147.445 604.235 144.011 583.202 138.431C569.038 134.568 551.869 129.847 532.983 123.408C522.682 119.975 512.809 116.111 503.796 111.819C463.448 93.3625 445.421 86.9241 426.535 86.9241Z" fill="#682321"/>
</g>
<defs>
<linearGradient id="paint0_linear_813_800" x1="438.727" y1="401.684" x2="442.014" y2="194.559" gradientUnits="userSpaceOnUse">
<stop stop-color="#BB5A3B"/>
<stop offset="0.2251" stop-color="#A43F2B"/>
</linearGradient>
<linearGradient id="paint1_linear_813_800" x1="278.785" y1="435.814" x2="316.877" y2="435.814" gradientUnits="userSpaceOnUse">
<stop stop-color="#BB5A3B"/>
<stop offset="1" stop-color="#BB5A3B"/>
</linearGradient>
<linearGradient id="paint2_linear_813_800" x1="417.35" y1="553.249" x2="419.352" y2="513.21" gradientUnits="userSpaceOnUse">
<stop offset="0.3924" stop-color="#FAB180"/>
<stop offset="0.7025" stop-color="#ED8D5D"/>
</linearGradient>
<linearGradient id="paint3_linear_813_800" x1="406.345" y1="489.861" x2="407.806" y2="231.96" gradientUnits="userSpaceOnUse">
<stop offset="0.3924" stop-color="#FAB180"/>
<stop offset="0.7025" stop-color="#ED8D5D"/>
</linearGradient>
<linearGradient id="paint4_linear_813_800" x1="320.329" y1="386.302" x2="254.962" y2="370.283" gradientUnits="userSpaceOnUse">
<stop offset="0.4096" stop-color="#E75F5D" stop-opacity="0"/>
<stop offset="1" stop-color="#E75F5D"/>
</linearGradient>
<linearGradient id="paint5_linear_813_800" x1="496.161" y1="381.787" x2="562.042" y2="355.615" gradientUnits="userSpaceOnUse">
<stop offset="0.4096" stop-color="#E75F5D" stop-opacity="0"/>
<stop offset="1" stop-color="#E75F5D"/>
</linearGradient>
<linearGradient id="paint6_linear_813_800" x1="441.252" y1="376.641" x2="499.883" y2="376.641" gradientUnits="userSpaceOnUse">
<stop stop-color="#DEDED0"/>
<stop offset="0.2251" stop-color="#DEDED0"/>
</linearGradient>
<linearGradient id="paint7_linear_813_800" x1="320.978" y1="380.698" x2="384.266" y2="380.698" gradientUnits="userSpaceOnUse">
<stop stop-color="#DEDED0"/>
<stop offset="0.2251" stop-color="#DEDED0"/>
</linearGradient>
<linearGradient id="paint8_linear_813_800" x1="285.405" y1="279.571" x2="523.891" y2="279.571" gradientUnits="userSpaceOnUse">
<stop stop-color="#BB5A3B"/>
<stop offset="0.2251" stop-color="#A43F2B"/>
</linearGradient>
<linearGradient id="paint9_linear_813_800" x1="190.311" y1="262.024" x2="298.65" y2="262.024" gradientUnits="userSpaceOnUse">
<stop stop-color="#EA7425" stop-opacity="0"/>
<stop offset="1" stop-color="#EA7425"/>
</linearGradient>
<linearGradient id="paint10_linear_813_800" x1="483.215" y1="231.703" x2="563.103" y2="231.703" gradientUnits="userSpaceOnUse">
<stop stop-color="#EA7425" stop-opacity="0"/>
<stop offset="1" stop-color="#EA7425"/>
</linearGradient>
<linearGradient id="paint11_linear_813_800" x1="473.122" y1="192.102" x2="616.615" y2="192.102" gradientUnits="userSpaceOnUse">
<stop stop-color="#EA7425" stop-opacity="0"/>
<stop offset="1" stop-color="#EA7425"/>
</linearGradient>
<linearGradient id="paint12_linear_813_800" x1="419.682" y1="495.167" x2="424.796" y2="717.268" gradientUnits="userSpaceOnUse">
<stop offset="0.2872" stop-color="#DEDED0"/>
<stop offset="0.7305" stop-color="#CCCCCB"/>
</linearGradient>
<linearGradient id="paint13_linear_813_800" x1="415.12" y1="637.062" x2="413.291" y2="824.015" gradientUnits="userSpaceOnUse">
<stop stop-color="#CCCCCB"/>
<stop offset="0.348" stop-color="#DEDED0"/>
</linearGradient>
</defs>
</svg>
