<svg width="827" height="785" viewBox="0 0 827 785" fill="none" xmlns="http://www.w3.org/2000/svg">
<mask id="mask0_817_1777" style="mask-type:alpha" maskUnits="userSpaceOnUse" x="0" y="0" width="827" height="785">
<rect x="0.977783" y="0.791992" width="825.369" height="784.208" rx="25" fill="#F38534"/>
</mask>
<g mask="url(#mask0_817_1777)">
<rect x="-8.22461" y="-17.2778" width="879.952" height="877.486" fill="#F38534"/>
<g style="mix-blend-mode:soft-light">
<mask id="path-3-outside-1_817_1777" maskUnits="userSpaceOnUse" x="35.6321" y="32.8342" width="757" height="746" fill="black">
<rect fill="white" x="35.6321" y="32.8342" width="757" height="746"/>
<path d="M204.443 42.8342V67.587H201.171C192.844 67.587 186.004 72.81 186.004 79.1685V172.729C186.004 204.522 156.264 223.597 119.387 223.597H60.7994V111.869H45.6321V87.1166H60.7994V67.587H45.6321V42.8342H98.8664V198.845H119.387C135.149 198.845 147.937 189.08 147.937 177.044V83.4832C147.937 57.1409 171.729 42.8342 201.171 42.8342H204.443Z"/>
<path d="M276.413 98.244V173.638C276.413 185.673 289.201 195.438 304.963 195.438H309.424C316.859 195.438 323.997 193.167 329.35 189.307L340.651 180.905C358.198 167.733 372.77 163.646 396.265 163.646V192.713C382.882 192.713 377.826 194.076 367.417 201.797L356.116 210.199C343.625 219.51 326.971 224.733 309.424 224.733H304.963C268.383 224.733 238.346 207.701 238.346 173.865V42.8342H276.413V53.0532C276.413 65.089 289.201 74.8538 304.963 74.8538H309.424C316.859 74.8538 323.997 72.5829 329.35 68.7224L340.651 60.3201C358.198 46.9218 372.77 42.8342 396.265 42.8342V71.9017C382.882 71.9017 377.826 73.2642 367.417 80.9852L356.116 89.3875C343.625 98.6982 326.971 103.921 309.424 103.921H304.963C294.852 103.921 285.038 101.423 276.413 98.244ZM344.22 248.35L330.837 258.569L344.22 268.788L330.837 279.007L317.454 268.788L304.071 279.007L290.688 268.788L304.071 258.569L290.688 248.35L304.071 238.131L317.454 248.35L330.837 238.131L344.22 248.35Z"/>
<path d="M588.681 98.6982V127.766H557.157C541.99 127.766 534.852 132.989 522.659 143.208C509.573 154.108 493.216 167.733 461.097 167.733H429.871V138.666H461.097C475.67 138.666 482.51 133.443 494.406 123.451C506.897 113.005 524.146 98.6982 556.86 98.6982H588.681ZM490.242 69.6308C490.242 61.6826 498.867 55.0971 509.276 55.0971C519.685 55.0971 528.309 61.6826 528.309 69.6308C528.309 77.5789 519.685 84.1645 509.276 84.1645C498.867 84.1645 490.242 77.806 490.242 69.6308Z"/>
<path d="M749.871 42.8342H781.693V71.9017H749.871C737.083 71.9017 729.945 75.5351 721.023 82.802V159.104C729.053 156.379 738.57 154.562 749.871 154.562H781.693V183.63H749.871C734.704 183.63 727.566 188.853 715.373 199.072C702.287 209.972 685.93 223.597 653.811 223.597H622.585V194.53H653.811C666.6 194.53 673.44 190.669 682.659 183.175V107.328C674.629 110.053 665.113 111.869 653.811 111.869H622.585V82.802H653.811C668.384 82.802 675.224 77.5789 687.12 67.587C699.908 57.1409 717.157 42.8342 749.871 42.8342Z"/>
<path d="M204.443 286.274V311.027H201.171C192.844 311.027 186.004 316.25 186.004 322.608V416.169C186.004 447.962 156.264 467.037 119.387 467.037H60.7994V355.309H45.6321V330.556H60.7994V311.027H45.6321V286.274H98.8664V442.511H119.387C135.149 442.511 147.937 432.747 147.937 420.711V327.15C147.937 300.808 171.729 286.501 201.171 286.501H204.443V286.274Z"/>
<path d="M276.413 341.684V417.077C276.413 429.113 289.201 438.878 304.963 438.878H309.424C316.859 438.878 323.997 436.607 329.35 432.747L340.651 424.344C358.198 411.173 372.77 407.086 396.265 407.086V436.153C382.882 436.153 377.826 437.515 367.417 445.237L356.116 453.639C343.625 462.949 326.971 468.173 309.424 468.173H304.963C268.383 468.173 238.346 451.141 238.346 417.305V286.728H276.413V296.947C276.413 308.983 289.201 318.748 304.963 318.748H309.424C316.859 318.748 323.997 316.477 329.35 312.616L340.651 304.214C358.198 291.043 372.77 286.955 396.265 286.955V315.341C382.882 315.341 377.826 316.704 367.417 324.425L356.116 332.827C343.625 342.138 326.971 347.361 309.424 347.361H304.963C294.852 347.361 285.038 344.863 276.413 341.684ZM344.22 492.017L330.837 502.236L344.22 512.455L330.837 522.674L317.454 512.455L304.071 522.674L290.688 512.455L304.071 502.236L290.688 492.017L304.071 481.798L317.454 492.017L330.837 481.798L344.22 492.017Z"/>
<path d="M588.681 342.365V371.432H557.157C541.99 371.432 534.852 376.656 522.659 386.875C509.573 397.775 493.216 411.4 461.097 411.4H429.871V382.333H461.097C475.67 382.333 482.51 377.11 494.406 367.118C506.897 356.672 524.146 342.365 556.86 342.365H588.681ZM490.242 313.298C490.242 305.349 498.867 298.764 509.276 298.764C519.685 298.764 528.309 305.349 528.309 313.298C528.309 321.246 519.685 327.831 509.276 327.831C498.867 327.831 490.242 321.246 490.242 313.298Z"/>
<path d="M749.871 286.274H781.693V315.341H749.871C737.083 315.341 729.945 318.975 721.023 326.242V402.544C729.053 399.819 738.57 398.002 749.871 398.002H781.693V427.069H749.871C734.704 427.069 727.566 432.292 715.373 442.511C702.287 453.412 685.93 467.037 653.811 467.037H622.585V437.97H653.811C666.6 437.97 673.44 434.109 682.659 426.615V350.767C674.629 353.492 665.113 355.309 653.811 355.309H622.585V326.242H653.811C668.384 326.242 675.224 321.019 687.12 311.027C699.908 300.808 717.157 286.274 749.871 286.274Z"/>
<path d="M204.443 529.941V554.694H201.171C192.844 554.694 186.004 559.917 186.004 566.275V659.836C186.004 691.628 156.264 710.704 119.387 710.704H60.7994V598.976H45.6321V574.223H60.7994V554.694H45.6321V529.941H98.8664V685.951H119.387C135.149 685.951 147.937 676.186 147.937 664.151V570.59C147.937 544.247 171.729 529.941 201.171 529.941H204.443Z"/>
<path d="M276.413 585.124V660.517C276.413 672.553 289.201 682.318 304.963 682.318H309.424C316.859 682.318 323.997 680.047 329.35 676.186L340.651 667.784C358.198 654.613 372.77 650.525 396.265 650.525V679.593C382.882 679.593 377.826 680.955 367.417 688.676L356.116 697.079C343.625 706.389 326.971 711.612 309.424 711.612H304.963C268.383 711.612 238.346 694.581 238.346 660.744V530.168H276.413V540.387C276.413 552.423 289.201 562.188 304.963 562.188H309.424C316.859 562.188 323.997 559.917 329.35 556.056L340.651 547.654C358.198 534.483 372.77 530.395 396.265 530.395V559.462C382.882 559.462 377.826 560.825 367.417 568.546L356.116 576.948C343.625 586.259 326.971 591.482 309.424 591.482H304.963C294.852 590.801 285.038 588.303 276.413 585.124ZM344.22 735.457L330.837 745.676L344.22 755.895L330.837 766.114L317.454 755.895L304.071 766.114L290.688 755.895L304.071 745.676L290.688 735.457L304.071 725.238L317.454 735.457L330.837 725.238L344.22 735.457Z"/>
<path d="M588.681 585.805V614.872H557.157C541.99 614.872 534.852 620.095 522.659 630.314C509.573 641.215 493.216 654.84 461.097 654.84H429.871V625.773H461.097C475.67 625.773 482.51 620.549 494.406 610.558C506.897 600.111 524.146 585.805 556.86 585.805H588.681ZM490.242 556.737C490.242 548.789 498.867 542.204 509.276 542.204C519.685 542.204 528.309 548.789 528.309 556.737C528.309 564.686 519.685 571.271 509.276 571.271C498.867 571.271 490.242 564.686 490.242 556.737Z"/>
<path d="M749.871 529.941H781.693V559.008H749.871C737.083 559.008 729.945 562.642 721.023 569.909V646.211C729.053 643.486 738.57 641.669 749.871 641.669H781.693V670.736H749.871C734.704 670.736 727.566 675.959 715.373 686.178C702.287 697.079 685.93 710.704 653.811 710.704H622.585V681.636H653.811C666.6 681.636 673.44 677.776 682.659 670.282V594.434C674.629 597.159 665.113 598.976 653.811 598.976H622.585V569.909H653.811C668.384 569.909 675.224 564.686 687.12 554.694C699.908 544.247 717.157 529.941 749.871 529.941Z"/>
</mask>
<path d="M204.443 42.8342V67.587H201.171C192.844 67.587 186.004 72.81 186.004 79.1685V172.729C186.004 204.522 156.264 223.597 119.387 223.597H60.7994V111.869H45.6321V87.1166H60.7994V67.587H45.6321V42.8342H98.8664V198.845H119.387C135.149 198.845 147.937 189.08 147.937 177.044V83.4832C147.937 57.1409 171.729 42.8342 201.171 42.8342H204.443Z" fill="#FFD5D3"/>
<path d="M276.413 98.244V173.638C276.413 185.673 289.201 195.438 304.963 195.438H309.424C316.859 195.438 323.997 193.167 329.35 189.307L340.651 180.905C358.198 167.733 372.77 163.646 396.265 163.646V192.713C382.882 192.713 377.826 194.076 367.417 201.797L356.116 210.199C343.625 219.51 326.971 224.733 309.424 224.733H304.963C268.383 224.733 238.346 207.701 238.346 173.865V42.8342H276.413V53.0532C276.413 65.089 289.201 74.8538 304.963 74.8538H309.424C316.859 74.8538 323.997 72.5829 329.35 68.7224L340.651 60.3201C358.198 46.9218 372.77 42.8342 396.265 42.8342V71.9017C382.882 71.9017 377.826 73.2642 367.417 80.9852L356.116 89.3875C343.625 98.6982 326.971 103.921 309.424 103.921H304.963C294.852 103.921 285.038 101.423 276.413 98.244ZM344.22 248.35L330.837 258.569L344.22 268.788L330.837 279.007L317.454 268.788L304.071 279.007L290.688 268.788L304.071 258.569L290.688 248.35L304.071 238.131L317.454 248.35L330.837 238.131L344.22 248.35Z" fill="#FFD5D3"/>
<path d="M588.681 98.6982V127.766H557.157C541.99 127.766 534.852 132.989 522.659 143.208C509.573 154.108 493.216 167.733 461.097 167.733H429.871V138.666H461.097C475.67 138.666 482.51 133.443 494.406 123.451C506.897 113.005 524.146 98.6982 556.86 98.6982H588.681ZM490.242 69.6308C490.242 61.6826 498.867 55.0971 509.276 55.0971C519.685 55.0971 528.309 61.6826 528.309 69.6308C528.309 77.5789 519.685 84.1645 509.276 84.1645C498.867 84.1645 490.242 77.806 490.242 69.6308Z" fill="#FFD5D3"/>
<path d="M749.871 42.8342H781.693V71.9017H749.871C737.083 71.9017 729.945 75.5351 721.023 82.802V159.104C729.053 156.379 738.57 154.562 749.871 154.562H781.693V183.63H749.871C734.704 183.63 727.566 188.853 715.373 199.072C702.287 209.972 685.93 223.597 653.811 223.597H622.585V194.53H653.811C666.6 194.53 673.44 190.669 682.659 183.175V107.328C674.629 110.053 665.113 111.869 653.811 111.869H622.585V82.802H653.811C668.384 82.802 675.224 77.5789 687.12 67.587C699.908 57.1409 717.157 42.8342 749.871 42.8342Z" fill="#FFD5D3"/>
<path d="M204.443 286.274V311.027H201.171C192.844 311.027 186.004 316.25 186.004 322.608V416.169C186.004 447.962 156.264 467.037 119.387 467.037H60.7994V355.309H45.6321V330.556H60.7994V311.027H45.6321V286.274H98.8664V442.511H119.387C135.149 442.511 147.937 432.747 147.937 420.711V327.15C147.937 300.808 171.729 286.501 201.171 286.501H204.443V286.274Z" fill="#FFD5D3"/>
<path d="M276.413 341.684V417.077C276.413 429.113 289.201 438.878 304.963 438.878H309.424C316.859 438.878 323.997 436.607 329.35 432.747L340.651 424.344C358.198 411.173 372.77 407.086 396.265 407.086V436.153C382.882 436.153 377.826 437.515 367.417 445.237L356.116 453.639C343.625 462.949 326.971 468.173 309.424 468.173H304.963C268.383 468.173 238.346 451.141 238.346 417.305V286.728H276.413V296.947C276.413 308.983 289.201 318.748 304.963 318.748H309.424C316.859 318.748 323.997 316.477 329.35 312.616L340.651 304.214C358.198 291.043 372.77 286.955 396.265 286.955V315.341C382.882 315.341 377.826 316.704 367.417 324.425L356.116 332.827C343.625 342.138 326.971 347.361 309.424 347.361H304.963C294.852 347.361 285.038 344.863 276.413 341.684ZM344.22 492.017L330.837 502.236L344.22 512.455L330.837 522.674L317.454 512.455L304.071 522.674L290.688 512.455L304.071 502.236L290.688 492.017L304.071 481.798L317.454 492.017L330.837 481.798L344.22 492.017Z" fill="#FFD5D3"/>
<path d="M588.681 342.365V371.432H557.157C541.99 371.432 534.852 376.656 522.659 386.875C509.573 397.775 493.216 411.4 461.097 411.4H429.871V382.333H461.097C475.67 382.333 482.51 377.11 494.406 367.118C506.897 356.672 524.146 342.365 556.86 342.365H588.681ZM490.242 313.298C490.242 305.349 498.867 298.764 509.276 298.764C519.685 298.764 528.309 305.349 528.309 313.298C528.309 321.246 519.685 327.831 509.276 327.831C498.867 327.831 490.242 321.246 490.242 313.298Z" fill="#FFD5D3"/>
<path d="M749.871 286.274H781.693V315.341H749.871C737.083 315.341 729.945 318.975 721.023 326.242V402.544C729.053 399.819 738.57 398.002 749.871 398.002H781.693V427.069H749.871C734.704 427.069 727.566 432.292 715.373 442.511C702.287 453.412 685.93 467.037 653.811 467.037H622.585V437.97H653.811C666.6 437.97 673.44 434.109 682.659 426.615V350.767C674.629 353.492 665.113 355.309 653.811 355.309H622.585V326.242H653.811C668.384 326.242 675.224 321.019 687.12 311.027C699.908 300.808 717.157 286.274 749.871 286.274Z" fill="#FFD5D3"/>
<path d="M204.443 529.941V554.694H201.171C192.844 554.694 186.004 559.917 186.004 566.275V659.836C186.004 691.628 156.264 710.704 119.387 710.704H60.7994V598.976H45.6321V574.223H60.7994V554.694H45.6321V529.941H98.8664V685.951H119.387C135.149 685.951 147.937 676.186 147.937 664.151V570.59C147.937 544.247 171.729 529.941 201.171 529.941H204.443Z" fill="#FFD5D3"/>
<path d="M276.413 585.124V660.517C276.413 672.553 289.201 682.318 304.963 682.318H309.424C316.859 682.318 323.997 680.047 329.35 676.186L340.651 667.784C358.198 654.613 372.77 650.525 396.265 650.525V679.593C382.882 679.593 377.826 680.955 367.417 688.676L356.116 697.079C343.625 706.389 326.971 711.612 309.424 711.612H304.963C268.383 711.612 238.346 694.581 238.346 660.744V530.168H276.413V540.387C276.413 552.423 289.201 562.188 304.963 562.188H309.424C316.859 562.188 323.997 559.917 329.35 556.056L340.651 547.654C358.198 534.483 372.77 530.395 396.265 530.395V559.462C382.882 559.462 377.826 560.825 367.417 568.546L356.116 576.948C343.625 586.259 326.971 591.482 309.424 591.482H304.963C294.852 590.801 285.038 588.303 276.413 585.124ZM344.22 735.457L330.837 745.676L344.22 755.895L330.837 766.114L317.454 755.895L304.071 766.114L290.688 755.895L304.071 745.676L290.688 735.457L304.071 725.238L317.454 735.457L330.837 725.238L344.22 735.457Z" fill="#FFD5D3"/>
<path d="M588.681 585.805V614.872H557.157C541.99 614.872 534.852 620.095 522.659 630.314C509.573 641.215 493.216 654.84 461.097 654.84H429.871V625.773H461.097C475.67 625.773 482.51 620.549 494.406 610.558C506.897 600.111 524.146 585.805 556.86 585.805H588.681ZM490.242 556.737C490.242 548.789 498.867 542.204 509.276 542.204C519.685 542.204 528.309 548.789 528.309 556.737C528.309 564.686 519.685 571.271 509.276 571.271C498.867 571.271 490.242 564.686 490.242 556.737Z" fill="#FFD5D3"/>
<path d="M749.871 529.941H781.693V559.008H749.871C737.083 559.008 729.945 562.642 721.023 569.909V646.211C729.053 643.486 738.57 641.669 749.871 641.669H781.693V670.736H749.871C734.704 670.736 727.566 675.959 715.373 686.178C702.287 697.079 685.93 710.704 653.811 710.704H622.585V681.636H653.811C666.6 681.636 673.44 677.776 682.659 670.282V594.434C674.629 597.159 665.113 598.976 653.811 598.976H622.585V569.909H653.811C668.384 569.909 675.224 564.686 687.12 554.694C699.908 544.247 717.157 529.941 749.871 529.941Z" fill="#FFD5D3"/>
<path d="M204.443 42.8342V67.587H201.171C192.844 67.587 186.004 72.81 186.004 79.1685V172.729C186.004 204.522 156.264 223.597 119.387 223.597H60.7994V111.869H45.6321V87.1166H60.7994V67.587H45.6321V42.8342H98.8664V198.845H119.387C135.149 198.845 147.937 189.08 147.937 177.044V83.4832C147.937 57.1409 171.729 42.8342 201.171 42.8342H204.443Z" stroke="#FFD5D3" stroke-width="20" mask="url(#path-3-outside-1_817_1777)"/>
<path d="M276.413 98.244V173.638C276.413 185.673 289.201 195.438 304.963 195.438H309.424C316.859 195.438 323.997 193.167 329.35 189.307L340.651 180.905C358.198 167.733 372.77 163.646 396.265 163.646V192.713C382.882 192.713 377.826 194.076 367.417 201.797L356.116 210.199C343.625 219.51 326.971 224.733 309.424 224.733H304.963C268.383 224.733 238.346 207.701 238.346 173.865V42.8342H276.413V53.0532C276.413 65.089 289.201 74.8538 304.963 74.8538H309.424C316.859 74.8538 323.997 72.5829 329.35 68.7224L340.651 60.3201C358.198 46.9218 372.77 42.8342 396.265 42.8342V71.9017C382.882 71.9017 377.826 73.2642 367.417 80.9852L356.116 89.3875C343.625 98.6982 326.971 103.921 309.424 103.921H304.963C294.852 103.921 285.038 101.423 276.413 98.244ZM344.22 248.35L330.837 258.569L344.22 268.788L330.837 279.007L317.454 268.788L304.071 279.007L290.688 268.788L304.071 258.569L290.688 248.35L304.071 238.131L317.454 248.35L330.837 238.131L344.22 248.35Z" stroke="#FFD5D3" stroke-width="20" mask="url(#path-3-outside-1_817_1777)"/>
<path d="M588.681 98.6982V127.766H557.157C541.99 127.766 534.852 132.989 522.659 143.208C509.573 154.108 493.216 167.733 461.097 167.733H429.871V138.666H461.097C475.67 138.666 482.51 133.443 494.406 123.451C506.897 113.005 524.146 98.6982 556.86 98.6982H588.681ZM490.242 69.6308C490.242 61.6826 498.867 55.0971 509.276 55.0971C519.685 55.0971 528.309 61.6826 528.309 69.6308C528.309 77.5789 519.685 84.1645 509.276 84.1645C498.867 84.1645 490.242 77.806 490.242 69.6308Z" stroke="#FFD5D3" stroke-width="20" mask="url(#path-3-outside-1_817_1777)"/>
<path d="M749.871 42.8342H781.693V71.9017H749.871C737.083 71.9017 729.945 75.5351 721.023 82.802V159.104C729.053 156.379 738.57 154.562 749.871 154.562H781.693V183.63H749.871C734.704 183.63 727.566 188.853 715.373 199.072C702.287 209.972 685.93 223.597 653.811 223.597H622.585V194.53H653.811C666.6 194.53 673.44 190.669 682.659 183.175V107.328C674.629 110.053 665.113 111.869 653.811 111.869H622.585V82.802H653.811C668.384 82.802 675.224 77.5789 687.12 67.587C699.908 57.1409 717.157 42.8342 749.871 42.8342Z" stroke="#FFD5D3" stroke-width="20" mask="url(#path-3-outside-1_817_1777)"/>
<path d="M204.443 286.274V311.027H201.171C192.844 311.027 186.004 316.25 186.004 322.608V416.169C186.004 447.962 156.264 467.037 119.387 467.037H60.7994V355.309H45.6321V330.556H60.7994V311.027H45.6321V286.274H98.8664V442.511H119.387C135.149 442.511 147.937 432.747 147.937 420.711V327.15C147.937 300.808 171.729 286.501 201.171 286.501H204.443V286.274Z" stroke="#FFD5D3" stroke-width="20" mask="url(#path-3-outside-1_817_1777)"/>
<path d="M276.413 341.684V417.077C276.413 429.113 289.201 438.878 304.963 438.878H309.424C316.859 438.878 323.997 436.607 329.35 432.747L340.651 424.344C358.198 411.173 372.77 407.086 396.265 407.086V436.153C382.882 436.153 377.826 437.515 367.417 445.237L356.116 453.639C343.625 462.949 326.971 468.173 309.424 468.173H304.963C268.383 468.173 238.346 451.141 238.346 417.305V286.728H276.413V296.947C276.413 308.983 289.201 318.748 304.963 318.748H309.424C316.859 318.748 323.997 316.477 329.35 312.616L340.651 304.214C358.198 291.043 372.77 286.955 396.265 286.955V315.341C382.882 315.341 377.826 316.704 367.417 324.425L356.116 332.827C343.625 342.138 326.971 347.361 309.424 347.361H304.963C294.852 347.361 285.038 344.863 276.413 341.684ZM344.22 492.017L330.837 502.236L344.22 512.455L330.837 522.674L317.454 512.455L304.071 522.674L290.688 512.455L304.071 502.236L290.688 492.017L304.071 481.798L317.454 492.017L330.837 481.798L344.22 492.017Z" stroke="#FFD5D3" stroke-width="20" mask="url(#path-3-outside-1_817_1777)"/>
<path d="M588.681 342.365V371.432H557.157C541.99 371.432 534.852 376.656 522.659 386.875C509.573 397.775 493.216 411.4 461.097 411.4H429.871V382.333H461.097C475.67 382.333 482.51 377.11 494.406 367.118C506.897 356.672 524.146 342.365 556.86 342.365H588.681ZM490.242 313.298C490.242 305.349 498.867 298.764 509.276 298.764C519.685 298.764 528.309 305.349 528.309 313.298C528.309 321.246 519.685 327.831 509.276 327.831C498.867 327.831 490.242 321.246 490.242 313.298Z" stroke="#FFD5D3" stroke-width="20" mask="url(#path-3-outside-1_817_1777)"/>
<path d="M749.871 286.274H781.693V315.341H749.871C737.083 315.341 729.945 318.975 721.023 326.242V402.544C729.053 399.819 738.57 398.002 749.871 398.002H781.693V427.069H749.871C734.704 427.069 727.566 432.292 715.373 442.511C702.287 453.412 685.93 467.037 653.811 467.037H622.585V437.97H653.811C666.6 437.97 673.44 434.109 682.659 426.615V350.767C674.629 353.492 665.113 355.309 653.811 355.309H622.585V326.242H653.811C668.384 326.242 675.224 321.019 687.12 311.027C699.908 300.808 717.157 286.274 749.871 286.274Z" stroke="#FFD5D3" stroke-width="20" mask="url(#path-3-outside-1_817_1777)"/>
<path d="M204.443 529.941V554.694H201.171C192.844 554.694 186.004 559.917 186.004 566.275V659.836C186.004 691.628 156.264 710.704 119.387 710.704H60.7994V598.976H45.6321V574.223H60.7994V554.694H45.6321V529.941H98.8664V685.951H119.387C135.149 685.951 147.937 676.186 147.937 664.151V570.59C147.937 544.247 171.729 529.941 201.171 529.941H204.443Z" stroke="#FFD5D3" stroke-width="20" mask="url(#path-3-outside-1_817_1777)"/>
<path d="M276.413 585.124V660.517C276.413 672.553 289.201 682.318 304.963 682.318H309.424C316.859 682.318 323.997 680.047 329.35 676.186L340.651 667.784C358.198 654.613 372.77 650.525 396.265 650.525V679.593C382.882 679.593 377.826 680.955 367.417 688.676L356.116 697.079C343.625 706.389 326.971 711.612 309.424 711.612H304.963C268.383 711.612 238.346 694.581 238.346 660.744V530.168H276.413V540.387C276.413 552.423 289.201 562.188 304.963 562.188H309.424C316.859 562.188 323.997 559.917 329.35 556.056L340.651 547.654C358.198 534.483 372.77 530.395 396.265 530.395V559.462C382.882 559.462 377.826 560.825 367.417 568.546L356.116 576.948C343.625 586.259 326.971 591.482 309.424 591.482H304.963C294.852 590.801 285.038 588.303 276.413 585.124ZM344.22 735.457L330.837 745.676L344.22 755.895L330.837 766.114L317.454 755.895L304.071 766.114L290.688 755.895L304.071 745.676L290.688 735.457L304.071 725.238L317.454 735.457L330.837 725.238L344.22 735.457Z" stroke="#FFD5D3" stroke-width="20" mask="url(#path-3-outside-1_817_1777)"/>
<path d="M588.681 585.805V614.872H557.157C541.99 614.872 534.852 620.095 522.659 630.314C509.573 641.215 493.216 654.84 461.097 654.84H429.871V625.773H461.097C475.67 625.773 482.51 620.549 494.406 610.558C506.897 600.111 524.146 585.805 556.86 585.805H588.681ZM490.242 556.737C490.242 548.789 498.867 542.204 509.276 542.204C519.685 542.204 528.309 548.789 528.309 556.737C528.309 564.686 519.685 571.271 509.276 571.271C498.867 571.271 490.242 564.686 490.242 556.737Z" stroke="#FFD5D3" stroke-width="20" mask="url(#path-3-outside-1_817_1777)"/>
<path d="M749.871 529.941H781.693V559.008H749.871C737.083 559.008 729.945 562.642 721.023 569.909V646.211C729.053 643.486 738.57 641.669 749.871 641.669H781.693V670.736H749.871C734.704 670.736 727.566 675.959 715.373 686.178C702.287 697.079 685.93 710.704 653.811 710.704H622.585V681.636H653.811C666.6 681.636 673.44 677.776 682.659 670.282V594.434C674.629 597.159 665.113 598.976 653.811 598.976H622.585V569.909H653.811C668.384 569.909 675.224 564.686 687.12 554.694C699.908 544.247 717.157 529.941 749.871 529.941Z" stroke="#FFD5D3" stroke-width="20" mask="url(#path-3-outside-1_817_1777)"/>
</g>
</g>
</svg>
