<svg width="1411" height="1411" viewBox="0 0 1411 1411" fill="none" xmlns="http://www.w3.org/2000/svg">
<g filter="url(#filter0_d_815_1776)">
<circle cx="701.732" cy="701.203" r="701.033" fill="#111111"/>
<circle cx="701.732" cy="701.203" r="644.462" fill="#111111" stroke="#DEDED0" stroke-opacity="0.15" stroke-width="2"/>
<circle cx="701.731" cy="701.203" r="558.133" fill="#111111" stroke="#DEDED0" stroke-opacity="0.15" stroke-width="2"/>
<circle cx="701.732" cy="701.203" r="466.989" fill="#111111" stroke="#DEDED0" stroke-opacity="0.15" stroke-width="2"/>
<circle cx="701.732" cy="701.203" r="371.171" fill="#111111" stroke="#DEDED0" stroke-opacity="0.15" stroke-width="2"/>
<mask id="mask0_815_1776" style="mask-type:alpha" maskUnits="userSpaceOnUse" x="418" y="418" width="567" height="567">
<circle cx="701.732" cy="701.203" r="283.014" fill="#F38534"/>
</mask>
<g mask="url(#mask0_815_1776)">
<mask id="mask1_815_1776" style="mask-type:alpha" maskUnits="userSpaceOnUse" x="289" y="309" width="826" height="785">
<rect x="289.047" y="309.099" width="825.369" height="784.208" rx="25" fill="#F38534"/>
</mask>
<g mask="url(#mask1_815_1776)">
<rect x="279.845" y="291.029" width="879.952" height="877.486" fill="#F38534"/>
<g style="mix-blend-mode:soft-light">
<mask id="path-9-outside-1_815_1776" maskUnits="userSpaceOnUse" x="323.701" y="341.141" width="757" height="746" fill="black">
<rect fill="white" x="323.701" y="341.141" width="757" height="746"/>
<path d="M492.512 351.141V375.894H489.241C480.914 375.894 474.073 381.117 474.073 387.476V481.036C474.073 512.829 444.334 531.904 407.456 531.904H348.869V420.176H333.701V395.424H348.869V375.894H333.701V351.141H386.936V507.152H407.456C423.218 507.152 436.006 497.387 436.006 485.351V391.79C436.006 365.448 459.798 351.141 489.241 351.141H492.512Z"/>
<path d="M564.482 406.551V481.945C564.482 493.98 577.271 503.745 593.033 503.745H597.494C604.929 503.745 612.066 501.474 617.419 497.614L628.72 489.212C646.267 476.04 660.839 471.953 684.334 471.953V501.02C670.951 501.02 665.895 502.383 655.486 510.104L644.185 518.506C631.694 527.817 615.04 533.04 597.494 533.04H593.033C556.453 533.04 526.415 516.008 526.415 482.172V351.141H564.482V361.36C564.482 373.396 577.271 383.161 593.033 383.161H597.494C604.929 383.161 612.066 380.89 617.419 377.029L628.72 368.627C646.267 355.229 660.839 351.141 684.334 351.141V380.209C670.951 380.209 665.895 381.571 655.486 389.292L644.185 397.695C631.694 407.005 615.04 412.228 597.494 412.228H593.033C582.921 412.228 573.107 409.73 564.482 406.551ZM632.289 556.657L618.906 566.876L632.289 577.095L618.906 587.314L605.523 577.095L592.14 587.314L578.758 577.095L592.14 566.876L578.758 556.657L592.14 546.438L605.523 556.657L618.906 546.438L632.289 556.657Z"/>
<path d="M876.751 407.005V436.073H845.226C830.059 436.073 822.921 441.296 810.728 451.515C797.643 462.415 781.286 476.04 749.167 476.04H717.94V446.973H749.167C763.739 446.973 770.579 441.75 782.475 431.758C794.966 421.312 812.215 407.005 844.929 407.005H876.751ZM778.312 377.938C778.312 369.99 786.936 363.404 797.345 363.404C807.754 363.404 816.379 369.99 816.379 377.938C816.379 385.886 807.754 392.471 797.345 392.471C786.936 392.471 778.312 386.113 778.312 377.938Z"/>
<path d="M1037.94 351.141H1069.76V380.209H1037.94C1025.15 380.209 1018.01 383.842 1009.09 391.109V467.411C1017.12 464.686 1026.64 462.869 1037.94 462.869H1069.76V491.937H1037.94C1022.77 491.937 1015.64 497.16 1003.44 507.379C990.357 518.279 974 531.904 941.881 531.904H910.654V502.837H941.881C954.669 502.837 961.509 498.976 970.728 491.482V415.635C962.699 418.36 953.182 420.176 941.881 420.176H910.654V391.109H941.881C956.453 391.109 963.293 385.886 975.189 375.894C987.977 365.448 1005.23 351.141 1037.94 351.141Z"/>
<path d="M492.512 594.581V619.334H489.241C480.914 619.334 474.073 624.557 474.073 630.915V724.476C474.073 756.269 444.334 775.344 407.456 775.344H348.869V663.616H333.701V638.863H348.869V619.334H333.701V594.581H386.936V750.818H407.456C423.218 750.818 436.006 741.054 436.006 729.018V635.457C436.006 609.115 459.798 594.808 489.241 594.808H492.512V594.581Z"/>
<path d="M564.482 649.991V725.384C564.482 737.42 577.271 747.185 593.033 747.185H597.494C604.929 747.185 612.066 744.914 617.419 741.054L628.72 732.651C646.267 719.48 660.839 715.393 684.334 715.393V744.46C670.951 744.46 665.895 745.822 655.486 753.544L644.185 761.946C631.694 771.256 615.04 776.48 597.494 776.48H593.033C556.453 776.48 526.415 759.448 526.415 725.612V595.035H564.482V605.254C564.482 617.29 577.271 627.055 593.033 627.055H597.494C604.929 627.055 612.066 624.784 617.419 620.923L628.72 612.521C646.267 599.35 660.839 595.262 684.334 595.262V623.648C670.951 623.648 665.895 625.011 655.486 632.732L644.185 641.134C631.694 650.445 615.04 655.668 597.494 655.668H593.033C582.921 655.668 573.107 653.17 564.482 649.991ZM632.289 800.324L618.906 810.543L632.289 820.762L618.906 830.981L605.523 820.762L592.14 830.981L578.758 820.762L592.14 810.543L578.758 800.324L592.14 790.105L605.523 800.324L618.906 790.105L632.289 800.324Z"/>
<path d="M876.751 650.672V679.739H845.226C830.059 679.739 822.921 684.963 810.728 695.182C797.643 706.082 781.286 719.707 749.167 719.707H717.94V690.64H749.167C763.739 690.64 770.579 685.417 782.475 675.425C794.966 664.979 812.215 650.672 844.929 650.672H876.751ZM778.312 621.605C778.312 613.657 786.936 607.071 797.345 607.071C807.754 607.071 816.379 613.657 816.379 621.605C816.379 629.553 807.754 636.138 797.345 636.138C786.936 636.138 778.312 629.553 778.312 621.605Z"/>
<path d="M1037.94 594.581H1069.76V623.648H1037.94C1025.15 623.648 1018.01 627.282 1009.09 634.549V710.851C1017.12 708.126 1026.64 706.309 1037.94 706.309H1069.76V735.376H1037.94C1022.77 735.376 1015.64 740.599 1003.44 750.818C990.357 761.719 974 775.344 941.881 775.344H910.654V746.277H941.881C954.669 746.277 961.509 742.416 970.728 734.922V659.074C962.699 661.799 953.182 663.616 941.881 663.616H910.654V634.549H941.881C956.453 634.549 963.293 629.326 975.189 619.334C987.977 609.115 1005.23 594.581 1037.94 594.581Z"/>
<path d="M492.512 838.248V863.001H489.241C480.914 863.001 474.073 868.224 474.073 874.582V968.143C474.073 999.935 444.334 1019.01 407.456 1019.01H348.869V907.283H333.701V882.53H348.869V863.001H333.701V838.248H386.936V994.258H407.456C423.218 994.258 436.006 984.493 436.006 972.458V878.897C436.006 852.554 459.798 838.248 489.241 838.248H492.512Z"/>
<path d="M564.482 893.431V968.824C564.482 980.86 577.271 990.625 593.033 990.625H597.494C604.929 990.625 612.066 988.354 617.419 984.493L628.72 976.091C646.267 962.92 660.839 958.832 684.334 958.832V987.9C670.951 987.9 665.895 989.262 655.486 996.983L644.185 1005.39C631.694 1014.7 615.04 1019.92 597.494 1019.92H593.033C556.453 1019.92 526.415 1002.89 526.415 969.051V838.475H564.482V848.694C564.482 860.73 577.271 870.495 593.033 870.495H597.494C604.929 870.495 612.066 868.224 617.419 864.363L628.72 855.961C646.267 842.79 660.839 838.702 684.334 838.702V867.769C670.951 867.769 665.895 869.132 655.486 876.853L644.185 885.255C631.694 894.566 615.04 899.789 597.494 899.789H593.033C582.921 899.108 573.107 896.61 564.482 893.431ZM632.289 1043.76L618.906 1053.98L632.289 1064.2L618.906 1074.42L605.523 1064.2L592.14 1074.42L578.758 1064.2L592.14 1053.98L578.758 1043.76L592.14 1033.54L605.523 1043.76L618.906 1033.54L632.289 1043.76Z"/>
<path d="M876.751 894.112V923.179H845.226C830.059 923.179 822.921 928.402 810.728 938.621C797.643 949.522 781.286 963.147 749.167 963.147H717.94V934.08H749.167C763.739 934.08 770.579 928.857 782.475 918.865C794.966 908.418 812.215 894.112 844.929 894.112H876.751ZM778.312 865.044C778.312 857.096 786.936 850.511 797.345 850.511C807.754 850.511 816.379 857.096 816.379 865.044C816.379 872.993 807.754 879.578 797.345 879.578C786.936 879.578 778.312 872.993 778.312 865.044Z"/>
<path d="M1037.94 838.248H1069.76V867.315H1037.94C1025.15 867.315 1018.01 870.949 1009.09 878.216V954.518C1017.12 951.793 1026.64 949.976 1037.94 949.976H1069.76V979.043H1037.94C1022.77 979.043 1015.64 984.266 1003.44 994.485C990.357 1005.39 974 1019.01 941.881 1019.01H910.654V989.944H941.881C954.669 989.944 961.509 986.083 970.728 978.589V902.741C962.699 905.466 953.182 907.283 941.881 907.283H910.654V878.216H941.881C956.453 878.216 963.293 872.993 975.189 863.001C987.977 852.554 1005.23 838.248 1037.94 838.248Z"/>
</mask>
<path d="M492.512 351.141V375.894H489.241C480.914 375.894 474.073 381.117 474.073 387.476V481.036C474.073 512.829 444.334 531.904 407.456 531.904H348.869V420.176H333.701V395.424H348.869V375.894H333.701V351.141H386.936V507.152H407.456C423.218 507.152 436.006 497.387 436.006 485.351V391.79C436.006 365.448 459.798 351.141 489.241 351.141H492.512Z" fill="#FFD5D3"/>
<path d="M564.482 406.551V481.945C564.482 493.98 577.271 503.745 593.033 503.745H597.494C604.929 503.745 612.066 501.474 617.419 497.614L628.72 489.212C646.267 476.04 660.839 471.953 684.334 471.953V501.02C670.951 501.02 665.895 502.383 655.486 510.104L644.185 518.506C631.694 527.817 615.04 533.04 597.494 533.04H593.033C556.453 533.04 526.415 516.008 526.415 482.172V351.141H564.482V361.36C564.482 373.396 577.271 383.161 593.033 383.161H597.494C604.929 383.161 612.066 380.89 617.419 377.029L628.72 368.627C646.267 355.229 660.839 351.141 684.334 351.141V380.209C670.951 380.209 665.895 381.571 655.486 389.292L644.185 397.695C631.694 407.005 615.04 412.228 597.494 412.228H593.033C582.921 412.228 573.107 409.73 564.482 406.551ZM632.289 556.657L618.906 566.876L632.289 577.095L618.906 587.314L605.523 577.095L592.14 587.314L578.758 577.095L592.14 566.876L578.758 556.657L592.14 546.438L605.523 556.657L618.906 546.438L632.289 556.657Z" fill="#FFD5D3"/>
<path d="M876.751 407.005V436.073H845.226C830.059 436.073 822.921 441.296 810.728 451.515C797.643 462.415 781.286 476.04 749.167 476.04H717.94V446.973H749.167C763.739 446.973 770.579 441.75 782.475 431.758C794.966 421.312 812.215 407.005 844.929 407.005H876.751ZM778.312 377.938C778.312 369.99 786.936 363.404 797.345 363.404C807.754 363.404 816.379 369.99 816.379 377.938C816.379 385.886 807.754 392.471 797.345 392.471C786.936 392.471 778.312 386.113 778.312 377.938Z" fill="#FFD5D3"/>
<path d="M1037.94 351.141H1069.76V380.209H1037.94C1025.15 380.209 1018.01 383.842 1009.09 391.109V467.411C1017.12 464.686 1026.64 462.869 1037.94 462.869H1069.76V491.937H1037.94C1022.77 491.937 1015.64 497.16 1003.44 507.379C990.357 518.279 974 531.904 941.881 531.904H910.654V502.837H941.881C954.669 502.837 961.509 498.976 970.728 491.482V415.635C962.699 418.36 953.182 420.176 941.881 420.176H910.654V391.109H941.881C956.453 391.109 963.293 385.886 975.189 375.894C987.977 365.448 1005.23 351.141 1037.94 351.141Z" fill="#FFD5D3"/>
<path d="M492.512 594.581V619.334H489.241C480.914 619.334 474.073 624.557 474.073 630.915V724.476C474.073 756.269 444.334 775.344 407.456 775.344H348.869V663.616H333.701V638.863H348.869V619.334H333.701V594.581H386.936V750.818H407.456C423.218 750.818 436.006 741.054 436.006 729.018V635.457C436.006 609.115 459.798 594.808 489.241 594.808H492.512V594.581Z" fill="#FFD5D3"/>
<path d="M564.482 649.991V725.384C564.482 737.42 577.271 747.185 593.033 747.185H597.494C604.929 747.185 612.066 744.914 617.419 741.054L628.72 732.651C646.267 719.48 660.839 715.393 684.334 715.393V744.46C670.951 744.46 665.895 745.822 655.486 753.544L644.185 761.946C631.694 771.256 615.04 776.48 597.494 776.48H593.033C556.453 776.48 526.415 759.448 526.415 725.612V595.035H564.482V605.254C564.482 617.29 577.271 627.055 593.033 627.055H597.494C604.929 627.055 612.066 624.784 617.419 620.923L628.72 612.521C646.267 599.35 660.839 595.262 684.334 595.262V623.648C670.951 623.648 665.895 625.011 655.486 632.732L644.185 641.134C631.694 650.445 615.04 655.668 597.494 655.668H593.033C582.921 655.668 573.107 653.17 564.482 649.991ZM632.289 800.324L618.906 810.543L632.289 820.762L618.906 830.981L605.523 820.762L592.14 830.981L578.758 820.762L592.14 810.543L578.758 800.324L592.14 790.105L605.523 800.324L618.906 790.105L632.289 800.324Z" fill="#FFD5D3"/>
<path d="M876.751 650.672V679.739H845.226C830.059 679.739 822.921 684.963 810.728 695.182C797.643 706.082 781.286 719.707 749.167 719.707H717.94V690.64H749.167C763.739 690.64 770.579 685.417 782.475 675.425C794.966 664.979 812.215 650.672 844.929 650.672H876.751ZM778.312 621.605C778.312 613.657 786.936 607.071 797.345 607.071C807.754 607.071 816.379 613.657 816.379 621.605C816.379 629.553 807.754 636.138 797.345 636.138C786.936 636.138 778.312 629.553 778.312 621.605Z" fill="#FFD5D3"/>
<path d="M1037.94 594.581H1069.76V623.648H1037.94C1025.15 623.648 1018.01 627.282 1009.09 634.549V710.851C1017.12 708.126 1026.64 706.309 1037.94 706.309H1069.76V735.376H1037.94C1022.77 735.376 1015.64 740.599 1003.44 750.818C990.357 761.719 974 775.344 941.881 775.344H910.654V746.277H941.881C954.669 746.277 961.509 742.416 970.728 734.922V659.074C962.699 661.799 953.182 663.616 941.881 663.616H910.654V634.549H941.881C956.453 634.549 963.293 629.326 975.189 619.334C987.977 609.115 1005.23 594.581 1037.94 594.581Z" fill="#FFD5D3"/>
<path d="M492.512 838.248V863.001H489.241C480.914 863.001 474.073 868.224 474.073 874.582V968.143C474.073 999.935 444.334 1019.01 407.456 1019.01H348.869V907.283H333.701V882.53H348.869V863.001H333.701V838.248H386.936V994.258H407.456C423.218 994.258 436.006 984.493 436.006 972.458V878.897C436.006 852.554 459.798 838.248 489.241 838.248H492.512Z" fill="#FFD5D3"/>
<path d="M564.482 893.431V968.824C564.482 980.86 577.271 990.625 593.033 990.625H597.494C604.929 990.625 612.066 988.354 617.419 984.493L628.72 976.091C646.267 962.92 660.839 958.832 684.334 958.832V987.9C670.951 987.9 665.895 989.262 655.486 996.983L644.185 1005.39C631.694 1014.7 615.04 1019.92 597.494 1019.92H593.033C556.453 1019.92 526.415 1002.89 526.415 969.051V838.475H564.482V848.694C564.482 860.73 577.271 870.495 593.033 870.495H597.494C604.929 870.495 612.066 868.224 617.419 864.363L628.72 855.961C646.267 842.79 660.839 838.702 684.334 838.702V867.769C670.951 867.769 665.895 869.132 655.486 876.853L644.185 885.255C631.694 894.566 615.04 899.789 597.494 899.789H593.033C582.921 899.108 573.107 896.61 564.482 893.431ZM632.289 1043.76L618.906 1053.98L632.289 1064.2L618.906 1074.42L605.523 1064.2L592.14 1074.42L578.758 1064.2L592.14 1053.98L578.758 1043.76L592.14 1033.54L605.523 1043.76L618.906 1033.54L632.289 1043.76Z" fill="#FFD5D3"/>
<path d="M876.751 894.112V923.179H845.226C830.059 923.179 822.921 928.402 810.728 938.621C797.643 949.522 781.286 963.147 749.167 963.147H717.94V934.08H749.167C763.739 934.08 770.579 928.857 782.475 918.865C794.966 908.418 812.215 894.112 844.929 894.112H876.751ZM778.312 865.044C778.312 857.096 786.936 850.511 797.345 850.511C807.754 850.511 816.379 857.096 816.379 865.044C816.379 872.993 807.754 879.578 797.345 879.578C786.936 879.578 778.312 872.993 778.312 865.044Z" fill="#FFD5D3"/>
<path d="M1037.94 838.248H1069.76V867.315H1037.94C1025.15 867.315 1018.01 870.949 1009.09 878.216V954.518C1017.12 951.793 1026.64 949.976 1037.94 949.976H1069.76V979.043H1037.94C1022.77 979.043 1015.64 984.266 1003.44 994.485C990.357 1005.39 974 1019.01 941.881 1019.01H910.654V989.944H941.881C954.669 989.944 961.509 986.083 970.728 978.589V902.741C962.699 905.466 953.182 907.283 941.881 907.283H910.654V878.216H941.881C956.453 878.216 963.293 872.993 975.189 863.001C987.977 852.554 1005.23 838.248 1037.94 838.248Z" fill="#FFD5D3"/>
<path d="M492.512 351.141V375.894H489.241C480.914 375.894 474.073 381.117 474.073 387.476V481.036C474.073 512.829 444.334 531.904 407.456 531.904H348.869V420.176H333.701V395.424H348.869V375.894H333.701V351.141H386.936V507.152H407.456C423.218 507.152 436.006 497.387 436.006 485.351V391.79C436.006 365.448 459.798 351.141 489.241 351.141H492.512Z" stroke="#FFD5D3" stroke-width="20" mask="url(#path-9-outside-1_815_1776)"/>
<path d="M564.482 406.551V481.945C564.482 493.98 577.271 503.745 593.033 503.745H597.494C604.929 503.745 612.066 501.474 617.419 497.614L628.72 489.212C646.267 476.04 660.839 471.953 684.334 471.953V501.02C670.951 501.02 665.895 502.383 655.486 510.104L644.185 518.506C631.694 527.817 615.04 533.04 597.494 533.04H593.033C556.453 533.04 526.415 516.008 526.415 482.172V351.141H564.482V361.36C564.482 373.396 577.271 383.161 593.033 383.161H597.494C604.929 383.161 612.066 380.89 617.419 377.029L628.72 368.627C646.267 355.229 660.839 351.141 684.334 351.141V380.209C670.951 380.209 665.895 381.571 655.486 389.292L644.185 397.695C631.694 407.005 615.04 412.228 597.494 412.228H593.033C582.921 412.228 573.107 409.73 564.482 406.551ZM632.289 556.657L618.906 566.876L632.289 577.095L618.906 587.314L605.523 577.095L592.14 587.314L578.758 577.095L592.14 566.876L578.758 556.657L592.14 546.438L605.523 556.657L618.906 546.438L632.289 556.657Z" stroke="#FFD5D3" stroke-width="20" mask="url(#path-9-outside-1_815_1776)"/>
<path d="M876.751 407.005V436.073H845.226C830.059 436.073 822.921 441.296 810.728 451.515C797.643 462.415 781.286 476.04 749.167 476.04H717.94V446.973H749.167C763.739 446.973 770.579 441.75 782.475 431.758C794.966 421.312 812.215 407.005 844.929 407.005H876.751ZM778.312 377.938C778.312 369.99 786.936 363.404 797.345 363.404C807.754 363.404 816.379 369.99 816.379 377.938C816.379 385.886 807.754 392.471 797.345 392.471C786.936 392.471 778.312 386.113 778.312 377.938Z" stroke="#FFD5D3" stroke-width="20" mask="url(#path-9-outside-1_815_1776)"/>
<path d="M1037.94 351.141H1069.76V380.209H1037.94C1025.15 380.209 1018.01 383.842 1009.09 391.109V467.411C1017.12 464.686 1026.64 462.869 1037.94 462.869H1069.76V491.937H1037.94C1022.77 491.937 1015.64 497.16 1003.44 507.379C990.357 518.279 974 531.904 941.881 531.904H910.654V502.837H941.881C954.669 502.837 961.509 498.976 970.728 491.482V415.635C962.699 418.36 953.182 420.176 941.881 420.176H910.654V391.109H941.881C956.453 391.109 963.293 385.886 975.189 375.894C987.977 365.448 1005.23 351.141 1037.94 351.141Z" stroke="#FFD5D3" stroke-width="20" mask="url(#path-9-outside-1_815_1776)"/>
<path d="M492.512 594.581V619.334H489.241C480.914 619.334 474.073 624.557 474.073 630.915V724.476C474.073 756.269 444.334 775.344 407.456 775.344H348.869V663.616H333.701V638.863H348.869V619.334H333.701V594.581H386.936V750.818H407.456C423.218 750.818 436.006 741.054 436.006 729.018V635.457C436.006 609.115 459.798 594.808 489.241 594.808H492.512V594.581Z" stroke="#FFD5D3" stroke-width="20" mask="url(#path-9-outside-1_815_1776)"/>
<path d="M564.482 649.991V725.384C564.482 737.42 577.271 747.185 593.033 747.185H597.494C604.929 747.185 612.066 744.914 617.419 741.054L628.72 732.651C646.267 719.48 660.839 715.393 684.334 715.393V744.46C670.951 744.46 665.895 745.822 655.486 753.544L644.185 761.946C631.694 771.256 615.04 776.48 597.494 776.48H593.033C556.453 776.48 526.415 759.448 526.415 725.612V595.035H564.482V605.254C564.482 617.29 577.271 627.055 593.033 627.055H597.494C604.929 627.055 612.066 624.784 617.419 620.923L628.72 612.521C646.267 599.35 660.839 595.262 684.334 595.262V623.648C670.951 623.648 665.895 625.011 655.486 632.732L644.185 641.134C631.694 650.445 615.04 655.668 597.494 655.668H593.033C582.921 655.668 573.107 653.17 564.482 649.991ZM632.289 800.324L618.906 810.543L632.289 820.762L618.906 830.981L605.523 820.762L592.14 830.981L578.758 820.762L592.14 810.543L578.758 800.324L592.14 790.105L605.523 800.324L618.906 790.105L632.289 800.324Z" stroke="#FFD5D3" stroke-width="20" mask="url(#path-9-outside-1_815_1776)"/>
<path d="M876.751 650.672V679.739H845.226C830.059 679.739 822.921 684.963 810.728 695.182C797.643 706.082 781.286 719.707 749.167 719.707H717.94V690.64H749.167C763.739 690.64 770.579 685.417 782.475 675.425C794.966 664.979 812.215 650.672 844.929 650.672H876.751ZM778.312 621.605C778.312 613.657 786.936 607.071 797.345 607.071C807.754 607.071 816.379 613.657 816.379 621.605C816.379 629.553 807.754 636.138 797.345 636.138C786.936 636.138 778.312 629.553 778.312 621.605Z" stroke="#FFD5D3" stroke-width="20" mask="url(#path-9-outside-1_815_1776)"/>
<path d="M1037.94 594.581H1069.76V623.648H1037.94C1025.15 623.648 1018.01 627.282 1009.09 634.549V710.851C1017.12 708.126 1026.64 706.309 1037.94 706.309H1069.76V735.376H1037.94C1022.77 735.376 1015.64 740.599 1003.44 750.818C990.357 761.719 974 775.344 941.881 775.344H910.654V746.277H941.881C954.669 746.277 961.509 742.416 970.728 734.922V659.074C962.699 661.799 953.182 663.616 941.881 663.616H910.654V634.549H941.881C956.453 634.549 963.293 629.326 975.189 619.334C987.977 609.115 1005.23 594.581 1037.94 594.581Z" stroke="#FFD5D3" stroke-width="20" mask="url(#path-9-outside-1_815_1776)"/>
<path d="M492.512 838.248V863.001H489.241C480.914 863.001 474.073 868.224 474.073 874.582V968.143C474.073 999.935 444.334 1019.01 407.456 1019.01H348.869V907.283H333.701V882.53H348.869V863.001H333.701V838.248H386.936V994.258H407.456C423.218 994.258 436.006 984.493 436.006 972.458V878.897C436.006 852.554 459.798 838.248 489.241 838.248H492.512Z" stroke="#FFD5D3" stroke-width="20" mask="url(#path-9-outside-1_815_1776)"/>
<path d="M564.482 893.431V968.824C564.482 980.86 577.271 990.625 593.033 990.625H597.494C604.929 990.625 612.066 988.354 617.419 984.493L628.72 976.091C646.267 962.92 660.839 958.832 684.334 958.832V987.9C670.951 987.9 665.895 989.262 655.486 996.983L644.185 1005.39C631.694 1014.7 615.04 1019.92 597.494 1019.92H593.033C556.453 1019.92 526.415 1002.89 526.415 969.051V838.475H564.482V848.694C564.482 860.73 577.271 870.495 593.033 870.495H597.494C604.929 870.495 612.066 868.224 617.419 864.363L628.72 855.961C646.267 842.79 660.839 838.702 684.334 838.702V867.769C670.951 867.769 665.895 869.132 655.486 876.853L644.185 885.255C631.694 894.566 615.04 899.789 597.494 899.789H593.033C582.921 899.108 573.107 896.61 564.482 893.431ZM632.289 1043.76L618.906 1053.98L632.289 1064.2L618.906 1074.42L605.523 1064.2L592.14 1074.42L578.758 1064.2L592.14 1053.98L578.758 1043.76L592.14 1033.54L605.523 1043.76L618.906 1033.54L632.289 1043.76Z" stroke="#FFD5D3" stroke-width="20" mask="url(#path-9-outside-1_815_1776)"/>
<path d="M876.751 894.112V923.179H845.226C830.059 923.179 822.921 928.402 810.728 938.621C797.643 949.522 781.286 963.147 749.167 963.147H717.94V934.08H749.167C763.739 934.08 770.579 928.857 782.475 918.865C794.966 908.418 812.215 894.112 844.929 894.112H876.751ZM778.312 865.044C778.312 857.096 786.936 850.511 797.345 850.511C807.754 850.511 816.379 857.096 816.379 865.044C816.379 872.993 807.754 879.578 797.345 879.578C786.936 879.578 778.312 872.993 778.312 865.044Z" stroke="#FFD5D3" stroke-width="20" mask="url(#path-9-outside-1_815_1776)"/>
<path d="M1037.94 838.248H1069.76V867.315H1037.94C1025.15 867.315 1018.01 870.949 1009.09 878.216V954.518C1017.12 951.793 1026.64 949.976 1037.94 949.976H1069.76V979.043H1037.94C1022.77 979.043 1015.64 984.266 1003.44 994.485C990.357 1005.39 974 1019.01 941.881 1019.01H910.654V989.944H941.881C954.669 989.944 961.509 986.083 970.728 978.589V902.741C962.699 905.466 953.182 907.283 941.881 907.283H910.654V878.216H941.881C956.453 878.216 963.293 872.993 975.189 863.001C987.977 852.554 1005.23 838.248 1037.94 838.248Z" stroke="#FFD5D3" stroke-width="20" mask="url(#path-9-outside-1_815_1776)"/>
</g>
<path d="M824.061 558.45C824.061 558.45 829.641 586.779 843.806 606.095C857.97 625.41 905.185 648.159 899.176 686.36C899.176 686.36 932.226 691.511 906.902 732.716C906.902 732.716 912.482 758.47 885.011 755.036C885.011 755.036 893.167 792.808 849.386 789.803C849.386 789.803 830.5 800.105 812.472 789.803C812.472 789.803 788.865 800.963 774.7 790.662C774.7 790.662 761.394 806.114 748.088 794.954L733.495 774.781C733.495 774.781 654.517 751.173 625.759 761.475C597.001 771.776 571.247 763.191 567.384 754.607C567.384 754.607 550.215 759.758 547.21 749.885C544.206 740.013 541.201 705.675 558.799 701.812C558.799 701.812 529.183 680.78 542.489 648.588C542.489 648.588 526.607 535.272 656.234 531.409C785.86 527.546 801.742 535.701 824.061 558.45Z" fill="url(#paint0_linear_815_1776)" stroke="#8A3933" stroke-width="4.29226" stroke-miterlimit="10"/>
<g opacity="0.3">
<path d="M824.061 558.45C824.061 558.45 829.641 586.779 843.806 606.095C857.97 625.41 905.185 648.159 899.176 686.36C899.176 686.36 932.226 691.511 906.902 732.716C906.902 732.716 912.482 758.47 885.011 755.036C885.011 755.036 893.167 792.808 849.386 789.803C849.386 789.803 830.5 800.105 812.472 789.803C812.472 789.803 788.865 800.963 774.7 790.662C774.7 790.662 761.394 806.114 748.088 794.954L733.495 774.781C733.495 774.781 654.517 751.173 625.759 761.475C597.001 771.776 571.247 763.191 567.384 754.607C567.384 754.607 550.215 759.758 547.21 749.885C544.206 740.013 541.201 705.675 558.799 701.812C558.799 701.812 529.183 680.78 542.489 648.588C542.489 648.588 526.607 535.272 656.234 531.409C785.86 527.546 801.742 535.701 824.061 558.45Z" stroke="#8A3933" stroke-width="4.29226" stroke-miterlimit="10"/>
<path d="M828.783 717.693C834.792 721.127 841.66 724.132 848.956 724.132C852.39 724.132 855.824 723.703 859.258 722.844C862.692 721.986 865.696 720.269 869.13 718.552C875.139 714.689 880.719 709.967 885.87 704.387C891.021 698.807 895.313 692.798 899.176 686.789C896.601 693.657 892.308 700.524 888.016 706.533C883.295 712.543 878.144 718.123 871.276 722.415C864.838 726.707 857.112 729.712 848.956 729.282C840.801 729.282 833.075 725.849 826.637 721.556L828.783 717.693Z" fill="#8A3933"/>
<path d="M908.619 733.146C906.902 738.296 902.61 740.872 897.888 741.73C893.596 742.588 889.304 741.73 885.44 740.442C881.577 739.155 877.285 737.009 875.139 733.146C873.851 730.999 873.851 728.853 874.281 726.707C874.71 724.561 875.568 722.844 877.285 721.127C875.568 724.561 875.139 728.853 877.285 731.858C879.431 734.862 883.294 736.15 886.728 737.009C890.591 737.867 894.454 738.296 897.459 737.438C900.893 737.009 903.897 734.433 904.756 731.858L908.619 733.146Z" fill="#8A3933"/>
<path d="M881.578 737.009C879.432 740.872 876.427 744.306 872.993 746.881C869.56 749.885 865.697 752.032 861.404 753.749C852.82 756.753 843.377 756.324 835.221 753.319C827.066 750.315 819.34 746.452 812.902 740.443C809.897 737.438 806.892 733.575 805.605 728.853C805.176 726.278 805.605 723.703 806.892 721.557C808.18 719.41 810.326 718.123 812.902 718.552C810.756 719.41 809.897 721.127 809.468 722.844C809.039 724.561 809.468 726.278 809.897 727.566C811.185 730.57 813.76 733.575 816.765 735.721C822.774 740.443 830.071 744.306 837.368 746.881C839.084 747.739 841.231 747.739 842.947 748.169C844.664 748.598 846.811 748.598 848.527 749.027C852.39 749.027 855.824 748.598 859.687 747.739C863.121 746.452 866.555 744.735 869.56 742.589C872.564 740.443 875.569 737.438 877.715 734.863L881.578 737.009Z" fill="#8A3933"/>
<path d="M785.002 640.432C788.865 641.291 792.728 642.579 796.591 643.866C800.454 645.154 803.888 646.442 807.322 648.158C814.619 651.592 821.486 655.455 827.925 660.177C834.363 664.898 839.943 670.907 844.664 677.346C849.386 683.784 851.961 691.94 852.391 699.666C848.957 692.369 845.094 686.36 840.801 680.35C836.08 674.341 830.5 669.191 824.491 664.898C818.482 660.606 812.043 656.743 805.176 653.309C798.308 649.875 791.44 646.871 784.144 644.725L785.002 640.432Z" fill="#8A3933"/>
<path d="M863.979 751.173C860.546 756.752 856.253 761.903 851.103 766.195C845.952 770.488 839.943 774.78 832.646 775.209C830.929 775.638 828.783 775.209 827.066 774.78C825.349 774.351 823.632 773.922 821.915 773.063C818.911 771.775 815.906 770.058 813.331 768.342C810.755 766.625 807.751 764.049 806.034 761.474C805.175 760.186 804.317 758.469 803.459 756.752C803.029 755.894 803.029 755.036 803.029 754.177C803.029 753.319 803.459 752.46 804.317 752.031C803.029 753.319 803.888 755.036 804.746 756.323C805.605 757.611 806.463 758.899 807.751 759.757C809.897 761.903 812.472 763.62 815.477 764.908C818.052 766.195 821.057 767.912 824.061 768.771C825.349 769.629 826.637 769.629 828.354 770.058C829.641 770.058 830.929 770.488 832.646 770.058C838.226 769.2 843.377 766.195 848.098 762.332C852.82 758.469 857.112 753.748 860.546 748.597L863.979 751.173Z" fill="#8A3933"/>
<path d="M822.774 772.205C819.34 776.068 815.477 778.644 811.185 781.219C806.892 783.794 802.171 785.082 797.449 785.941C792.728 786.37 787.577 785.511 783.285 783.794C778.563 782.077 775.13 778.644 772.125 775.21C775.988 777.785 779.851 780.79 784.143 781.648C788.436 782.936 792.728 783.365 797.02 782.507C801.312 781.648 805.175 779.931 809.038 777.785C812.902 775.639 816.335 772.634 819.769 769.63L822.774 772.205Z" fill="#8A3933"/>
</g>
<path d="M566.955 754.606C566.955 754.606 567.813 742.159 587.987 744.734C607.731 747.309 605.156 733.574 605.156 733.574" fill="url(#paint1_linear_815_1776)"/>
<path d="M564.809 754.606C565.238 749.026 569.53 745.163 573.822 743.446C578.544 741.73 582.836 742.159 587.128 742.588C590.991 743.017 595.284 743.876 598.717 742.588C602.151 741.73 604.727 737.866 604.727 733.574C605.585 735.72 605.156 737.866 604.727 740.013C603.868 742.159 602.151 743.876 600.005 745.163C595.713 747.309 590.991 747.309 586.699 746.88C582.836 746.451 578.973 746.88 575.539 747.739C572.105 749.026 569.53 751.602 569.101 754.606H564.809Z" fill="#8A3933"/>
<path d="M824.061 558.45C824.061 558.45 829.641 586.779 843.806 606.095C857.97 625.41 905.185 648.159 899.176 686.36C899.176 686.36 932.226 691.511 906.902 732.716C906.902 732.716 912.482 758.47 885.011 755.036C885.011 755.036 893.167 792.808 849.386 789.803C849.386 789.803 830.5 800.105 812.472 789.803C812.472 789.803 788.865 800.963 774.7 790.662C774.7 790.662 761.394 806.114 748.088 794.954L733.495 774.781C733.495 774.781 654.517 751.173 625.759 761.475C597.001 771.776 571.247 763.191 567.384 754.607C567.384 754.607 550.215 759.758 547.21 749.885C544.206 740.013 541.201 705.675 558.799 701.812C558.799 701.812 529.183 680.78 542.489 648.588C542.489 648.588 526.607 535.272 656.234 531.409C785.86 527.546 801.742 535.701 824.061 558.45Z" stroke="#8A3933" stroke-width="4.29226" stroke-miterlimit="10"/>
<path d="M774.271 777.356C767.833 782.507 761.394 786.37 755.385 789.374V733.146H649.366V788.087C643.357 785.082 636.49 781.219 629.193 776.068L600.864 923.293H803.459C803.459 876.937 774.271 823.713 774.271 777.356Z" fill="url(#paint2_linear_815_1776)" stroke="#893932" stroke-width="4.29226" stroke-miterlimit="10"/>
<path d="M831.358 631.419C823.632 627.556 812.472 643.008 806.463 652.022C806.463 635.712 805.176 620.259 803.888 608.241C803.888 608.241 809.897 531.839 732.207 535.702C654.517 539.565 670.828 539.136 670.828 539.136C670.828 539.136 557.512 549.866 581.978 652.022C581.978 652.022 582.407 655.027 583.695 660.607C576.398 652.022 563.521 639.575 556.653 644.296C546.781 651.164 567.384 746.452 604.727 724.991C623.184 763.621 655.376 801.822 708.6 795.813C760.965 789.804 786.29 756.753 797.879 718.123C837.797 732.717 842.089 636.999 831.358 631.419Z" fill="url(#paint3_linear_815_1776)" stroke="#893932" stroke-width="4.29226" stroke-miterlimit="10"/>
<path d="M568.243 648.588C568.243 648.588 544.635 628.414 560.087 682.497C575.539 736.15 596.571 730.999 606.444 726.278L600.435 696.232C600.864 696.661 573.822 650.305 568.243 648.588Z" fill="url(#paint4_linear_815_1776)"/>
<path d="M819.769 637.857C819.769 637.857 842.089 614.25 833.504 670.478C824.92 726.707 801.741 724.561 790.152 721.556L792.298 690.652C792.298 690.652 814.189 640.003 819.769 637.857Z" fill="url(#paint5_linear_815_1776)"/>
<path d="M831.358 631.419C823.632 627.556 812.472 643.008 806.463 652.022C806.463 635.712 805.176 620.259 803.888 608.241C803.888 608.241 809.897 531.839 732.207 535.702C654.517 539.565 670.828 539.136 670.828 539.136C670.828 539.136 557.512 549.866 581.978 652.022C581.978 652.022 582.407 655.027 583.695 660.607C576.398 652.022 563.521 639.575 556.653 644.296C546.781 651.164 567.384 746.452 604.727 724.991C623.184 763.621 655.376 801.822 708.6 795.813C760.965 789.804 786.29 756.753 797.879 718.123C837.797 732.717 842.089 636.999 831.358 631.419Z" stroke="#893932" stroke-width="4.29226" stroke-miterlimit="10"/>
<path d="M729.203 671.337C729.203 671.337 760.536 633.136 788.007 668.332V692.798C788.007 692.798 787.148 716.835 764.828 716.835C742.509 716.835 733.066 704.387 733.066 704.387L729.203 671.337Z" fill="url(#paint6_linear_815_1776)"/>
<path d="M672.545 679.493L668.682 711.255C668.682 711.255 657.092 722.415 641.64 722.415C626.188 722.415 615.457 703.1 615.457 703.1L609.019 676.059C609.019 676.059 617.604 655.885 640.782 655.885C663.96 655.885 672.545 679.493 672.545 679.493Z" fill="url(#paint7_linear_815_1776)"/>
<path d="M768.262 702.242C763.112 702.242 759.249 698.379 759.249 693.228V671.337C759.249 666.187 763.112 662.323 768.262 662.323C773.413 662.323 777.276 666.187 777.276 671.337V693.228C777.276 697.949 773.413 702.242 768.262 702.242Z" fill="#F68A3B" stroke="#CC6328" stroke-width="4.29226" stroke-miterlimit="10"/>
<path d="M768.262 691.082C769.922 691.082 771.267 687.046 771.267 682.068C771.267 677.09 769.922 673.054 768.262 673.054C766.603 673.054 765.258 677.09 765.258 682.068C765.258 687.046 766.603 691.082 768.262 691.082Z" fill="#CC6328"/>
<path d="M721.477 625.41C721.477 625.41 718.472 637.857 724.91 638.716C730.92 640.004 763.112 614.25 791.011 642.579C790.582 642.579 780.281 601.802 721.477 625.41Z" fill="#A1553C" stroke="#883832" stroke-width="4.29226" stroke-miterlimit="10"/>
<path opacity="0.16" d="M810.755 602.661C810.755 602.661 815.048 643.008 806.463 650.734C797.449 658.46 739.933 632.278 741.221 621.976C742.508 611.246 733.065 560.168 733.065 560.168C739.504 596.652 734.782 621.547 733.065 622.835C708.599 655.885 644.215 626.698 644.215 626.698C651.083 621.118 659.238 573.044 659.238 573.044C659.238 573.044 644.645 618.542 636.489 623.693C628.334 628.415 616.745 644.296 580.261 654.597C580.261 654.597 564.379 628.415 580.261 582.917C580.261 582.917 590.133 539.994 671.257 539.565C752.381 539.135 791.44 527.976 810.755 602.661Z" fill="#681C0E"/>
<path d="M665.677 640.433C665.677 640.433 675.12 634.424 670.398 627.985C665.677 621.118 629.622 621.976 609.019 646.013C609.019 646.013 654.946 625.839 665.677 640.433Z" fill="#A1553C" stroke="#883832" stroke-width="4.29226" stroke-miterlimit="10"/>
<path d="M733.066 703.958C737.358 708.25 742.509 710.826 748.088 712.972C751.093 713.83 753.668 714.689 756.673 715.118C759.678 715.547 762.682 715.547 765.258 715.547C766.974 715.547 769.55 715.547 771.267 714.689C773.413 714.26 775.13 713.401 776.847 712.113C778.564 710.826 780.28 709.538 781.568 707.392C782.856 705.675 783.714 703.529 785.002 701.812L785.86 702.241C785.431 704.387 784.573 706.533 783.285 708.68C781.997 710.826 780.28 712.543 778.564 714.26C776.847 715.976 774.271 716.835 772.125 717.693C769.979 718.552 767.404 718.552 764.828 718.552C761.824 718.552 758.819 718.123 755.815 717.693C752.81 717.264 749.805 716.406 746.801 715.118C743.796 713.83 741.221 712.543 738.645 710.826C736.07 709.109 733.924 706.963 731.778 704.387L733.066 703.958Z" fill="#E58650"/>
<path d="M668.682 711.685C666.535 713.831 664.389 715.548 662.243 717.265C659.668 718.982 657.092 720.269 654.517 721.557C651.942 722.845 648.937 723.274 645.933 723.703C642.928 724.132 639.923 723.703 636.919 723.274H637.348C633.914 722.845 631.768 721.557 629.622 720.269C627.476 718.982 625.33 717.265 623.613 715.118C621.896 713.402 620.179 711.255 618.891 709.109C617.604 706.963 616.316 704.817 615.458 702.671L615.887 702.242C617.604 703.959 618.891 706.105 620.608 707.822C622.325 709.539 624.042 711.255 625.759 712.972C627.476 714.689 629.622 715.977 631.339 717.265C633.056 718.552 635.631 719.411 637.348 719.411H637.777C640.353 719.84 642.928 719.84 645.933 719.84C648.508 719.411 651.083 718.982 654.088 718.123C659.239 716.406 664.389 713.831 669.111 710.826L668.682 711.685Z" fill="#E58650"/>
<path d="M621.037 722.415L622.325 718.552L623.613 714.259L626.617 716.835L629.193 718.981L625.33 720.698L621.037 722.415Z" fill="#E58650"/>
<path d="M640.353 730.141L638.636 726.278L636.49 722.415H640.353H643.787L642.07 726.278L640.353 730.141Z" fill="#E58650"/>
<path d="M657.951 727.566L654.946 724.561L651.942 721.557L655.375 720.269L658.809 718.981L658.38 723.273L657.951 727.566Z" fill="#E58650"/>
<path d="M744.655 721.557L744.226 717.265V712.972L747.659 714.26L751.093 715.548L747.659 718.552L744.655 721.557Z" fill="#E58650"/>
<path d="M764.828 725.419L763.111 721.556L761.395 717.693H764.828H768.691L766.545 721.556L764.828 725.419Z" fill="#E58650"/>
<path d="M806.463 652.022L798.308 702.241V643.437L806.034 636.14L809.038 643.008L806.463 652.022Z" fill="#BA5A3B"/>
<path d="M587.558 651.593L601.293 700.525L576.398 647.73L580.261 637.858L585.841 642.579L587.558 651.593Z" fill="#BA5A3B"/>
<path d="M810.326 646.871L800.025 684.213L798.308 643.437" fill="#BA5A3B"/>
<path d="M810.326 646.871L800.025 684.213L798.308 643.437" stroke="#8A3933" stroke-width="4.29226" stroke-miterlimit="10"/>
<path d="M585.841 646.013L596.572 691.511L576.827 653.31" fill="#BA5A3B"/>
<path d="M585.841 646.013L596.572 691.511L576.827 653.31" stroke="#8A3933" stroke-width="4.29226" stroke-miterlimit="10"/>
<path d="M781.568 719.84L778.135 717.694L774.271 715.548L777.276 713.831L780.281 711.685L781.139 715.977L781.568 719.84Z" fill="#E58650"/>
<path d="M810.755 594.077C810.755 594.077 815.048 634.424 806.463 642.15C797.449 649.876 739.933 623.693 741.221 613.392C742.508 602.661 733.065 551.583 733.065 551.583C739.504 588.067 734.782 612.962 733.065 614.25C708.599 647.301 644.215 618.113 644.215 618.113C651.083 612.533 659.238 564.46 659.238 564.46C659.238 564.46 644.645 609.958 636.489 615.109C628.334 619.83 616.745 635.711 580.261 646.013C580.261 646.013 564.379 619.83 580.261 574.332C580.261 574.332 590.133 531.409 671.257 530.98C752.381 530.551 791.44 519.391 810.755 594.077Z" fill="url(#paint8_linear_815_1776)" stroke="#8A3933" stroke-width="4.29226" stroke-miterlimit="10"/>
<path d="M811.185 594.076C812.043 601.802 812.902 609.528 812.902 617.254C812.902 621.117 812.902 624.98 812.472 628.843C812.043 632.706 811.185 636.569 809.468 640.432C809.039 641.291 808.18 642.149 807.322 643.008C806.463 643.866 805.176 644.295 804.317 644.295C802.171 644.725 800.025 644.725 798.308 644.295C794.445 643.866 790.582 643.008 786.719 641.72C778.993 639.574 771.696 636.569 764.828 633.135C757.961 629.702 750.664 625.839 744.655 620.688C743.367 619.4 741.65 617.683 740.792 615.537C740.362 614.249 740.362 612.533 740.362 612.103C740.362 611.245 740.362 610.386 740.362 609.528C740.362 605.665 739.933 601.802 739.075 597.939C736.929 582.487 734.353 567.035 731.778 552.012L736.07 551.153C737.787 561.455 739.075 572.185 739.075 582.916C739.075 588.067 739.075 593.647 738.645 598.797C738.645 601.373 738.216 603.948 737.787 606.953C737.358 608.24 737.358 609.528 736.929 610.816C736.929 611.674 736.499 612.103 736.499 612.962C736.499 613.391 736.07 613.82 736.07 614.249C736.07 614.679 736.07 614.679 735.641 615.108C735.212 615.537 735.212 615.966 734.782 616.396L735.212 615.966C730.061 622.834 722.764 627.985 714.609 630.131C706.454 632.706 698.298 633.135 690.143 632.277C681.988 631.848 673.832 630.131 666.106 627.985C658.38 625.839 650.654 623.263 643.357 620.259L641.211 619.4L642.928 616.825C643.357 616.396 643.357 616.396 643.786 615.966C644.216 615.537 644.216 615.108 644.645 614.679C645.074 613.82 645.503 612.962 645.933 611.674C646.791 609.528 647.649 607.382 648.079 605.236C649.366 600.943 650.654 596.222 651.513 591.93C653.659 582.916 655.376 573.902 657.092 564.888L661.385 565.747C658.38 575.19 654.946 585.062 651.513 594.076C649.796 598.797 647.649 603.519 645.074 607.811C644.645 609.099 643.786 609.957 643.357 611.245C642.928 612.533 642.07 613.391 641.211 614.679C640.782 615.537 638.636 617.254 637.777 617.683C636.919 618.113 636.06 618.971 634.773 619.829C627.047 626.268 618.891 632.706 609.878 637.428C600.864 642.149 591.421 646.012 581.549 648.588H579.402L578.544 647.3C575.539 641.291 574.252 635.282 572.964 629.272C572.106 623.263 571.676 616.825 572.106 610.816C572.535 604.807 573.393 598.368 574.681 592.359C575.11 589.354 576.398 586.35 576.827 583.345L579.832 574.761L580.69 575.19L578.115 583.774C577.686 586.779 576.827 589.784 576.398 592.788C575.539 598.797 574.681 604.807 574.681 610.816C574.681 616.825 575.11 622.834 576.398 628.843C577.686 634.423 579.403 640.432 582.407 645.583L579.832 644.725C589.275 642.149 598.718 638.286 607.302 633.994C615.887 629.272 623.613 623.263 631.339 616.825C632.197 615.966 633.485 615.108 634.343 614.679C635.202 614.249 635.202 613.82 635.631 613.82C636.06 613.391 636.49 613.391 636.49 612.962C637.348 612.103 637.777 611.245 638.636 609.957C639.065 609.099 639.923 607.811 640.353 606.953C642.499 602.66 644.645 597.939 646.362 593.647C649.796 584.204 653.229 574.761 656.234 565.318L660.526 566.176C658.809 575.619 657.092 584.633 654.946 593.647C654.517 597.08 653.229 601.373 651.942 606.094C651.083 608.24 650.654 610.816 649.366 612.962C648.937 614.249 648.508 615.108 647.649 616.396C647.22 616.825 647.22 617.683 646.791 618.113C646.362 618.542 645.933 619.4 645.074 619.829L644.645 616.396C651.942 619.4 659.239 621.976 666.965 624.122C674.691 626.268 682.417 627.556 690.143 627.985C697.869 628.414 705.595 627.985 712.892 625.839C720.189 623.692 726.627 619.4 730.919 613.391L731.349 612.962C731.349 612.962 730.919 612.962 730.919 613.391C730.919 612.962 730.919 612.962 731.349 612.533C731.349 612.103 731.778 611.245 731.778 610.816C732.207 609.528 732.207 608.24 732.636 606.953C733.066 604.377 733.066 601.802 733.495 599.227C733.924 594.076 733.924 588.925 733.924 583.774C733.495 573.473 732.636 563.172 730.919 552.87L735.212 552.012C737.787 567.464 740.362 582.916 742.079 598.368C742.509 602.231 742.938 606.094 742.938 609.957C742.938 611.674 742.509 614.679 742.938 615.108C743.367 616.396 744.655 617.683 745.942 618.971C751.522 624.122 758.39 627.985 765.258 631.419C772.125 634.852 779.422 637.857 786.719 640.003C790.582 641.291 794.016 642.149 797.879 642.578C799.596 643.008 801.742 643.008 803.459 642.578C804.317 642.578 805.176 642.149 805.605 641.72C806.034 641.291 806.892 640.432 807.322 640.003C809.039 636.998 809.897 633.135 810.326 629.272C810.756 625.409 811.185 621.546 811.185 617.683C811.185 609.957 811.185 602.231 810.756 594.505L811.185 594.076Z" fill="#883832"/>
<path d="M665.677 747.311C670.828 751.174 676.408 754.178 682.417 755.895C688.426 757.612 694.864 758.47 700.874 758.47C707.312 758.47 713.321 757.183 719.759 755.466C722.764 754.607 725.769 753.32 728.773 752.461C731.778 751.174 734.782 749.886 737.787 748.598L738.645 750.315C736.07 752.032 733.065 753.749 730.061 755.895C727.056 757.183 724.052 758.9 720.618 760.187C714.18 762.763 707.312 764.05 700.444 764.05C693.577 764.05 686.28 762.763 679.841 760.187C676.408 758.9 673.403 757.183 670.828 755.466C668.252 753.32 665.248 751.174 663.102 748.598L665.677 747.311Z" fill="#CB6254"/>
<path d="M711.604 730.141L703.02 735.292L694.006 730.57V725.419H711.604V730.141Z" fill="#C65C55"/>
<path d="M751.952 743.018C753.669 739.584 755.815 736.15 758.39 733.575C759.249 732.716 759.678 732.287 760.965 731.428C761.824 730.999 763.541 730.141 765.258 730.57C766.116 730.999 766.545 731.428 766.975 731.858C767.404 732.287 767.833 732.716 767.833 733.145C768.262 734.004 769.121 734.862 769.121 735.721L770.408 738.296C770.838 739.155 771.267 739.584 770.408 739.154C769.55 739.154 770.408 739.155 770.838 738.296C771.267 737.867 772.125 737.008 772.555 736.579C775.13 734.004 777.276 730.999 779.851 728.424L781.998 730.141C780.281 733.575 778.134 736.579 775.559 739.584C774.701 740.442 774.271 740.871 773.413 741.73C772.984 742.159 772.555 742.588 772.125 743.018C771.696 743.447 770.838 743.876 769.121 743.876C767.833 743.876 766.975 742.588 766.545 742.159C766.116 741.73 765.687 740.871 765.687 740.442L764.828 737.867C764.399 737.008 763.97 736.15 763.97 735.721C763.97 735.291 763.541 735.291 763.541 734.862C763.112 734.433 763.112 734.433 763.112 734.433C763.112 734.433 762.682 734.433 762.253 734.862C761.395 735.291 760.965 735.721 760.107 736.15C757.532 738.296 754.956 741.301 752.381 744.305L751.952 743.018Z" fill="#F79968"/>
<path d="M621.467 743.018C623.184 739.584 625.33 736.15 627.905 733.575C628.764 732.716 629.193 732.287 630.481 731.428C631.339 730.999 633.056 730.141 634.773 730.57C635.631 730.999 636.06 731.428 636.49 731.858C636.919 732.287 637.348 732.716 637.348 733.145C637.777 734.004 638.636 734.862 638.636 735.721L639.924 738.296C640.353 739.155 640.782 739.584 639.924 739.154C639.065 739.154 639.924 739.155 640.353 738.296C640.782 737.867 641.64 737.008 642.07 736.579C644.645 734.004 646.791 730.999 649.367 728.424L651.513 730.141C649.796 733.575 647.65 736.579 645.074 739.584C644.216 740.442 643.787 740.871 642.928 741.73C642.499 742.159 642.07 742.588 641.64 743.018C641.211 743.447 640.353 743.876 638.636 743.876C637.348 743.876 636.49 742.588 636.061 742.159C635.631 741.73 635.202 740.871 635.202 740.442L634.344 737.867C633.914 737.008 633.485 736.15 633.485 735.721C633.485 735.291 633.056 735.291 633.056 734.862C632.627 734.433 632.627 734.433 632.627 734.433C632.627 734.433 632.197 734.433 631.768 734.862C630.91 735.291 630.481 735.721 629.622 736.15C627.047 738.296 624.471 741.301 621.896 744.305L621.467 743.018Z" fill="#F79968"/>
<path d="M657.522 706.534C652.371 706.534 648.508 702.671 648.508 697.52V675.629C648.508 670.479 652.371 666.616 657.522 666.616C662.672 666.616 666.535 670.479 666.535 675.629V697.52C666.106 702.671 662.243 706.534 657.522 706.534Z" fill="#F68A3B" stroke="#CC6328" stroke-width="4.29226" stroke-miterlimit="10"/>
<path d="M657.522 694.516C659.181 694.516 660.526 690.48 660.526 685.502C660.526 680.524 659.181 676.488 657.522 676.488C655.862 676.488 654.517 680.524 654.517 685.502C654.517 690.48 655.862 694.516 657.522 694.516Z" fill="#CC6328"/>
<path d="M658.809 680.78C661.18 680.78 663.102 678.859 663.102 676.488C663.102 674.118 661.18 672.196 658.809 672.196C656.439 672.196 654.517 674.118 654.517 676.488C654.517 678.859 656.439 680.78 658.809 680.78Z" fill="#FCCFB9"/>
<path d="M770.837 678.205C773.208 678.205 775.129 676.283 775.129 673.912C775.129 671.542 773.208 669.62 770.837 669.62C768.467 669.62 766.545 671.542 766.545 673.912C766.545 676.283 768.467 678.205 770.837 678.205Z" fill="#FCCFB9"/>
<path d="M850.244 553.729C855.395 582.916 840.801 602.232 840.801 602.232C694.006 489.345 541.63 648.588 541.63 648.588C512.443 632.707 492.269 607.812 478.534 582.058C453.21 534.843 448.917 484.624 448.488 482.907C448.059 479.473 454.068 469.171 466.945 469.601C480.251 470.03 577.256 424.961 592.708 424.103C608.16 422.815 665.677 422.386 692.718 415.947C719.759 409.509 729.632 411.226 786.289 435.692C796.591 440.413 806.892 444.276 816.765 447.71C859.687 462.733 894.025 467.884 903.468 475.181C914.628 484.194 850.244 553.729 850.244 553.729Z" fill="#F68A3B"/>
<path d="M802.171 678.205L831.788 632.278" stroke="#8A3933" stroke-width="4.29226" stroke-miterlimit="10"/>
<path d="M594.854 688.935L556.653 643.867" stroke="#8A3933" stroke-width="4.29226" stroke-miterlimit="10"/>
<path d="M541.63 648.588C512.443 632.706 492.269 607.811 478.534 582.058C518.452 518.532 585.841 492.349 586.699 492.349C546.352 524.971 541.63 648.588 541.63 648.588Z" fill="url(#paint9_linear_815_1776)"/>
<path d="M840.801 601.802C840.801 601.802 825.778 490.203 771.267 478.185C771.267 478.185 818.052 474.322 850.244 553.3C854.966 582.916 840.801 601.802 840.801 601.802Z" fill="url(#paint10_linear_815_1776)"/>
<path d="M850.244 553.729C850.244 553.729 821.057 470.03 771.266 478.615C742.938 483.336 779.851 464.45 816.335 447.71C859.258 462.733 893.596 467.884 903.039 475.181C914.628 484.194 850.244 553.729 850.244 553.729Z" fill="url(#paint11_linear_815_1776)"/>
<path d="M812.473 665.758C814.619 669.621 816.336 673.484 817.623 677.347C818.911 681.639 819.769 685.931 818.482 690.653C817.623 692.799 816.765 695.374 814.619 696.662C812.902 697.95 810.756 699.237 808.18 699.666C805.605 700.096 803.03 698.808 801.742 697.091C800.454 695.374 799.596 693.228 799.167 691.082C800.025 692.799 801.313 694.516 803.03 695.803C804.746 697.091 806.034 697.091 807.751 696.662C809.468 696.233 810.756 694.945 812.043 694.087C813.331 693.228 813.76 691.511 814.189 689.794C814.619 686.36 814.189 682.497 812.902 678.634C811.614 674.771 810.326 671.338 808.18 667.904L812.473 665.758Z" fill="#8A3933"/>
<path d="M583.695 674.342C581.978 677.776 580.261 681.639 578.973 685.073C577.685 688.936 577.256 692.799 577.685 696.233C578.115 697.95 578.544 699.666 579.831 700.525C581.119 701.813 582.836 702.671 584.124 703.1C585.841 703.529 587.558 703.1 588.845 702.242C590.133 700.954 591.421 699.666 592.708 697.52C592.279 699.666 591.421 701.813 590.133 703.529C588.845 705.246 586.27 706.534 583.695 706.105C581.119 705.676 579.402 704.817 577.256 703.1C575.11 701.813 574.252 699.237 573.393 697.091C572.105 692.37 572.964 688.077 574.252 683.785C575.539 679.493 577.256 675.63 579.402 672.196L583.695 674.342Z" fill="#8A3933"/>
<path d="M729.203 671.337C729.203 671.337 747.659 622.834 790.582 653.31L787.577 668.332C788.007 668.332 766.116 632.707 729.203 671.337Z" fill="#462E2D"/>
<path d="M733.924 654.168L737.787 655.885L741.65 657.601L739.075 660.177L736.499 662.323L735.212 658.46L733.924 654.168Z" fill="#462E2D"/>
<path d="M757.531 639.145L760.536 643.437L763.111 647.3L759.248 647.729L755.385 648.588L756.244 643.866L757.531 639.145Z" fill="#462E2D"/>
<path d="M791.44 646.013L790.582 653.31L789.294 661.036L783.285 658.031L777.276 655.026L783.714 650.305L791.44 646.013Z" fill="#462E2D"/>
<path d="M672.544 679.493C672.544 679.493 658.809 627.985 599.147 666.187L609.019 676.488C609.019 676.488 618.462 656.314 640.782 656.314C663.101 656.314 672.544 679.493 672.544 679.493Z" fill="#462E2D"/>
<path d="M662.243 653.739L658.38 655.456L654.517 657.173L657.092 659.748L660.097 661.894L660.955 658.031L662.243 653.739Z" fill="#462E2D"/>
<path d="M633.056 645.154L631.768 649.447L630.051 654.168L633.914 653.739L638.206 653.31L635.631 649.017L633.056 645.154Z" fill="#462E2D"/>
<path d="M594.854 660.177L599.147 665.757L604.297 670.908L609.019 666.187L613.74 661.894L609.448 660.177H594.854Z" fill="#462E2D"/>
<path d="M775.129 777.356C775.129 777.356 774.7 778.214 774.271 779.073C773.413 778.644 772.125 778.644 771.266 778.644C766.974 778.644 763.54 782.077 763.54 786.37C763.54 787.228 763.54 788.087 763.97 788.945H763.54C760.107 788.945 757.531 791.091 756.243 794.096H755.814C751.951 794.096 748.947 796.671 748.088 800.534C747.659 800.534 746.801 800.534 746.371 800.534C743.367 800.534 740.791 802.251 739.504 804.826C739.074 804.826 738.216 804.826 737.787 804.826C734.782 804.826 731.778 806.973 730.919 809.548C729.631 808.69 728.344 808.26 727.056 808.26C723.622 808.26 721.047 810.406 719.759 813.411C718.472 812.553 716.755 811.694 715.038 811.694C712.462 811.694 710.316 812.982 709.029 814.699C707.741 813.411 705.595 812.123 703.449 812.123C701.302 812.123 699.156 812.982 697.869 814.269C696.581 812.982 694.435 812.123 692.289 812.123C691.001 812.123 689.284 812.553 688.426 813.411C687.138 812.553 685.421 811.694 683.704 811.694C682.417 811.694 681.129 812.123 680.27 812.553C678.983 809.977 676.407 807.831 673.403 807.831C672.115 807.831 670.398 808.26 669.54 809.119C668.681 805.685 665.677 802.68 661.814 802.68C660.955 802.68 659.668 803.11 658.809 803.11V802.68C658.809 798.388 655.375 794.954 651.083 794.954C651.083 790.662 647.649 787.228 643.357 787.228C642.928 787.228 642.498 787.228 642.069 787.228C642.069 786.799 642.069 786.37 642.069 785.941C642.069 781.648 638.635 778.214 634.343 778.214H633.914C632.626 777.356 630.909 776.927 629.622 776.927H601.293V1028.45H818.911V777.356H775.129Z" fill="url(#paint12_linear_815_1776)"/>
<path d="M803.458 944.325H601.293V1113.87H803.458V944.325Z" fill="url(#paint13_linear_815_1776)"/>
<path d="M818.911 777.356V1028.88H803.458V1113.44H601.293V1028.88V944.325V777.356H629.622C630.909 777.356 632.626 777.785 633.914 778.644H634.343C638.635 778.644 642.069 782.077 642.069 786.37C642.069 786.799 642.069 787.228 642.069 787.657C642.499 787.657 642.928 787.657 643.357 787.657C647.649 787.657 651.083 791.091 651.083 795.384C655.375 795.384 658.809 798.817 658.809 803.11V803.539C659.668 803.11 660.955 803.11 661.814 803.11C665.677 803.11 668.681 805.685 669.54 809.548C670.827 808.69 672.115 808.26 673.403 808.26C676.407 808.26 678.983 809.977 680.27 812.982C681.558 812.553 682.417 812.123 683.704 812.123C685.421 812.123 687.138 812.553 688.426 813.84C689.713 812.982 691.001 812.553 692.289 812.553C694.435 812.553 696.581 813.411 697.869 814.699C699.156 813.411 701.303 812.553 703.449 812.553C705.595 812.553 707.741 813.411 709.029 815.128C710.316 813.411 712.462 812.123 715.038 812.123C716.755 812.123 718.472 812.553 719.759 813.84C720.618 810.836 723.622 808.69 727.056 808.69C728.344 808.69 730.061 809.119 730.919 809.977C732.207 807.402 734.782 805.256 737.787 805.256C738.216 805.256 739.074 805.256 739.504 805.256C740.791 802.68 743.367 800.963 746.371 800.963C746.801 800.963 747.659 800.963 748.088 800.963C748.517 797.53 751.951 794.525 755.814 794.525H756.244C757.102 791.52 760.107 789.374 763.54 789.374H763.97C763.54 788.516 763.54 787.657 763.54 786.799C763.54 782.507 766.974 779.073 771.266 779.073C772.125 779.073 773.413 779.502 774.271 779.502C775.129 778.214 775.129 777.785 775.129 777.785L818.911 777.356ZM823.203 773.064H818.911H775.129H772.554L772.125 774.351C771.696 774.351 771.696 774.351 771.266 774.351C764.828 774.351 759.677 779.073 759.248 785.511C757.102 786.37 754.956 788.087 753.668 789.804C750.234 790.662 747.23 792.808 745.513 795.813C742.508 796.242 739.933 797.53 737.787 799.676C734.782 799.676 731.778 801.393 729.631 803.539C728.773 803.539 727.915 803.11 727.485 803.11C724.052 803.11 721.047 804.397 718.472 806.973C717.184 807.402 716.325 807.402 715.038 807.402C712.892 807.402 710.746 807.831 708.599 809.119C706.882 808.26 705.166 807.831 703.449 807.831C701.303 807.831 699.586 808.26 697.869 809.119C696.152 808.26 694.435 807.831 692.289 807.831C691.001 807.831 689.713 807.831 688.426 808.26C686.709 807.402 684.992 806.973 683.275 806.973C682.846 806.973 681.987 806.973 681.558 806.973C679.412 804.827 676.407 803.11 672.974 803.11C672.544 803.11 671.686 803.11 671.257 803.11C669.111 800.105 665.677 797.959 661.814 797.959C660.526 794.525 657.951 791.95 654.517 790.662C653.229 786.799 650.225 783.794 645.932 782.936C644.645 777.785 640.352 774.351 634.772 773.922C633.914 773.493 633.056 773.064 632.197 773.064V772.635H629.192H600.864H596.571V776.927V943.467V1028.02V1112.58V1116.87H600.864H803.029H807.321V1112.58V1032.32H818.481H822.774V1028.02V777.356V773.064H823.203Z" fill="#939393"/>
<path d="M1100.91 1056.78C1097.05 1107.43 864.409 1155.93 797.878 1168.81C786.719 1170.96 780.28 1172.24 780.28 1172.24C799.166 803.538 775.129 776.926 775.129 776.926C781.139 775.639 787.148 774.78 793.157 773.922C901.751 759.757 923.642 819.42 990.172 882.945C1060.14 949.475 1105.2 997.549 1100.91 1056.78Z" fill="#B13C25" stroke="#682321" stroke-width="8.58453" stroke-miterlimit="10"/>
<g opacity="0.2">
<path d="M881.148 977.804C879.86 959.347 879.86 941.32 881.577 922.863C882.436 913.849 883.294 904.406 886.299 894.963C887.586 890.242 889.303 885.52 893.595 880.799C894.883 879.511 896.171 878.653 897.888 877.794L900.892 876.506C902.609 875.648 904.755 874.79 906.472 873.502C914.198 869.21 920.637 863.63 929.221 858.479C931.367 857.191 933.943 855.904 937.377 855.474C938.235 855.474 939.523 855.474 940.381 855.474C940.81 855.474 941.669 855.904 942.098 855.904L942.956 856.333C942.956 856.333 943.815 856.762 944.244 857.191C946.82 858.479 947.249 861.484 947.678 862.771C947.678 863.63 947.678 864.059 947.678 864.917C947.678 865.347 947.678 866.205 947.249 866.205C946.39 869.639 945.103 871.785 943.815 873.931C942.527 876.077 941.24 878.223 939.952 879.94C929.221 895.392 918.061 909.557 903.897 922.004C909.906 903.977 921.924 889.812 930.938 874.36C932.226 872.643 933.084 870.497 933.943 868.78C934.801 867.064 935.66 864.917 936.089 864.059C936.089 864.059 936.089 864.059 936.089 864.488C936.089 864.917 936.089 864.917 936.518 865.776C936.947 866.205 937.377 867.063 937.806 867.493C938.235 867.922 938.664 867.922 938.235 867.922C938.235 867.922 938.235 867.922 938.664 867.922C938.664 867.922 938.664 867.922 938.235 867.922C937.377 867.922 935.66 868.78 933.943 869.639C926.646 873.502 918.92 879.511 910.335 883.803C908.189 885.091 906.043 885.949 903.468 886.808L901.751 887.237L900.892 887.666C900.463 887.666 900.463 888.096 900.463 888.096C900.034 888.096 899.605 888.525 899.175 888.954C897.029 891.1 894.883 894.963 893.595 898.826C890.591 906.982 888.874 915.995 887.157 924.58C885.44 933.594 884.582 942.607 883.294 951.621C882.865 959.776 882.006 968.79 881.148 977.804Z" fill="#682321"/>
<path d="M898.747 942.179C912.911 943.466 927.505 944.325 941.669 945.183C948.966 945.612 955.834 945.612 963.131 945.612C966.564 945.612 969.998 945.612 973.432 945.183C975.149 945.183 976.866 944.754 978.583 944.754C979.441 944.754 979.87 944.325 980.729 944.325C981.158 944.325 981.158 944.325 981.158 944.325C981.158 944.325 980.729 944.325 980.729 944.754L980.3 945.183C980.3 945.612 979.87 946.042 979.87 946.471L986.309 950.763C980.3 954.197 974.29 956.772 967.852 959.777C961.414 962.352 955.404 964.927 948.966 967.074C942.528 969.22 936.089 970.937 929.222 972.224C922.783 973.512 915.486 973.941 909.048 971.795C915.486 973.083 922.354 971.795 928.792 970.078C935.231 968.361 941.24 965.786 947.249 962.781C959.268 957.201 970.857 950.334 982.016 943.037L990.172 937.457L988.455 947.329C988.455 947.758 988.026 948.617 988.026 949.046C987.596 949.475 987.596 949.905 987.167 950.334C986.738 950.763 985.88 951.192 985.45 951.622C984.592 952.051 983.733 952.051 983.304 952.48C982.016 952.909 981.158 952.909 979.87 952.909C977.724 952.909 976.007 952.909 974.29 952.909C970.427 952.909 966.994 952.48 963.131 952.051C955.834 951.192 948.966 950.334 941.669 949.046C926.646 947.758 912.482 945.183 898.747 942.179Z" fill="#682321"/>
</g>
<path d="M797.878 1168.81C786.719 1170.96 780.28 1172.24 780.28 1172.24C799.166 803.538 775.129 776.926 775.129 776.926C781.139 775.638 787.148 774.78 793.157 773.921C795.303 774.351 832.646 783.794 797.878 1168.81Z" fill="#99342D"/>
<path d="M1100.91 1056.78C1097.05 1107.43 864.409 1155.93 797.878 1168.81C786.719 1170.96 780.28 1172.24 780.28 1172.24C799.166 803.538 775.129 776.926 775.129 776.926C781.139 775.639 787.148 774.78 793.157 773.922C901.751 759.757 923.642 819.42 990.172 882.945C1060.14 949.475 1105.2 997.549 1100.91 1056.78Z" stroke="#682321" stroke-width="8.58453" stroke-miterlimit="10"/>
<path opacity="0.4" d="M923.212 1017.29C898.317 1013 864.408 1013 864.408 1013C864.408 1013 894.454 1040.04 909.906 1053.78C925.788 1067.51 924.929 1123.74 924.929 1123.74C924.929 1123.74 912.911 1109.58 897.03 1091.12C895.742 1089.83 894.454 1088.12 893.167 1086.83C883.724 1076.1 873.422 1064.51 863.55 1053.78C863.121 1053.35 862.691 1052.92 862.262 1052.49C855.824 1045.62 849.815 1039.61 844.235 1034.03C842.947 1032.75 842.089 1031.89 841.23 1030.6C817.623 1002.27 858.828 968.791 861.404 939.174C862.691 924.58 857.112 906.123 851.102 891.101C850.673 890.242 850.673 889.813 850.244 888.954C843.805 873.073 836.938 861.055 836.938 861.055L867.842 876.936C867.842 876.936 913.34 908.27 914.199 933.165C915.057 958.489 947.678 993.686 967.852 1004.42C988.455 1016.01 948.108 1021.59 923.212 1017.29Z" fill="#682321"/>
<path opacity="0.2" d="M892.308 1007.42C872.564 1003.56 846.81 1003.56 846.81 1003.56C846.81 1003.56 869.988 1026.31 882.436 1037.9C891.02 1046.05 893.166 1071.81 894.025 1086.83V1087.26C885.011 1076.53 874.281 1064.94 864.408 1053.78C863.979 1053.35 863.55 1052.92 863.121 1052.49C855.824 1044.33 848.527 1037.04 842.089 1031.03C818.481 1002.7 859.687 969.22 862.262 939.604C863.55 925.01 857.97 906.553 851.961 891.53C851.532 890.672 851.532 890.242 851.102 889.384C857.97 894.964 885.011 917.284 885.87 936.17C886.299 957.631 912.052 987.677 927.934 996.691C942.957 1006.13 911.623 1011.28 892.308 1007.42Z" fill="#682321"/>
<path d="M304.697 1056.78C308.561 1107.43 541.201 1155.93 607.731 1168.81C618.891 1170.96 625.33 1172.24 625.33 1172.24C606.444 803.538 630.48 776.926 630.48 776.926C624.471 775.639 618.462 774.78 612.453 773.922C503.859 759.757 481.968 819.42 415.438 882.945C345.474 949.475 299.976 997.549 304.697 1056.78Z" fill="#B13C25" stroke="#682321" stroke-width="8.58453" stroke-miterlimit="10"/>
<g opacity="0.2">
<path d="M524.461 977.804C523.603 968.79 522.744 959.777 521.457 950.763C520.169 941.749 519.311 932.735 517.594 923.722C515.877 914.708 514.16 906.123 511.155 897.968C509.868 894.105 507.721 890.242 505.575 888.096C505.146 887.667 504.717 887.237 504.288 887.237C504.288 887.237 503.858 887.237 503.858 886.808L503 886.379L501.283 885.95C499.137 885.091 496.562 884.233 494.415 882.945C485.831 878.653 478.105 873.073 470.808 868.781C469.091 867.922 467.374 867.064 466.516 867.064C466.516 867.064 466.516 867.064 466.087 867.064C466.087 867.064 466.087 867.064 466.516 867.064C466.516 867.064 466.945 867.064 466.945 866.635C467.803 866.205 468.233 865.776 468.233 864.918C468.662 864.059 468.662 864.059 468.662 863.63C468.662 863.201 468.662 863.63 468.662 863.201C469.091 864.059 469.95 866.205 470.808 867.922C471.666 869.639 472.954 871.785 473.813 873.502C482.397 888.954 494.415 903.119 500.854 921.146C487.119 908.699 475.53 894.534 464.799 879.082C463.511 876.936 462.223 875.219 460.936 873.073C459.648 870.927 458.36 868.781 457.502 865.347C457.502 864.918 457.502 864.488 457.073 864.059C457.073 863.63 457.073 863.201 457.073 861.913C457.073 860.625 457.931 857.621 460.507 856.333C460.936 855.904 461.794 855.475 461.794 855.475L462.653 855.045C463.082 855.045 463.94 854.616 464.37 854.616C465.657 854.616 466.516 854.616 467.374 854.616C470.808 855.475 473.383 856.762 475.53 857.621C484.114 862.772 490.982 868.351 498.279 872.644C499.995 873.931 502.142 874.79 503.858 875.648L506.863 876.936C508.58 877.794 509.868 878.653 511.155 879.941C515.448 884.662 516.735 889.384 518.452 894.105C521.028 903.548 522.315 912.562 523.174 922.005C525.749 941.32 525.749 959.777 524.461 977.804Z" fill="#682321"/>
<path d="M506.863 942.178C492.699 944.753 478.534 947.329 464.37 949.475C457.073 950.333 450.205 951.621 442.908 952.479C439.475 952.909 435.612 953.338 431.749 953.338C430.032 953.338 427.886 953.338 426.169 953.338C425.31 953.338 424.022 953.338 422.735 952.909C422.306 952.909 421.447 952.479 420.589 952.05C420.159 952.05 419.73 951.621 418.872 950.763C418.443 950.333 418.443 949.904 418.013 949.475C417.584 949.046 417.584 948.187 417.584 947.758L415.867 937.886L424.022 943.466C434.753 950.763 446.771 957.63 458.79 963.21C464.799 966.215 470.808 968.361 477.247 970.507C483.685 972.224 490.123 973.512 496.991 972.224C490.553 974.37 483.256 973.941 476.817 972.653C469.95 971.365 463.511 969.649 457.073 967.502C450.635 965.356 444.196 962.781 438.187 960.206C431.749 957.63 425.739 954.626 419.73 951.192L426.169 946.899C426.169 946.47 426.169 946.041 425.739 945.612C425.739 945.183 425.31 945.183 425.31 945.183L424.881 944.753C424.881 944.753 424.881 944.753 425.31 944.753C425.739 944.753 426.598 945.183 427.456 945.183C429.173 945.612 430.89 945.612 432.607 945.612C436.041 946.041 439.475 946.041 442.908 946.041C450.205 946.041 457.073 945.612 464.37 945.612C478.534 944.753 492.699 943.466 506.863 942.178Z" fill="#682321"/>
</g>
<path d="M607.731 1168.81C618.891 1170.96 625.33 1172.24 625.33 1172.24C606.444 803.538 630.48 776.926 630.48 776.926C624.471 775.638 618.462 774.78 612.453 773.921C609.877 774.351 572.535 783.364 607.731 1168.81Z" fill="#99342D"/>
<path d="M304.697 1056.78C308.561 1107.43 541.201 1155.93 607.731 1168.81C618.891 1170.96 625.33 1172.24 625.33 1172.24C606.444 803.538 630.48 776.926 630.48 776.926C624.471 775.639 618.462 774.78 612.453 773.922C503.859 759.757 481.968 819.42 415.438 882.945C345.474 949.475 299.976 997.549 304.697 1056.78Z" stroke="#682321" stroke-width="8.58453" stroke-miterlimit="10"/>
<path opacity="0.4" d="M482.397 1017.29C507.292 1013 541.201 1013 541.201 1013C541.201 1013 511.155 1040.04 495.703 1053.78C479.822 1067.51 480.68 1123.74 480.68 1123.74C480.68 1123.74 492.699 1109.58 508.58 1091.12C509.868 1089.83 511.155 1088.12 512.443 1086.83C521.886 1076.1 532.188 1064.51 542.06 1053.78C542.489 1053.35 542.918 1052.92 543.347 1052.49C549.786 1045.62 555.795 1039.61 561.375 1034.03C562.663 1032.75 563.521 1031.89 564.38 1030.6C587.987 1002.27 546.781 968.791 544.206 939.174C542.918 924.58 548.498 906.123 554.507 891.101C554.937 890.242 554.937 889.813 555.366 888.954C561.804 873.073 568.672 861.055 568.672 861.055L537.768 876.936C537.768 876.936 492.27 908.27 491.411 933.165C490.553 958.489 457.931 993.686 437.758 1004.42C417.155 1015.58 457.502 1021.59 482.397 1017.29Z" fill="#682321"/>
<path opacity="0.2" d="M513.302 1007.42C533.046 1003.56 558.8 1003.56 558.8 1003.56C558.8 1003.56 535.621 1026.31 523.174 1037.9C514.589 1046.05 512.443 1071.81 511.585 1086.83V1087.26C520.598 1076.53 531.329 1064.94 541.201 1053.78C541.63 1053.35 542.06 1052.92 542.489 1052.49C549.786 1044.33 557.083 1037.04 563.521 1031.03C587.128 1002.7 545.923 969.22 543.347 939.604C542.06 925.01 547.64 906.553 553.649 891.53C554.078 890.672 554.078 890.242 554.507 889.384C547.64 894.964 520.598 917.284 519.74 936.17C519.311 957.631 493.557 987.677 477.676 996.691C462.224 1006.13 493.986 1011.28 513.302 1007.42Z" fill="#682321"/>
<path d="M714.609 412.514C730.061 412.514 747.23 418.523 785.86 435.692C796.162 440.414 806.463 444.277 816.335 447.71C859.258 462.733 893.596 467.884 903.039 475.181C914.628 484.624 849.815 553.729 849.815 553.729C854.966 582.917 840.372 602.232 840.372 602.232C841.23 603.52 842.089 604.807 842.947 606.095C857.112 625.41 904.327 648.159 898.317 686.36C898.317 686.36 931.368 691.511 906.044 732.717C906.044 732.717 910.765 755.037 888.874 755.037C887.587 755.037 885.87 755.037 884.153 754.607C884.153 754.607 888.016 771.776 876.856 782.078C920.208 800.105 945.103 840.882 989.313 882.946C1059.28 949.476 1104.78 997.55 1100.48 1056.78C1096.62 1107.43 863.979 1155.93 797.449 1168.81C786.289 1170.96 779.851 1172.24 779.851 1172.24C780.709 1151.64 781.997 1132.33 782.426 1113.44H622.325C623.183 1131.9 624.042 1151.64 624.9 1172.24C624.9 1172.24 618.462 1170.96 607.302 1168.81C540.772 1155.93 308.131 1107.43 304.268 1056.78C299.976 997.55 345.045 949.476 415.438 882.946C475.529 826.288 499.137 771.776 581.978 771.776C591.421 771.776 601.293 772.635 612.453 773.923C617.603 774.781 623.183 775.639 628.763 776.498V776.069C629.192 776.498 629.622 776.498 630.051 776.927C630.48 777.356 630.909 777.356 631.339 777.786C632.197 777.786 633.056 778.215 633.914 779.073H634.343C637.777 779.073 640.782 781.219 641.64 784.224C644.215 785.512 646.791 787.229 648.937 788.087V780.79C640.782 775.21 633.485 768.343 627.046 760.617C626.188 761.046 625.329 761.046 624.471 761.475C615.028 764.909 606.014 766.197 598.288 766.197C581.548 766.197 569.101 760.187 566.525 754.607C566.525 754.607 561.804 755.895 557.082 755.895C552.361 755.895 547.639 754.607 546.352 749.886C542.918 740.014 540.343 705.676 557.941 701.813C557.941 701.813 528.324 680.78 541.63 648.588C512.443 632.707 492.269 607.812 478.534 582.058C453.21 534.843 448.917 485.053 448.488 482.907C448.059 479.473 453.639 469.601 466.086 469.601C466.516 469.601 466.516 469.601 466.945 469.601C466.945 469.601 466.945 469.601 467.374 469.601C481.539 469.601 577.256 425.391 592.708 424.103C608.16 422.815 665.677 422.386 692.718 415.948C700.873 413.802 707.741 412.514 714.609 412.514ZM714.609 395.345C705.595 395.345 697.439 397.062 688.426 399.208C669.54 403.929 631.339 405.217 608.59 406.076C600.864 406.505 595.284 406.505 590.991 406.934C581.978 407.363 564.809 414.231 524.89 430.541C504.717 438.697 473.812 451.144 466.516 452.432C466.086 452.432 466.086 452.432 465.657 452.432C454.497 452.432 444.625 457.153 437.757 464.88C432.607 471.318 430.031 478.615 430.89 485.053V485.482C433.036 502.651 439.904 547.72 462.653 589.784C478.105 618.543 497.42 640.862 521.027 656.315C518.452 674.342 524.89 689.794 533.046 700.954C523.174 718.982 526.607 745.594 529.612 755.037C530.47 757.183 531.329 759.329 532.617 761.046C493.128 773.493 467.803 800.964 439.904 831.439C428.314 843.886 416.725 856.763 402.99 870.069C331.739 937.458 281.519 990.682 286.67 1057.64C288.387 1078.24 305.556 1106.57 426.598 1143.06C492.698 1162.8 565.667 1178.25 603.439 1185.55C615.028 1187.7 621.466 1188.98 621.466 1188.98L642.928 1192.85L641.64 1171.39C640.782 1157.65 640.352 1144.34 639.494 1131.04H763.97C763.54 1144.34 762.682 1158.08 761.823 1171.82L760.536 1193.28L781.997 1189.41C781.997 1189.41 788.436 1188.13 800.025 1185.98C837.797 1178.68 910.765 1163.66 976.866 1143.49C1097.91 1107 1115.51 1078.67 1116.79 1058.07C1121.94 991.111 1071.72 937.887 1000.47 870.499C986.738 857.622 975.149 844.745 963.56 832.297C942.528 809.119 924.071 788.946 899.605 774.781C900.034 773.493 900.464 772.206 900.464 770.489C907.76 768.343 912.482 764.05 915.486 760.187C921.925 752.032 923.213 742.589 922.783 736.151C932.656 718.552 934.372 702.671 928.363 690.223C924.929 682.927 919.779 678.205 915.057 675.2C912.911 646.013 888.445 624.981 871.705 610.817C867.413 606.953 863.121 603.52 860.116 600.515C863.979 591.501 868.272 577.337 866.984 559.739C872.564 553.729 881.148 543.857 890.162 533.127C916.774 500.505 921.496 487.199 920.637 477.327C920.208 471.318 917.633 465.738 912.911 462.304C904.756 455.866 892.308 452.432 871.276 446.852C857.112 442.989 839.943 438.267 821.057 431.829C810.755 428.395 800.883 424.532 791.869 420.24C751.522 401.783 733.495 395.345 714.609 395.345Z" fill="#682321"/>
</g>
</g>
<circle cx="701.732" cy="701.203" r="18.6121" fill="#111111"/>
<g style="mix-blend-mode:hard-light">
<circle cx="701.732" cy="701.203" r="701.033" fill="url(#paint14_linear_815_1776)" fill-opacity="0.1"/>
</g>
</g>
<defs>
<filter id="filter0_d_815_1776" x="0.698975" y="0.17041" width="1410.07" height="1410.07" filterUnits="userSpaceOnUse" color-interpolation-filters="sRGB">
<feFlood flood-opacity="0" result="BackgroundImageFix"/>
<feColorMatrix in="SourceAlpha" type="matrix" values="0 0 0 0 0 0 0 0 0 0 0 0 0 0 0 0 0 0 127 0" result="hardAlpha"/>
<feOffset dx="4" dy="4"/>
<feGaussianBlur stdDeviation="2"/>
<feComposite in2="hardAlpha" operator="out"/>
<feColorMatrix type="matrix" values="0 0 0 0 0 0 0 0 0 0 0 0 0 0 0 0 0 0 0.25 0"/>
<feBlend mode="normal" in2="BackgroundImageFix" result="effect1_dropShadow_815_1776"/>
<feBlend mode="normal" in="SourceGraphic" in2="effect1_dropShadow_815_1776" result="shape"/>
</filter>
<linearGradient id="paint0_linear_815_1776" x1="726.8" y1="710.104" x2="730.088" y2="502.98" gradientUnits="userSpaceOnUse">
<stop stop-color="#BB5A3B"/>
<stop offset="0.2251" stop-color="#A43F2B"/>
</linearGradient>
<linearGradient id="paint1_linear_815_1776" x1="566.859" y1="744.234" x2="604.951" y2="744.234" gradientUnits="userSpaceOnUse">
<stop stop-color="#BB5A3B"/>
<stop offset="1" stop-color="#BB5A3B"/>
</linearGradient>
<linearGradient id="paint2_linear_815_1776" x1="705.424" y1="861.67" x2="707.426" y2="821.631" gradientUnits="userSpaceOnUse">
<stop offset="0.3924" stop-color="#FAB180"/>
<stop offset="0.7025" stop-color="#ED8D5D"/>
</linearGradient>
<linearGradient id="paint3_linear_815_1776" x1="694.418" y1="798.282" x2="695.88" y2="540.381" gradientUnits="userSpaceOnUse">
<stop offset="0.3924" stop-color="#FAB180"/>
<stop offset="0.7025" stop-color="#ED8D5D"/>
</linearGradient>
<linearGradient id="paint4_linear_815_1776" x1="608.402" y1="694.723" x2="543.036" y2="678.704" gradientUnits="userSpaceOnUse">
<stop offset="0.4096" stop-color="#E75F5D" stop-opacity="0"/>
<stop offset="1" stop-color="#E75F5D"/>
</linearGradient>
<linearGradient id="paint5_linear_815_1776" x1="784.235" y1="690.208" x2="850.116" y2="664.036" gradientUnits="userSpaceOnUse">
<stop offset="0.4096" stop-color="#E75F5D" stop-opacity="0"/>
<stop offset="1" stop-color="#E75F5D"/>
</linearGradient>
<linearGradient id="paint6_linear_815_1776" x1="729.326" y1="685.061" x2="787.957" y2="685.061" gradientUnits="userSpaceOnUse">
<stop stop-color="#DEDED0"/>
<stop offset="0.2251" stop-color="#DEDED0"/>
</linearGradient>
<linearGradient id="paint7_linear_815_1776" x1="609.051" y1="689.118" x2="672.339" y2="689.118" gradientUnits="userSpaceOnUse">
<stop stop-color="#DEDED0"/>
<stop offset="0.2251" stop-color="#DEDED0"/>
</linearGradient>
<linearGradient id="paint8_linear_815_1776" x1="573.479" y1="587.991" x2="811.965" y2="587.991" gradientUnits="userSpaceOnUse">
<stop stop-color="#BB5A3B"/>
<stop offset="0.2251" stop-color="#A43F2B"/>
</linearGradient>
<linearGradient id="paint9_linear_815_1776" x1="478.384" y1="570.445" x2="586.724" y2="570.445" gradientUnits="userSpaceOnUse">
<stop stop-color="#EA7425" stop-opacity="0"/>
<stop offset="1" stop-color="#EA7425"/>
</linearGradient>
<linearGradient id="paint10_linear_815_1776" x1="771.288" y1="540.124" x2="851.177" y2="540.124" gradientUnits="userSpaceOnUse">
<stop stop-color="#EA7425" stop-opacity="0"/>
<stop offset="1" stop-color="#EA7425"/>
</linearGradient>
<linearGradient id="paint11_linear_815_1776" x1="761.196" y1="500.523" x2="904.689" y2="500.523" gradientUnits="userSpaceOnUse">
<stop stop-color="#EA7425" stop-opacity="0"/>
<stop offset="1" stop-color="#EA7425"/>
</linearGradient>
<linearGradient id="paint12_linear_815_1776" x1="707.756" y1="803.588" x2="712.87" y2="1025.69" gradientUnits="userSpaceOnUse">
<stop offset="0.2872" stop-color="#DEDED0"/>
<stop offset="0.7305" stop-color="#CCCCCB"/>
</linearGradient>
<linearGradient id="paint13_linear_815_1776" x1="703.194" y1="945.483" x2="701.364" y2="1132.44" gradientUnits="userSpaceOnUse">
<stop stop-color="#CCCCCB"/>
<stop offset="0.348" stop-color="#DEDED0"/>
</linearGradient>
<linearGradient id="paint14_linear_815_1776" x1="345.734" y1="115.426" x2="1122.47" y2="1241.22" gradientUnits="userSpaceOnUse">
<stop offset="0.0726478" stop-color="#111111" stop-opacity="0"/>
<stop offset="0.455" stop-color="white"/>
<stop offset="0.779799" stop-color="white" stop-opacity="0"/>
</linearGradient>
</defs>
</svg>
