<svg width="512" height="512" viewBox="0 0 512 512" fill="none" xmlns="http://www.w3.org/2000/svg">
<g clip-path="url(#clip0_829_1195)">
<path d="M188.821 377.6C226.311 415.091 287.095 415.091 324.586 377.601L324.587 377.6L393.11 309.077C405.822 296.799 406.174 276.541 393.896 263.829C381.618 251.117 361.36 250.765 348.648 263.043C348.381 263.3 348.119 263.563 347.862 263.829L288.491 323.178L288 32C288 14.327 273.673 0 256 0C238.327 0 224 14.327 224 32L224.448 322.709L165.547 263.808C152.835 251.53 132.577 251.882 120.299 264.594C108.322 276.995 108.322 296.655 120.299 309.056L188.821 377.6Z" fill="#E8E6E3"/>
<path d="M480 309.333C462.327 309.333 448 323.66 448 341.333V439.274C447.988 444.088 444.089 447.988 439.275 447.999H72.725C67.911 447.987 64.011 444.088 64 439.274V341.333C64 323.66 49.673 309.333 32 309.333C14.327 309.333 0 323.66 0 341.333V439.274C0.047 479.42 32.58 511.953 72.725 512H439.274C479.42 511.953 511.952 479.42 511.999 439.275V341.334C512 323.66 497.673 309.333 480 309.333Z" fill="#E8E6E3"/>
</g>
<defs>
<clipPath id="clip0_829_1195">
<rect width="512" height="512" fill="white"/>
</clipPath>
</defs>
</svg>
