<svg width="401" height="401" viewBox="0 0 401 401" fill="none" xmlns="http://www.w3.org/2000/svg">
<path d="M320.426 40.1707C347.771 40.1707 375.116 43.9864 400.553 51.6175V136.196C375.752 126.021 349.043 120.298 320.426 120.298C202.779 120.298 107.389 215.687 107.389 333.335C107.389 356.864 111.205 379.121 118.2 400.107H34.8934C29.806 378.486 27.2623 356.228 27.2623 333.335C27.2623 271.649 46.3402 212.508 81.9523 162.905C66.69 156.546 52.0636 147.007 39.9809 134.288C14.5437 109.487 0.553223 75.7828 0.553223 40.1707C0.553223 26.8162 3.09694 13.4617 6.91252 0.107178H94.0349C83.8601 10.282 80.6804 26.1803 80.6804 40.1707C80.6804 54.7971 86.4038 68.1517 96.5787 78.3266C114.385 96.1326 143.002 99.3123 163.351 85.9577C209.774 56.069 263.828 40.1707 320.426 40.1707Z" fill="url(#paint0_linear_809_367)"/>
<path d="M347.747 257.125C347.747 269.864 343.606 281.647 336.282 291.52C343.606 302.985 347.747 316.361 347.747 330.373C347.747 368.908 316.536 400.437 277.683 400.437C264.626 400.437 258.893 399.482 247.747 393.749V353.622C254.116 359.354 263.67 360.31 274.498 360.31C294.88 360.31 307.938 346.934 307.938 330.373C307.938 320.819 303.479 312.221 296.154 306.488C290.422 302.348 287.237 295.342 287.874 288.335C288.511 281.329 292.651 274.959 299.02 271.775C304.434 268.908 307.938 263.176 307.938 257.125C307.938 247.889 300.931 240.246 289.785 240.246C280.549 240.246 272.906 243.749 264.307 251.074V206.807C270.677 202.348 278.638 200.119 291.059 200.119C322.587 200.119 347.747 225.596 347.747 257.125Z" fill="url(#paint1_linear_809_367)"/>
<defs>
<linearGradient id="paint0_linear_809_367" x1="200.553" y1="0.107178" x2="200.553" y2="400.107" gradientUnits="userSpaceOnUse">
<stop stop-color="#F48634"/>
<stop offset="1" stop-color="#C54A2A"/>
</linearGradient>
<linearGradient id="paint1_linear_809_367" x1="297.747" y1="200.119" x2="297.747" y2="400.437" gradientUnits="userSpaceOnUse">
<stop stop-color="#F48634"/>
<stop offset="1" stop-color="#C54A2A"/>
</linearGradient>
</defs>
</svg>
