<svg width="90" height="89" viewBox="0 0 90 89" fill="none" xmlns="http://www.w3.org/2000/svg">
<path fill-rule="evenodd" clip-rule="evenodd" d="M55.9878 1.55165C55.053 1.31905 54.1045 1.11519 53.1431 0.941059C29.0481 -3.42308 5.97729 12.572 1.61327 36.667C-2.75098 60.762 13.2441 83.8328 37.3391 88.1969C61.4341 92.5611 84.5049 76.566 88.8691 52.471C89.6919 47.9278 89.7913 43.421 89.2485 39.0691L55.9878 1.55165Z" fill="#E8E6E3"/>
<circle cx="45.2409" cy="44.5689" r="34.3697" transform="rotate(10.2662 45.2409 44.5689)" fill="#F38534"/>
<mask id="mask0_810_664" style="mask-type:alpha" maskUnits="userSpaceOnUse" x="10" y="10" width="70" height="69">
<circle cx="45.2409" cy="44.5689" r="34.3697" transform="rotate(10.2662 45.2409 44.5689)" fill="#F38534"/>
</mask>
<g mask="url(#mask0_810_664)">
<g style="mix-blend-mode:soft-light">
<mask id="path-4-outside-1_810_664" maskUnits="userSpaceOnUse" x="-16.4581" y="-9.54957" width="108.36" height="107.791" fill="black">
<rect fill="white" x="-16.4581" y="-9.54957" width="108.36" height="107.791"/>
<path d="M30.9082 -0.680215L29.9292 1.83878L29.5963 1.7094C28.7489 1.38008 27.8462 1.64109 27.5948 2.28817L23.8946 11.8095C22.6372 15.0449 18.8563 15.81 15.1034 14.3516L9.14119 12.0345L13.5599 0.664363L12.0163 0.0645191L12.9953 -2.45448L14.5388 -1.85463L15.3112 -3.8421L13.7676 -4.44194L14.7466 -6.96094L20.164 -4.8556L13.9941 11.021L16.0824 11.8326C17.6864 12.4559 19.374 11.9679 19.85 10.7431L23.5502 1.22177C24.592 -1.459 27.579 -1.974 30.5752 -0.809594L30.9082 -0.680215Z"/>
<path d="M36.0409 7.80496L33.0592 15.4775C32.5832 16.7023 33.4985 18.2018 35.1025 18.8252L35.5565 19.0016C36.3131 19.2956 37.1293 19.3468 37.8267 19.1657L39.3091 18.7575C41.6157 18.1111 43.2603 18.2714 45.6513 19.2006L44.5017 22.1587C43.1398 21.6294 42.5714 21.5681 41.2067 21.9422L39.7244 22.3503C38.085 22.8039 36.1836 22.6767 34.3979 21.9828L33.944 21.8064C30.2214 20.3597 27.8382 17.4385 29.1763 13.9951L34.3584 0.660613L38.2323 2.1661L37.8282 3.20606C37.3522 4.43089 38.2674 5.93037 39.8714 6.55374L40.3254 6.73017C41.0821 7.02421 41.8982 7.07539 42.5957 6.89422L44.0781 6.48609C46.3936 5.81654 48.0382 5.97688 50.4292 6.90605L49.2796 9.86414C47.9177 9.33486 47.3493 9.27357 45.9846 9.64766L44.5023 10.0558C42.8629 10.5093 40.9615 10.3822 39.1759 9.68825L38.7219 9.51183C37.6929 9.11193 36.7929 8.46959 36.0409 7.80496ZM37.0049 25.7624L35.2389 26.273L36.1966 27.8423L34.4306 28.3529L33.4728 26.7837L31.7067 27.2944L30.7489 25.7252L32.515 25.2145L31.5572 23.6453L33.3233 23.1346L34.2811 24.7038L36.0471 24.1931L37.0049 25.7624Z"/>
<path d="M67.8014 20.2009L66.6518 23.159L63.4437 21.9123C61.9002 21.3124 60.9672 21.5617 59.3222 22.1194C57.5595 22.7112 55.356 23.4509 52.0874 22.1806L48.9096 20.9456L50.0591 17.9876L53.237 19.2225C54.72 19.7989 55.6226 19.5378 57.2284 18.9915C58.9127 18.4224 61.2338 17.6486 64.563 18.9424L67.8014 20.2009ZM58.9332 13.3497C59.2475 12.5409 60.3857 12.2118 61.4449 12.6234C62.5042 13.0351 63.1215 14.0464 62.8071 14.8552C62.4928 15.6641 61.3547 15.9932 60.2954 15.5815C59.2361 15.1698 58.6099 14.1817 58.9332 13.3497Z"/>
<path d="M86.4144 20.8907L89.6528 22.1492L88.5032 25.1072L85.2648 23.8487C83.9634 23.343 83.0934 23.4305 81.898 23.8171L78.8804 31.5821C79.8053 31.6224 80.8457 31.8139 81.9957 32.2608L85.2341 33.5193L84.0845 36.4774L80.8462 35.2189C79.3026 34.619 78.3697 34.8683 76.7247 35.426C74.9619 36.0178 72.7585 36.7575 69.4899 35.4872L66.312 34.2523L67.4616 31.2942L70.6394 32.5292C71.9408 33.0349 72.7896 32.9126 74.0242 32.5145L77.0239 24.7958C76.0989 24.7555 75.0586 24.564 73.9085 24.1171L70.7307 22.8821L71.8803 19.924L75.0581 21.159C76.5411 21.7353 77.4438 21.4743 79.0495 20.9279C80.7641 20.3706 83.0853 19.5969 86.4144 20.8907Z"/>
<path d="M21.2805 24.0938L20.3016 26.6128L19.9686 26.4834C19.1212 26.1541 18.2186 26.4151 17.9671 27.0621L14.2669 36.5835C13.0095 39.8189 9.22862 40.584 5.47575 39.1255L-0.486483 36.8085L3.93219 25.4383L2.38867 24.8385L3.3676 22.3195L4.91112 22.9193L5.68349 20.9319L4.13997 20.332L5.11891 17.813L10.5364 19.9184L4.35741 35.8181L6.4457 36.6296C8.04975 37.253 9.73734 36.765 10.2133 35.5402L13.9135 26.0189C14.9553 23.3381 17.9423 22.8231 20.9386 23.9875L21.2715 24.1169L21.2805 24.0938Z"/>
<path d="M26.4133 32.5789L23.4316 40.2515C22.9556 41.4763 23.8708 42.9758 25.4748 43.5992L25.9288 43.7756C26.6854 44.0696 27.5016 44.1208 28.1991 43.9396L29.6814 43.5315C31.988 42.8851 33.6326 43.0454 36.0236 43.9746L34.874 46.9327C33.5121 46.4034 32.9437 46.3421 31.579 46.7162L30.0967 47.1243C28.4573 47.5778 26.5559 47.4507 24.7703 46.7568L24.3163 46.5804C20.5937 45.1337 18.2105 42.2125 19.5487 38.7691L24.7127 25.4808L28.5867 26.9863L28.1825 28.0263C27.7065 29.2511 28.6218 30.7506 30.2258 31.3739L30.6798 31.5504C31.4364 31.8444 32.2526 31.8956 32.95 31.7144L34.4324 31.3063C36.739 30.6598 38.3836 30.8202 40.7746 31.7494L39.6519 34.6381C38.29 34.1088 37.7216 34.0476 36.357 34.4216L34.8746 34.8298C33.2352 35.2833 31.3338 35.1562 29.5482 34.4622L29.0942 34.2858C28.0652 33.8859 27.1652 33.2436 26.4133 32.5789ZM27.3683 50.5595L25.6022 51.0701L26.56 52.6394L24.7939 53.15L23.8361 51.5808L22.07 52.0915L21.1123 50.5223L22.8783 50.0116L21.9205 48.4424L23.6866 47.9317L24.6444 49.5009L26.4105 48.9902L27.3683 50.5595Z"/>
<path d="M58.1647 44.998L57.0151 47.9561L53.807 46.7094C52.2635 46.1095 51.3306 46.3588 49.6856 46.9165C47.9228 47.5083 45.7194 48.248 42.4507 46.9777L39.2729 45.7427L40.4225 42.7846L43.6003 44.0196C45.0833 44.5959 45.986 44.3349 47.5917 43.7886C49.276 43.2195 51.5972 42.4457 54.9263 43.7395L58.1647 44.998ZM49.2965 38.1468C49.6109 37.338 50.749 37.0089 51.8083 37.4205C52.8676 37.8322 53.4848 38.8434 53.1705 39.6523C52.8561 40.4612 51.718 40.7903 50.6587 40.3786C49.5994 39.9669 48.9822 38.9557 49.2965 38.1468Z"/>
<path d="M76.7867 45.6646L80.0251 46.9231L78.8755 49.8812L75.6372 48.6227C74.3358 48.117 73.4657 48.2045 72.2704 48.5911L69.2527 56.3561C70.1777 56.3963 71.218 56.5878 72.3681 57.0348L75.6064 58.2933L74.4569 61.2514L71.2185 59.9929C69.675 59.393 68.742 59.6423 67.097 60.2C65.3343 60.7918 63.1308 61.5315 59.8622 60.2612L56.6844 59.0263L57.8339 56.0682L61.0118 57.3031C62.3132 57.8089 63.1619 57.6865 64.3965 57.2885L67.3962 49.5698C66.4713 49.5295 65.4309 49.338 64.2809 48.8911L61.103 47.6561L62.2526 44.698L65.4304 45.933C66.9134 46.5093 67.8161 46.2483 69.4219 45.7019C71.1274 45.1677 73.4576 44.3709 76.7867 45.6646Z"/>
<path d="M11.6438 48.8909L10.6649 51.4098L10.332 51.2805C9.48455 50.9511 8.58189 51.2122 8.33042 51.8592L4.63023 61.3806C3.37289 64.616 -0.408034 65.3811 -4.16091 63.9226L-10.1231 61.6056L-5.70447 50.2354L-7.24799 49.6356L-6.26906 47.1166L-4.72553 47.7164L-3.95316 45.729L-5.49669 45.1291L-4.51775 42.6101L0.899705 44.7155L-5.27027 60.5921L-3.18198 61.4036C-1.57793 62.027 0.109661 61.539 0.585656 60.3142L4.28585 50.7928C5.32765 48.1121 8.31466 47.5971 11.3109 48.7615L11.6438 48.8909Z"/>
<path d="M16.7856 57.3529L13.8039 65.0255C13.3279 66.2503 14.2431 67.7498 15.8472 68.3731L16.3011 68.5496C17.0578 68.8436 17.8739 68.8948 18.5714 68.7136L20.0538 68.3055C22.3603 67.659 24.005 67.8194 26.3959 68.7486L25.2463 71.7066C23.8844 71.1774 23.316 71.1161 21.9514 71.4902L20.469 71.8983C18.8296 72.3518 16.9282 72.2247 15.1426 71.5308L14.6886 71.3543C10.966 69.9077 8.5828 66.9865 9.92097 63.5431L15.0851 50.2548L18.959 51.7603L18.5549 52.8002C18.0789 54.0251 18.9941 55.5245 20.5981 56.1479L21.0521 56.3243C21.8087 56.6184 22.6249 56.6696 23.3224 56.4884L24.8047 56.0803C27.1113 55.4338 28.7559 55.5942 31.1469 56.5233L29.9973 59.4814C28.6354 58.9522 28.067 58.8909 26.7023 59.2649L25.22 59.6731C23.5806 60.1266 21.6792 59.9995 19.8936 59.3055L19.4396 59.1291C18.4375 58.6599 17.5375 58.0175 16.7856 57.3529ZM17.7406 75.3334L15.9745 75.8441L16.9323 77.4133L15.1662 77.924L14.2084 76.3548L12.4424 76.8655L11.4846 75.2962L13.2507 74.7856L12.2929 73.2163L14.059 72.7057L15.0167 74.2749L16.7828 73.7642L17.7406 75.3334Z"/>
<path d="M48.537 69.772L47.3875 72.7301L44.1794 71.4833C42.6358 70.8835 41.7029 71.1327 40.0579 71.6905C38.2951 72.2822 36.0917 73.0219 32.8231 71.7517L29.6452 70.5167L30.7948 67.5586L33.9726 68.7936C35.4556 69.3699 36.3583 69.1089 37.9641 68.5625C39.6483 67.9935 41.9695 67.2197 45.2987 68.5135L48.537 69.772ZM39.6689 62.9208C39.9832 62.1119 41.1213 61.7828 42.1806 62.1945C43.2399 62.6061 43.8571 63.6174 43.5428 64.4263C43.2285 65.2351 42.0903 65.5642 41.031 65.1526C39.9718 64.7409 39.3545 63.7296 39.6689 62.9208Z"/>
<path d="M67.1501 70.4617L70.3884 71.7202L69.2389 74.6783L66.0005 73.4198C64.6991 72.9141 63.829 73.0015 62.6337 73.3882L59.6161 81.1532C60.541 81.1934 61.5813 81.3849 62.7314 81.8319L65.9698 83.0904L64.8202 86.0485L61.5818 84.79C60.0383 84.1901 59.1054 84.4394 57.4604 84.9971C55.6976 85.5889 53.4942 86.3286 50.2255 85.0583L47.0477 83.8233L48.1973 80.8652L51.3751 82.1002C52.6765 82.606 53.5253 82.4836 54.7599 82.0856L57.7595 74.3668C56.8346 74.3266 55.7943 74.1351 54.6442 73.6882L51.4664 72.4532L52.6159 69.4951L55.7938 70.7301C57.2768 71.3064 58.1794 71.0454 59.7852 70.499C61.4997 69.9417 63.8209 69.1679 67.1501 70.4617Z"/>
</mask>
<path d="M30.9082 -0.680215L29.9292 1.83878L29.5963 1.7094C28.7489 1.38008 27.8462 1.64109 27.5948 2.28817L23.8946 11.8095C22.6372 15.0449 18.8563 15.81 15.1034 14.3516L9.14119 12.0345L13.5599 0.664363L12.0163 0.0645191L12.9953 -2.45448L14.5388 -1.85463L15.3112 -3.8421L13.7676 -4.44194L14.7466 -6.96094L20.164 -4.8556L13.9941 11.021L16.0824 11.8326C17.6864 12.4559 19.374 11.9679 19.85 10.7431L23.5502 1.22177C24.592 -1.459 27.579 -1.974 30.5752 -0.809594L30.9082 -0.680215Z" fill="#FFD5D3"/>
<path d="M36.0409 7.80496L33.0592 15.4775C32.5832 16.7023 33.4985 18.2018 35.1025 18.8252L35.5565 19.0016C36.3131 19.2956 37.1293 19.3468 37.8267 19.1657L39.3091 18.7575C41.6157 18.1111 43.2603 18.2714 45.6513 19.2006L44.5017 22.1587C43.1398 21.6294 42.5714 21.5681 41.2067 21.9422L39.7244 22.3503C38.085 22.8039 36.1836 22.6767 34.3979 21.9828L33.944 21.8064C30.2214 20.3597 27.8382 17.4385 29.1763 13.9951L34.3584 0.660613L38.2323 2.1661L37.8282 3.20606C37.3522 4.43089 38.2674 5.93037 39.8714 6.55374L40.3254 6.73017C41.0821 7.02421 41.8982 7.07539 42.5957 6.89422L44.0781 6.48609C46.3936 5.81654 48.0382 5.97688 50.4292 6.90605L49.2796 9.86414C47.9177 9.33486 47.3493 9.27357 45.9846 9.64766L44.5023 10.0558C42.8629 10.5093 40.9615 10.3822 39.1759 9.68825L38.7219 9.51183C37.6929 9.11193 36.7929 8.46959 36.0409 7.80496ZM37.0049 25.7624L35.2389 26.273L36.1966 27.8423L34.4306 28.3529L33.4728 26.7837L31.7067 27.2944L30.7489 25.7252L32.515 25.2145L31.5572 23.6453L33.3233 23.1346L34.2811 24.7038L36.0471 24.1931L37.0049 25.7624Z" fill="#FFD5D3"/>
<path d="M67.8014 20.2009L66.6518 23.159L63.4437 21.9123C61.9002 21.3124 60.9672 21.5617 59.3222 22.1194C57.5595 22.7112 55.356 23.4509 52.0874 22.1806L48.9096 20.9456L50.0591 17.9876L53.237 19.2225C54.72 19.7989 55.6226 19.5378 57.2284 18.9915C58.9127 18.4224 61.2338 17.6486 64.563 18.9424L67.8014 20.2009ZM58.9332 13.3497C59.2475 12.5409 60.3857 12.2118 61.4449 12.6234C62.5042 13.0351 63.1215 14.0464 62.8071 14.8552C62.4928 15.6641 61.3547 15.9932 60.2954 15.5815C59.2361 15.1698 58.6099 14.1817 58.9332 13.3497Z" fill="#FFD5D3"/>
<path d="M86.4144 20.8907L89.6528 22.1492L88.5032 25.1072L85.2648 23.8487C83.9634 23.343 83.0934 23.4305 81.898 23.8171L78.8804 31.5821C79.8053 31.6224 80.8457 31.8139 81.9957 32.2608L85.2341 33.5193L84.0845 36.4774L80.8462 35.2189C79.3026 34.619 78.3697 34.8683 76.7247 35.426C74.9619 36.0178 72.7585 36.7575 69.4899 35.4872L66.312 34.2523L67.4616 31.2942L70.6394 32.5292C71.9408 33.0349 72.7896 32.9126 74.0242 32.5145L77.0239 24.7958C76.0989 24.7555 75.0586 24.564 73.9085 24.1171L70.7307 22.8821L71.8803 19.924L75.0581 21.159C76.5411 21.7353 77.4438 21.4743 79.0495 20.9279C80.7641 20.3706 83.0853 19.5969 86.4144 20.8907Z" fill="#FFD5D3"/>
<path d="M21.2805 24.0938L20.3016 26.6128L19.9686 26.4834C19.1212 26.1541 18.2186 26.4151 17.9671 27.0621L14.2669 36.5835C13.0095 39.8189 9.22862 40.584 5.47575 39.1255L-0.486483 36.8085L3.93219 25.4383L2.38867 24.8385L3.3676 22.3195L4.91112 22.9193L5.68349 20.9319L4.13997 20.332L5.11891 17.813L10.5364 19.9184L4.35741 35.8181L6.4457 36.6296C8.04975 37.253 9.73734 36.765 10.2133 35.5402L13.9135 26.0189C14.9553 23.3381 17.9423 22.8231 20.9386 23.9875L21.2715 24.1169L21.2805 24.0938Z" fill="#FFD5D3"/>
<path d="M26.4133 32.5789L23.4316 40.2515C22.9556 41.4763 23.8708 42.9758 25.4748 43.5992L25.9288 43.7756C26.6854 44.0696 27.5016 44.1208 28.1991 43.9396L29.6814 43.5315C31.988 42.8851 33.6326 43.0454 36.0236 43.9746L34.874 46.9327C33.5121 46.4034 32.9437 46.3421 31.579 46.7162L30.0967 47.1243C28.4573 47.5778 26.5559 47.4507 24.7703 46.7568L24.3163 46.5804C20.5937 45.1337 18.2105 42.2125 19.5487 38.7691L24.7127 25.4808L28.5867 26.9863L28.1825 28.0263C27.7065 29.2511 28.6218 30.7506 30.2258 31.3739L30.6798 31.5504C31.4364 31.8444 32.2526 31.8956 32.95 31.7144L34.4324 31.3063C36.739 30.6598 38.3836 30.8202 40.7746 31.7494L39.6519 34.6381C38.29 34.1088 37.7216 34.0476 36.357 34.4216L34.8746 34.8298C33.2352 35.2833 31.3338 35.1562 29.5482 34.4622L29.0942 34.2858C28.0652 33.8859 27.1652 33.2436 26.4133 32.5789ZM27.3683 50.5595L25.6022 51.0701L26.56 52.6394L24.7939 53.15L23.8361 51.5808L22.07 52.0915L21.1123 50.5223L22.8783 50.0116L21.9205 48.4424L23.6866 47.9317L24.6444 49.5009L26.4105 48.9902L27.3683 50.5595Z" fill="#FFD5D3"/>
<path d="M58.1647 44.998L57.0151 47.9561L53.807 46.7094C52.2635 46.1095 51.3306 46.3588 49.6856 46.9165C47.9228 47.5083 45.7194 48.248 42.4507 46.9777L39.2729 45.7427L40.4225 42.7846L43.6003 44.0196C45.0833 44.5959 45.986 44.3349 47.5917 43.7886C49.276 43.2195 51.5972 42.4457 54.9263 43.7395L58.1647 44.998ZM49.2965 38.1468C49.6109 37.338 50.749 37.0089 51.8083 37.4205C52.8676 37.8322 53.4848 38.8434 53.1705 39.6523C52.8561 40.4612 51.718 40.7903 50.6587 40.3786C49.5994 39.9669 48.9822 38.9557 49.2965 38.1468Z" fill="#FFD5D3"/>
<path d="M76.7867 45.6646L80.0251 46.9231L78.8755 49.8812L75.6372 48.6227C74.3358 48.117 73.4657 48.2045 72.2704 48.5911L69.2527 56.3561C70.1777 56.3963 71.218 56.5878 72.3681 57.0348L75.6064 58.2933L74.4569 61.2514L71.2185 59.9929C69.675 59.393 68.742 59.6423 67.097 60.2C65.3343 60.7918 63.1308 61.5315 59.8622 60.2612L56.6844 59.0263L57.8339 56.0682L61.0118 57.3031C62.3132 57.8089 63.1619 57.6865 64.3965 57.2885L67.3962 49.5698C66.4713 49.5295 65.4309 49.338 64.2809 48.8911L61.103 47.6561L62.2526 44.698L65.4304 45.933C66.9134 46.5093 67.8161 46.2483 69.4219 45.7019C71.1274 45.1677 73.4576 44.3709 76.7867 45.6646Z" fill="#FFD5D3"/>
<path d="M11.6438 48.8909L10.6649 51.4098L10.332 51.2805C9.48455 50.9511 8.58189 51.2122 8.33042 51.8592L4.63023 61.3806C3.37289 64.616 -0.408034 65.3811 -4.16091 63.9226L-10.1231 61.6056L-5.70447 50.2354L-7.24799 49.6356L-6.26906 47.1166L-4.72553 47.7164L-3.95316 45.729L-5.49669 45.1291L-4.51775 42.6101L0.899705 44.7155L-5.27027 60.5921L-3.18198 61.4036C-1.57793 62.027 0.109661 61.539 0.585656 60.3142L4.28585 50.7928C5.32765 48.1121 8.31466 47.5971 11.3109 48.7615L11.6438 48.8909Z" fill="#FFD5D3"/>
<path d="M16.7856 57.3529L13.8039 65.0255C13.3279 66.2503 14.2431 67.7498 15.8472 68.3731L16.3011 68.5496C17.0578 68.8436 17.8739 68.8948 18.5714 68.7136L20.0538 68.3055C22.3603 67.659 24.005 67.8194 26.3959 68.7486L25.2463 71.7066C23.8844 71.1774 23.316 71.1161 21.9514 71.4902L20.469 71.8983C18.8296 72.3518 16.9282 72.2247 15.1426 71.5308L14.6886 71.3543C10.966 69.9077 8.5828 66.9865 9.92097 63.5431L15.0851 50.2548L18.959 51.7603L18.5549 52.8002C18.0789 54.0251 18.9941 55.5245 20.5981 56.1479L21.0521 56.3243C21.8087 56.6184 22.6249 56.6696 23.3224 56.4884L24.8047 56.0803C27.1113 55.4338 28.7559 55.5942 31.1469 56.5233L29.9973 59.4814C28.6354 58.9522 28.067 58.8909 26.7023 59.2649L25.22 59.6731C23.5806 60.1266 21.6792 59.9995 19.8936 59.3055L19.4396 59.1291C18.4375 58.6599 17.5375 58.0175 16.7856 57.3529ZM17.7406 75.3334L15.9745 75.8441L16.9323 77.4133L15.1662 77.924L14.2084 76.3548L12.4424 76.8655L11.4846 75.2962L13.2507 74.7856L12.2929 73.2163L14.059 72.7057L15.0167 74.2749L16.7828 73.7642L17.7406 75.3334Z" fill="#FFD5D3"/>
<path d="M48.537 69.772L47.3875 72.7301L44.1794 71.4833C42.6358 70.8835 41.7029 71.1327 40.0579 71.6905C38.2951 72.2822 36.0917 73.0219 32.8231 71.7517L29.6452 70.5167L30.7948 67.5586L33.9726 68.7936C35.4556 69.3699 36.3583 69.1089 37.9641 68.5625C39.6483 67.9935 41.9695 67.2197 45.2987 68.5135L48.537 69.772ZM39.6689 62.9208C39.9832 62.1119 41.1213 61.7828 42.1806 62.1945C43.2399 62.6061 43.8571 63.6174 43.5428 64.4263C43.2285 65.2351 42.0903 65.5642 41.031 65.1526C39.9718 64.7409 39.3545 63.7296 39.6689 62.9208Z" fill="#FFD5D3"/>
<path d="M67.1501 70.4617L70.3884 71.7202L69.2389 74.6783L66.0005 73.4198C64.6991 72.9141 63.829 73.0015 62.6337 73.3882L59.6161 81.1532C60.541 81.1934 61.5813 81.3849 62.7314 81.8319L65.9698 83.0904L64.8202 86.0485L61.5818 84.79C60.0383 84.1901 59.1054 84.4394 57.4604 84.9971C55.6976 85.5889 53.4942 86.3286 50.2255 85.0583L47.0477 83.8233L48.1973 80.8652L51.3751 82.1002C52.6765 82.606 53.5253 82.4836 54.7599 82.0856L57.7595 74.3668C56.8346 74.3266 55.7943 74.1351 54.6442 73.6882L51.4664 72.4532L52.6159 69.4951L55.7938 70.7301C57.2768 71.3064 58.1794 71.0454 59.7852 70.499C61.4997 69.9417 63.8209 69.1679 67.1501 70.4617Z" fill="#FFD5D3"/>
<path d="M30.9082 -0.680215L29.9292 1.83878L29.5963 1.7094C28.7489 1.38008 27.8462 1.64109 27.5948 2.28817L23.8946 11.8095C22.6372 15.0449 18.8563 15.81 15.1034 14.3516L9.14119 12.0345L13.5599 0.664363L12.0163 0.0645191L12.9953 -2.45448L14.5388 -1.85463L15.3112 -3.8421L13.7676 -4.44194L14.7466 -6.96094L20.164 -4.8556L13.9941 11.021L16.0824 11.8326C17.6864 12.4559 19.374 11.9679 19.85 10.7431L23.5502 1.22177C24.592 -1.459 27.579 -1.974 30.5752 -0.809594L30.9082 -0.680215Z" stroke="#FFD5D3" stroke-width="2.18362" mask="url(#path-4-outside-1_810_664)"/>
<path d="M36.0409 7.80496L33.0592 15.4775C32.5832 16.7023 33.4985 18.2018 35.1025 18.8252L35.5565 19.0016C36.3131 19.2956 37.1293 19.3468 37.8267 19.1657L39.3091 18.7575C41.6157 18.1111 43.2603 18.2714 45.6513 19.2006L44.5017 22.1587C43.1398 21.6294 42.5714 21.5681 41.2067 21.9422L39.7244 22.3503C38.085 22.8039 36.1836 22.6767 34.3979 21.9828L33.944 21.8064C30.2214 20.3597 27.8382 17.4385 29.1763 13.9951L34.3584 0.660613L38.2323 2.1661L37.8282 3.20606C37.3522 4.43089 38.2674 5.93037 39.8714 6.55374L40.3254 6.73017C41.0821 7.02421 41.8982 7.07539 42.5957 6.89422L44.0781 6.48609C46.3936 5.81654 48.0382 5.97688 50.4292 6.90605L49.2796 9.86414C47.9177 9.33486 47.3493 9.27357 45.9846 9.64766L44.5023 10.0558C42.8629 10.5093 40.9615 10.3822 39.1759 9.68825L38.7219 9.51183C37.6929 9.11193 36.7929 8.46959 36.0409 7.80496ZM37.0049 25.7624L35.2389 26.273L36.1966 27.8423L34.4306 28.3529L33.4728 26.7837L31.7067 27.2944L30.7489 25.7252L32.515 25.2145L31.5572 23.6453L33.3233 23.1346L34.2811 24.7038L36.0471 24.1931L37.0049 25.7624Z" stroke="#FFD5D3" stroke-width="2.18362" mask="url(#path-4-outside-1_810_664)"/>
<path d="M67.8014 20.2009L66.6518 23.159L63.4437 21.9123C61.9002 21.3124 60.9672 21.5617 59.3222 22.1194C57.5595 22.7112 55.356 23.4509 52.0874 22.1806L48.9096 20.9456L50.0591 17.9876L53.237 19.2225C54.72 19.7989 55.6226 19.5378 57.2284 18.9915C58.9127 18.4224 61.2338 17.6486 64.563 18.9424L67.8014 20.2009ZM58.9332 13.3497C59.2475 12.5409 60.3857 12.2118 61.4449 12.6234C62.5042 13.0351 63.1215 14.0464 62.8071 14.8552C62.4928 15.6641 61.3547 15.9932 60.2954 15.5815C59.2361 15.1698 58.6099 14.1817 58.9332 13.3497Z" stroke="#FFD5D3" stroke-width="2.18362" mask="url(#path-4-outside-1_810_664)"/>
<path d="M86.4144 20.8907L89.6528 22.1492L88.5032 25.1072L85.2648 23.8487C83.9634 23.343 83.0934 23.4305 81.898 23.8171L78.8804 31.5821C79.8053 31.6224 80.8457 31.8139 81.9957 32.2608L85.2341 33.5193L84.0845 36.4774L80.8462 35.2189C79.3026 34.619 78.3697 34.8683 76.7247 35.426C74.9619 36.0178 72.7585 36.7575 69.4899 35.4872L66.312 34.2523L67.4616 31.2942L70.6394 32.5292C71.9408 33.0349 72.7896 32.9126 74.0242 32.5145L77.0239 24.7958C76.0989 24.7555 75.0586 24.564 73.9085 24.1171L70.7307 22.8821L71.8803 19.924L75.0581 21.159C76.5411 21.7353 77.4438 21.4743 79.0495 20.9279C80.7641 20.3706 83.0853 19.5969 86.4144 20.8907Z" stroke="#FFD5D3" stroke-width="2.18362" mask="url(#path-4-outside-1_810_664)"/>
<path d="M21.2805 24.0938L20.3016 26.6128L19.9686 26.4834C19.1212 26.1541 18.2186 26.4151 17.9671 27.0621L14.2669 36.5835C13.0095 39.8189 9.22862 40.584 5.47575 39.1255L-0.486483 36.8085L3.93219 25.4383L2.38867 24.8385L3.3676 22.3195L4.91112 22.9193L5.68349 20.9319L4.13997 20.332L5.11891 17.813L10.5364 19.9184L4.35741 35.8181L6.4457 36.6296C8.04975 37.253 9.73734 36.765 10.2133 35.5402L13.9135 26.0189C14.9553 23.3381 17.9423 22.8231 20.9386 23.9875L21.2715 24.1169L21.2805 24.0938Z" stroke="#FFD5D3" stroke-width="2.18362" mask="url(#path-4-outside-1_810_664)"/>
<path d="M26.4133 32.5789L23.4316 40.2515C22.9556 41.4763 23.8708 42.9758 25.4748 43.5992L25.9288 43.7756C26.6854 44.0696 27.5016 44.1208 28.1991 43.9396L29.6814 43.5315C31.988 42.8851 33.6326 43.0454 36.0236 43.9746L34.874 46.9327C33.5121 46.4034 32.9437 46.3421 31.579 46.7162L30.0967 47.1243C28.4573 47.5778 26.5559 47.4507 24.7703 46.7568L24.3163 46.5804C20.5937 45.1337 18.2105 42.2125 19.5487 38.7691L24.7127 25.4808L28.5867 26.9863L28.1825 28.0263C27.7065 29.2511 28.6218 30.7506 30.2258 31.3739L30.6798 31.5504C31.4364 31.8444 32.2526 31.8956 32.95 31.7144L34.4324 31.3063C36.739 30.6598 38.3836 30.8202 40.7746 31.7494L39.6519 34.6381C38.29 34.1088 37.7216 34.0476 36.357 34.4216L34.8746 34.8298C33.2352 35.2833 31.3338 35.1562 29.5482 34.4622L29.0942 34.2858C28.0652 33.8859 27.1652 33.2436 26.4133 32.5789ZM27.3683 50.5595L25.6022 51.0701L26.56 52.6394L24.7939 53.15L23.8361 51.5808L22.07 52.0915L21.1123 50.5223L22.8783 50.0116L21.9205 48.4424L23.6866 47.9317L24.6444 49.5009L26.4105 48.9902L27.3683 50.5595Z" stroke="#FFD5D3" stroke-width="2.18362" mask="url(#path-4-outside-1_810_664)"/>
<path d="M58.1647 44.998L57.0151 47.9561L53.807 46.7094C52.2635 46.1095 51.3306 46.3588 49.6856 46.9165C47.9228 47.5083 45.7194 48.248 42.4507 46.9777L39.2729 45.7427L40.4225 42.7846L43.6003 44.0196C45.0833 44.5959 45.986 44.3349 47.5917 43.7886C49.276 43.2195 51.5972 42.4457 54.9263 43.7395L58.1647 44.998ZM49.2965 38.1468C49.6109 37.338 50.749 37.0089 51.8083 37.4205C52.8676 37.8322 53.4848 38.8434 53.1705 39.6523C52.8561 40.4612 51.718 40.7903 50.6587 40.3786C49.5994 39.9669 48.9822 38.9557 49.2965 38.1468Z" stroke="#FFD5D3" stroke-width="2.18362" mask="url(#path-4-outside-1_810_664)"/>
<path d="M76.7867 45.6646L80.0251 46.9231L78.8755 49.8812L75.6372 48.6227C74.3358 48.117 73.4657 48.2045 72.2704 48.5911L69.2527 56.3561C70.1777 56.3963 71.218 56.5878 72.3681 57.0348L75.6064 58.2933L74.4569 61.2514L71.2185 59.9929C69.675 59.393 68.742 59.6423 67.097 60.2C65.3343 60.7918 63.1308 61.5315 59.8622 60.2612L56.6844 59.0263L57.8339 56.0682L61.0118 57.3031C62.3132 57.8089 63.1619 57.6865 64.3965 57.2885L67.3962 49.5698C66.4713 49.5295 65.4309 49.338 64.2809 48.8911L61.103 47.6561L62.2526 44.698L65.4304 45.933C66.9134 46.5093 67.8161 46.2483 69.4219 45.7019C71.1274 45.1677 73.4576 44.3709 76.7867 45.6646Z" stroke="#FFD5D3" stroke-width="2.18362" mask="url(#path-4-outside-1_810_664)"/>
<path d="M11.6438 48.8909L10.6649 51.4098L10.332 51.2805C9.48455 50.9511 8.58189 51.2122 8.33042 51.8592L4.63023 61.3806C3.37289 64.616 -0.408034 65.3811 -4.16091 63.9226L-10.1231 61.6056L-5.70447 50.2354L-7.24799 49.6356L-6.26906 47.1166L-4.72553 47.7164L-3.95316 45.729L-5.49669 45.1291L-4.51775 42.6101L0.899705 44.7155L-5.27027 60.5921L-3.18198 61.4036C-1.57793 62.027 0.109661 61.539 0.585656 60.3142L4.28585 50.7928C5.32765 48.1121 8.31466 47.5971 11.3109 48.7615L11.6438 48.8909Z" stroke="#FFD5D3" stroke-width="2.18362" mask="url(#path-4-outside-1_810_664)"/>
<path d="M16.7856 57.3529L13.8039 65.0255C13.3279 66.2503 14.2431 67.7498 15.8472 68.3731L16.3011 68.5496C17.0578 68.8436 17.8739 68.8948 18.5714 68.7136L20.0538 68.3055C22.3603 67.659 24.005 67.8194 26.3959 68.7486L25.2463 71.7066C23.8844 71.1774 23.316 71.1161 21.9514 71.4902L20.469 71.8983C18.8296 72.3518 16.9282 72.2247 15.1426 71.5308L14.6886 71.3543C10.966 69.9077 8.5828 66.9865 9.92097 63.5431L15.0851 50.2548L18.959 51.7603L18.5549 52.8002C18.0789 54.0251 18.9941 55.5245 20.5981 56.1479L21.0521 56.3243C21.8087 56.6184 22.6249 56.6696 23.3224 56.4884L24.8047 56.0803C27.1113 55.4338 28.7559 55.5942 31.1469 56.5233L29.9973 59.4814C28.6354 58.9522 28.067 58.8909 26.7023 59.2649L25.22 59.6731C23.5806 60.1266 21.6792 59.9995 19.8936 59.3055L19.4396 59.1291C18.4375 58.6599 17.5375 58.0175 16.7856 57.3529ZM17.7406 75.3334L15.9745 75.8441L16.9323 77.4133L15.1662 77.924L14.2084 76.3548L12.4424 76.8655L11.4846 75.2962L13.2507 74.7856L12.2929 73.2163L14.059 72.7057L15.0167 74.2749L16.7828 73.7642L17.7406 75.3334Z" stroke="#FFD5D3" stroke-width="2.18362" mask="url(#path-4-outside-1_810_664)"/>
<path d="M48.537 69.772L47.3875 72.7301L44.1794 71.4833C42.6358 70.8835 41.7029 71.1327 40.0579 71.6905C38.2951 72.2822 36.0917 73.0219 32.8231 71.7517L29.6452 70.5167L30.7948 67.5586L33.9726 68.7936C35.4556 69.3699 36.3583 69.1089 37.9641 68.5625C39.6483 67.9935 41.9695 67.2197 45.2987 68.5135L48.537 69.772ZM39.6689 62.9208C39.9832 62.1119 41.1213 61.7828 42.1806 62.1945C43.2399 62.6061 43.8571 63.6174 43.5428 64.4263C43.2285 65.2351 42.0903 65.5642 41.031 65.1526C39.9718 64.7409 39.3545 63.7296 39.6689 62.9208Z" stroke="#FFD5D3" stroke-width="2.18362" mask="url(#path-4-outside-1_810_664)"/>
<path d="M67.1501 70.4617L70.3884 71.7202L69.2389 74.6783L66.0005 73.4198C64.6991 72.9141 63.829 73.0015 62.6337 73.3882L59.6161 81.1532C60.541 81.1934 61.5813 81.3849 62.7314 81.8319L65.9698 83.0904L64.8202 86.0485L61.5818 84.79C60.0383 84.1901 59.1054 84.4394 57.4604 84.9971C55.6976 85.5889 53.4942 86.3286 50.2255 85.0583L47.0477 83.8233L48.1973 80.8652L51.3751 82.1002C52.6765 82.606 53.5253 82.4836 54.7599 82.0856L57.7595 74.3668C56.8346 74.3266 55.7943 74.1351 54.6442 73.6882L51.4664 72.4532L52.6159 69.4951L55.7938 70.7301C57.2768 71.3064 58.1794 71.0454 59.7852 70.499C61.4997 69.9417 63.8209 69.1679 67.1501 70.4617Z" stroke="#FFD5D3" stroke-width="2.18362" mask="url(#path-4-outside-1_810_664)"/>
</g>
</g>
<mask id="mask1_810_664" style="mask-type:alpha" maskUnits="userSpaceOnUse" x="10" y="10" width="70" height="69">
<circle cx="45.2266" cy="44.5689" r="34.382" transform="rotate(10.2662 45.2266 44.5689)" fill="#F38534"/>
</mask>
<g mask="url(#mask1_810_664)">
<path d="M63.1451 36.9345C63.1451 36.9345 63.2038 40.7744 64.5998 43.6381C65.9957 46.5017 71.6358 50.5983 69.9438 55.4555C69.9438 55.4555 74.1473 56.9131 69.8561 61.7057C69.8561 61.7057 69.9759 65.2085 66.4621 64.1079C66.4621 64.1079 66.634 69.2447 60.9753 67.8137C60.9753 67.8137 58.2594 68.7142 56.1442 66.9386C56.1442 66.9386 52.7899 67.8396 51.1803 66.1556C51.1803 66.1556 49.0726 67.8625 47.5957 66.0865L46.1639 63.1003C46.1639 63.1003 36.3871 58.1385 32.3791 58.805C28.3711 59.4716 25.2041 57.7375 24.902 56.5225C24.902 56.5225 22.5328 56.7896 22.3736 55.4263C22.2144 54.063 22.6352 49.4977 25.03 49.4093C25.03 49.4093 21.6524 45.9546 24.1569 42.0568C24.1569 42.0568 24.7645 26.8499 41.8213 29.4171C58.878 31.9843 60.7632 33.4281 63.1451 36.9345Z" fill="url(#paint0_linear_810_664)" stroke="#8A3933" stroke-width="0.62017" stroke-miterlimit="10"/>
<g opacity="0.3">
<path d="M63.1451 36.9345C63.1451 36.9345 63.2038 40.7744 64.5998 43.6381C65.9957 46.5017 71.6358 50.5983 69.9438 55.4555C69.9438 55.4555 74.1473 56.9131 69.8561 61.7057C69.8561 61.7057 69.9759 65.2085 66.4621 64.1079C66.4621 64.1079 66.634 69.2447 60.9753 67.8137C60.9753 67.8137 58.2594 68.7142 56.1442 66.9386C56.1442 66.9386 52.7899 67.8396 51.1803 66.1556C51.1803 66.1556 49.0726 67.8625 47.5957 66.0865L46.1639 63.1003C46.1639 63.1003 36.3871 58.1385 32.3791 58.805C28.3711 59.4716 25.2041 57.7375 24.902 56.5225C24.902 56.5225 22.5328 56.7896 22.3736 55.4263C22.2144 54.063 22.6352 49.4977 25.03 49.4093C25.03 49.4093 21.6524 45.9546 24.1569 42.0568C24.1569 42.0568 24.7645 26.8499 41.8213 29.4171C58.878 31.9843 60.7632 33.4281 63.1451 36.9345Z" stroke="#8A3933" stroke-width="0.62017" stroke-miterlimit="10"/>
<path d="M59.9882 57.8878C60.6933 58.4796 61.5209 59.0357 62.4759 59.2086C62.9253 59.29 63.3849 59.3153 63.8546 59.2843C64.3244 59.2533 64.7583 59.0999 65.2484 58.9566C66.1265 58.5934 66.9687 58.1078 67.7751 57.4996C68.5815 56.8914 69.2857 56.2067 69.9337 55.5118C69.4338 56.3495 68.7093 57.1466 68.0051 57.8313C67.2447 58.5059 66.4383 59.114 65.4378 59.513C64.4934 59.9222 63.411 60.1322 62.3538 59.8827C61.2865 59.6894 60.3567 59.0569 59.6158 58.3425L59.9882 57.8878Z" fill="#8A3933"/>
<path d="M70.0709 61.8026C69.7241 62.436 69.1013 62.6713 68.463 62.6717C67.8809 62.6824 67.3395 62.4683 66.8644 62.2082C66.3894 61.9481 65.8785 61.5654 65.6892 61.009C65.5715 60.6976 65.6224 60.4167 65.7295 60.146C65.8365 59.8753 65.9896 59.6709 66.255 59.4869C65.9489 59.8956 65.7909 60.4472 66.0006 60.8913C66.2102 61.3354 66.6853 61.5955 67.1144 61.7893C67.5996 61.9932 68.095 62.1409 68.5086 62.0998C68.9682 62.125 69.4224 61.8592 69.5958 61.5425L70.0709 61.8026Z" fill="#8A3933"/>
<path d="M66.44 61.6672C66.0676 62.1219 65.593 62.5001 65.0825 62.7557C64.5619 63.0676 64.0054 63.2569 63.403 63.3798C62.2082 63.5696 60.9825 63.2895 59.9864 62.703C58.9903 62.1164 58.0707 61.4277 57.3705 60.4886C57.0485 60.0242 56.7468 59.4474 56.6902 58.7989C56.6951 58.4517 56.8123 58.1248 57.0317 57.8744C57.2511 57.6241 57.5625 57.5064 57.8894 57.6236C57.5882 57.6851 57.4351 57.8895 57.3382 58.104C57.2414 58.3185 57.2568 58.5534 57.2825 58.7321C57.3798 59.1559 57.6456 59.6102 57.988 59.9623C58.6625 60.7226 59.5259 61.4012 60.4199 61.9112C60.6242 62.0643 60.9051 62.1151 61.1197 62.212C61.3342 62.3089 61.6151 62.3598 61.8296 62.4566C62.3352 62.5482 62.7948 62.5734 63.3207 62.5527C63.8006 62.4655 64.2907 62.3222 64.7348 62.1126C65.1789 61.9029 65.6434 61.5809 65.9853 61.2947L66.44 61.6672Z" fill="#8A3933"/>
<path d="M56.0899 46.7382C56.5751 46.9422 57.0502 47.2023 57.5252 47.4624C58.0003 47.7225 58.4192 47.9724 58.8279 48.2785C59.7015 48.9009 60.5087 49.5693 61.2395 50.3398C61.9702 51.1104 62.558 52.0291 63.0233 52.9837C63.4886 53.9382 63.6324 55.0666 63.5054 56.088C63.229 55.0516 62.8658 54.1735 62.4465 53.2853C61.971 52.3869 61.3628 51.5806 60.6781 50.8763C59.9934 50.1721 59.2423 49.5139 58.4249 48.9017C57.6075 48.2895 56.7799 47.7335 55.8758 47.2797L56.0899 46.7382Z" fill="#8A3933"/>
<path d="M63.8014 63.1038C63.2198 63.7527 62.5359 64.325 61.76 64.7647C60.9842 65.2043 60.096 65.6237 59.1308 65.5069C58.8959 65.5223 58.6252 65.4153 58.4107 65.3184C58.1962 65.2215 57.9816 65.1247 57.7773 64.9716C57.4146 64.7319 57.062 64.4359 56.7657 64.1502C56.4693 63.8644 56.1371 63.4562 55.9735 63.0784C55.8917 62.8895 55.82 62.6445 55.7484 62.3994C55.7125 62.2769 55.7329 62.1645 55.7532 62.0522C55.7736 61.9398 55.8501 61.8377 55.9726 61.8018C55.7736 61.9398 55.8452 62.1849 55.9271 62.3738C56.0089 62.5626 56.0907 62.7515 56.2389 62.8944C56.4689 63.2262 56.7653 63.5119 57.128 63.7517C57.4345 63.9812 57.787 64.2772 58.1599 64.4607C58.3081 64.6036 58.4766 64.6341 58.6911 64.731C58.8597 64.7615 59.018 64.8482 59.2529 64.8328C60.0035 64.8527 60.7489 64.5815 61.4584 64.1879C62.1679 63.7942 62.8416 63.278 63.4131 62.6853L63.8014 63.1038Z" fill="#8A3933"/>
<path d="M57.9098 64.8797C57.3688 65.3038 56.8021 65.5493 56.1793 65.7846C55.5565 66.0199 54.9081 66.0765 54.2698 66.077C53.6417 66.0212 52.9879 65.7868 52.4669 65.4603C51.8896 65.1237 51.5216 64.5929 51.2098 64.0723C51.6543 64.5009 52.0887 64.9857 52.6301 65.1998C53.1613 65.4701 53.7129 65.628 54.295 65.6174C54.8771 65.6068 55.4234 65.4737 55.9799 65.2843C56.5363 65.095 57.0569 64.7832 57.5776 64.4714L57.9098 64.8797Z" fill="#8A3933"/>
</g>
<path d="M24.8459 56.5122C24.8459 56.5122 25.2533 54.9035 27.8326 55.7187C30.3556 56.5238 30.3441 54.6651 30.3441 54.6651" fill="url(#paint1_linear_810_664)"/>
<path d="M24.5652 56.4613C24.7536 55.7412 25.4069 55.3374 26.0094 55.2144C26.668 55.1016 27.2196 55.2595 27.7712 55.4175C28.2666 55.5652 28.808 55.7793 29.288 55.6922C29.7577 55.6612 30.1863 55.2167 30.2881 54.6549C30.3496 54.9562 30.2425 55.2269 30.1355 55.4976C29.9722 55.7581 29.7068 55.9421 29.3954 56.0598C28.7828 56.2389 28.1649 56.127 27.6133 55.969C27.1179 55.8213 26.6021 55.7859 26.1324 55.8169C25.6524 55.904 25.2543 56.18 25.1269 56.563L24.5652 56.4613Z" fill="#8A3933"/>
<path d="M63.1451 36.9345C63.1451 36.9345 63.2038 40.7744 64.5998 43.6381C65.9957 46.5017 71.6358 50.5983 69.9438 55.4555C69.9438 55.4555 74.1473 56.9131 69.8561 61.7057C69.8561 61.7057 69.9759 65.2085 66.4621 64.1079C66.4621 64.1079 66.634 69.2447 60.9753 67.8137C60.9753 67.8137 58.2594 68.7142 56.1442 66.9386C56.1442 66.9386 52.7899 67.8396 51.1803 66.1556C51.1803 66.1556 49.0726 67.8625 47.5957 66.0865L46.1639 63.1003C46.1639 63.1003 36.3871 58.1385 32.3791 58.805C28.3711 59.4716 25.2041 57.7375 24.902 56.5225C24.902 56.5225 22.5328 56.7896 22.3736 55.4263C22.2144 54.063 22.6352 49.4977 25.03 49.4093C25.03 49.4093 21.6524 45.9546 24.1569 42.0568C24.1569 42.0568 24.7645 26.8499 41.8213 29.4171C58.878 31.9843 60.7632 33.4281 63.1451 36.9345Z" stroke="#8A3933" stroke-width="0.62017" stroke-miterlimit="10"/>
<path d="M51.4396 64.404C50.4749 64.9255 49.5406 65.2784 48.683 65.5292L50.0158 58.1702L36.1404 55.657L34.838 62.8475C34.1228 62.3119 33.3155 61.6435 32.4826 60.7964L25.2851 79.3932L51.8002 84.1957C52.899 78.1287 50.3407 70.471 51.4396 64.404Z" fill="url(#paint2_linear_810_664)" stroke="#893932" stroke-width="0.62017" stroke-miterlimit="10"/>
<path d="M62.3705 46.6574C61.4509 45.9686 59.624 47.7264 58.6239 48.7637C59.0105 46.629 59.2083 44.5761 59.3247 42.9727C59.3247 42.9727 61.9222 33.1158 51.6628 31.7798C41.4034 30.4437 43.5482 30.7742 43.5482 30.7742C43.5482 30.7742 28.4634 29.4925 29.2438 43.4423C29.2438 43.4423 29.2288 43.8457 29.2651 44.6065C28.5136 43.31 27.1233 41.3757 26.1126 41.8308C24.6578 42.4956 25.0954 55.4551 30.4915 53.5315C31.9913 59.0249 35.299 64.7876 42.4072 65.2628C49.4032 65.7177 53.501 61.9924 55.9335 57.2113C60.8119 60.0675 63.6426 47.642 62.3705 46.6574Z" fill="url(#paint3_linear_810_664)" stroke="#893932" stroke-width="0.62017" stroke-miterlimit="10"/>
<path d="M27.5274 42.6674C27.5274 42.6674 24.9159 39.4675 25.6562 46.9119C26.4067 54.3002 29.2815 54.1247 30.6854 53.7408L30.6112 49.666C30.6572 49.7323 28.217 43.0243 27.5274 42.6674Z" fill="url(#paint4_linear_810_664)"/>
<path d="M60.701 47.2253C60.701 47.2253 64.1817 44.6647 61.7253 51.8203C59.2689 58.9758 56.2863 58.1455 54.8408 57.4776L55.8542 53.4838C55.8542 53.4838 59.9198 47.3739 60.701 47.2253Z" fill="url(#paint5_linear_810_664)"/>
<path d="M62.3705 46.6574C61.4509 45.9686 59.624 47.7264 58.6239 48.7637C59.0105 46.629 59.2083 44.5761 59.3247 42.9727C59.3247 42.9727 61.9222 33.1158 51.6628 31.7798C41.4034 30.4437 43.5482 30.7742 43.5482 30.7742C43.5482 30.7742 28.4634 29.4925 29.2438 43.4423C29.2438 43.4423 29.2288 43.8457 29.2651 44.6065C28.5136 43.31 27.1233 41.3757 26.1126 41.8308C24.6578 42.4956 25.0954 55.4551 30.4915 53.5315C31.9913 59.0249 35.299 64.7876 42.4072 65.2628C49.4032 65.7177 53.501 61.9924 55.9335 57.2113C60.8119 60.0675 63.6426 47.642 62.3705 46.6574Z" stroke="#893932" stroke-width="0.62017" stroke-miterlimit="10"/>
<path d="M48.0541 49.4602C48.0541 49.4602 53.0605 45.2033 55.8214 50.4609L55.2415 53.663C55.2415 53.663 54.5593 56.7885 51.6382 56.2594C48.717 55.7303 47.7762 53.8773 47.7762 53.8773L48.0541 49.4602Z" fill="url(#paint6_linear_810_664)"/>
<path d="M40.4456 49.1844L39.1871 53.2499C39.1871 53.2499 37.4058 54.4357 35.3835 54.0694C33.3611 53.7031 32.4146 50.9208 32.4146 50.9208L32.213 47.2291C32.213 47.2291 33.8147 44.7924 36.8482 45.3418C39.8817 45.8912 40.4456 49.1844 40.4456 49.1844Z" fill="url(#paint7_linear_810_664)"/>
<path d="M52.4339 54.4308C51.7598 54.3087 51.3458 53.7116 51.4679 53.0375L51.9868 50.1725C52.1089 49.4984 52.706 49.0844 53.3801 49.2065C54.0542 49.3286 54.4683 49.9257 54.3462 50.5998L53.8273 53.4648C53.7153 54.0827 53.108 54.5529 52.4339 54.4308Z" fill="#F68A3B" stroke="#CC6328" stroke-width="0.62017" stroke-miterlimit="10"/>
<path d="M52.6983 52.9702C52.9155 53.0095 53.1872 52.5132 53.3052 51.8617C53.4232 51.2102 53.3428 50.6501 53.1257 50.6108C52.9085 50.5714 52.6368 51.0677 52.5188 51.7193C52.4007 52.3708 52.4811 52.9308 52.6983 52.9702Z" fill="#CC6328"/>
<path d="M48.1319 43.2663C48.1319 43.2663 47.4436 44.8242 48.2659 45.0892C49.0218 45.4001 53.8455 42.7927 56.8254 47.1617C56.7693 47.1515 56.3876 41.5706 48.1319 43.2663Z" fill="#A1553C" stroke="#883832" stroke-width="0.62017" stroke-miterlimit="10"/>
<path opacity="0.16" d="M60.3555 42.4052C60.3555 42.4052 59.9608 47.7875 58.6542 48.5952C57.2913 49.3927 50.3844 44.6026 50.7971 43.2849C51.22 41.911 51.1949 35.0022 51.1949 35.0022C51.1727 39.9298 49.9647 43.0761 49.7094 43.2039C45.7239 46.9495 37.9894 41.6033 37.9894 41.6033C39.0205 41.0358 41.2274 34.9374 41.2274 34.9374C41.2274 34.9374 38.2389 40.5461 37.0495 41.0269C35.8702 41.4516 33.977 43.2554 28.9578 43.7387C28.9578 43.7387 27.5 39.9355 30.657 34.3573C30.657 34.3573 32.9665 28.9737 43.594 30.8406C54.2214 32.7074 59.598 32.1728 60.3555 42.4052Z" fill="#681C0E"/>
<path d="M40.4724 43.9096C40.4724 43.9096 41.8507 43.347 41.3854 42.3925C40.9303 41.3817 36.1911 40.6394 32.9249 43.2969C32.9249 43.2969 39.414 41.7453 40.4724 43.9096Z" fill="#A1553C" stroke="#883832" stroke-width="0.62017" stroke-miterlimit="10"/>
<path d="M47.7864 53.8211C48.2464 54.4846 48.8594 54.9438 49.5388 55.3569C49.9117 55.5405 50.2284 55.7139 50.6115 55.8413C50.9946 55.9687 51.3878 56.0399 51.7248 56.101C51.9495 56.1417 52.2866 56.2027 52.5317 56.1311C52.8227 56.1258 53.0678 56.0541 53.323 55.9263C53.5782 55.7984 53.8334 55.6706 54.0528 55.4203C54.2621 55.2261 54.4253 54.9655 54.6345 54.7714L54.7367 54.8479C54.6297 55.1186 54.4664 55.3791 54.247 55.6295C54.0276 55.8798 53.7622 56.0638 53.4968 56.2479C53.2314 56.4319 52.874 56.4832 52.5728 56.5446C52.2716 56.6061 51.9345 56.5451 51.5974 56.484C51.2042 56.4128 50.8212 56.2854 50.4381 56.158C50.055 56.0306 49.6822 55.847 49.3194 55.6073C48.9567 55.3675 48.6502 55.1379 48.3538 54.8522C48.0575 54.5664 47.8275 54.2347 47.6077 53.8468L47.7864 53.8211Z" fill="#E58650"/>
<path d="M39.1773 53.3062C38.8455 53.5362 38.524 53.71 38.2024 53.8839C37.8246 54.0475 37.457 54.155 37.0895 54.2625C36.7219 54.37 36.3185 54.3549 35.9151 54.3399C35.5117 54.3248 35.1286 54.1974 34.7455 54.07L34.8017 54.0802C34.3625 53.9426 34.1121 53.7232 33.8618 53.5038C33.6114 53.2844 33.3712 53.0088 33.1974 52.6873C33.0134 52.4219 32.8396 52.1003 32.7219 51.7889C32.6043 51.4775 32.4866 51.1661 32.4251 50.8648L32.4915 50.8188C32.6755 51.0842 32.7931 51.3956 32.9771 51.661C33.1611 51.9264 33.3452 52.1918 33.5292 52.4572C33.7132 52.7227 33.9635 52.9421 34.1577 53.1513C34.3519 53.3605 34.6686 53.5339 34.8933 53.5746L34.9495 53.5848C35.2763 53.702 35.6134 53.7631 36.0066 53.8343C36.3539 53.8391 36.7011 53.844 37.1147 53.8029C37.8295 53.7003 38.5647 53.4853 39.2538 53.204L39.1773 53.3062Z" fill="#E58650"/>
<path d="M32.6871 53.5811L32.9471 53.1061L33.2174 52.5748L33.5496 52.9831L33.8358 53.325L33.2895 53.4582L32.6871 53.5811Z" fill="#E58650"/>
<path d="M35.0319 55.0501L34.8988 54.5038L34.7095 53.9474L35.2151 54.039L35.6645 54.1204L35.3482 54.5852L35.0319 55.0501Z" fill="#E58650"/>
<path d="M37.396 55.1302L37.0739 54.6658L36.7519 54.2013L37.2319 54.1142L37.7118 54.0271L37.5539 54.5786L37.396 55.1302Z" fill="#E58650"/>
<path d="M48.8861 56.3991L48.9317 55.8272L49.0334 55.2654L49.4523 55.5154L49.8712 55.7653L49.3506 56.0771L48.8861 56.3991Z" fill="#E58650"/>
<path d="M51.435 57.3828L51.3018 56.8365L51.1687 56.2902L51.6181 56.3716L52.1237 56.4632L51.7512 56.9179L51.435 57.3828Z" fill="#E58650"/>
<path d="M58.6237 48.7637L56.366 55.143L57.7599 47.4469L58.944 46.675L59.1745 47.6451L58.6237 48.7637Z" fill="#BA5A3B"/>
<path d="M29.9839 43.5184L30.6216 50.248L28.6149 42.7482L29.3545 41.5477L29.9728 42.298L29.9839 43.5184Z" fill="#BA5A3B"/>
<path d="M59.2513 48.1813L57.0179 52.8244L57.7598 47.447" fill="#BA5A3B"/>
<path d="M59.2513 48.1813L57.0179 52.8244L57.7598 47.447" stroke="#8A3933" stroke-width="0.62017" stroke-miterlimit="10"/>
<path d="M29.8919 42.7475L30.2177 48.9565L28.5392 43.4888" fill="#BA5A3B"/>
<path d="M29.8919 42.7475L30.2177 48.9565L28.5392 43.4888" stroke="#8A3933" stroke-width="0.62017" stroke-miterlimit="10"/>
<path d="M53.7578 57.0494L53.3592 56.6871L52.9045 56.3147L53.3385 56.1612L53.7826 55.9515L53.7932 56.5336L53.7578 57.0494Z" fill="#E58650"/>
<path d="M60.5591 41.2817C60.5591 41.2817 60.1645 46.664 58.8578 47.4717C57.4949 48.2692 50.588 43.479 51.0007 42.1613C51.4236 40.7874 51.3986 33.8787 51.3986 33.8787C51.3763 38.8062 50.1683 41.9525 49.913 42.0804C45.9276 45.826 38.193 40.4798 38.193 40.4798C39.2241 39.9123 41.431 33.8139 41.431 33.8139C41.431 33.8139 38.4425 39.4226 37.2531 39.9034C36.0738 40.328 34.1806 42.1318 29.1615 42.6152C29.1615 42.6152 27.7036 38.812 30.8606 33.2338C30.8606 33.2338 33.1702 27.8502 43.7976 29.7171C54.425 31.5839 59.8016 31.0492 60.5591 41.2817Z" fill="url(#paint8_linear_810_664)" stroke="#8A3933" stroke-width="0.62017" stroke-miterlimit="10"/>
<path d="M60.6152 41.2918C60.5444 42.3233 60.4736 43.3548 60.2904 44.366C60.1989 44.8716 60.1073 45.3771 59.9595 45.8726C59.8118 46.368 59.6079 46.8532 59.2916 47.3181C59.2151 47.4203 59.0824 47.5123 58.9497 47.6043C58.817 47.6963 58.6383 47.7219 58.5259 47.7016C58.2348 47.7069 57.954 47.656 57.7394 47.5591C57.244 47.4114 56.7588 47.2075 56.2837 46.9474C55.3234 46.4833 54.4397 45.9171 53.6223 45.3049C52.8048 44.6927 51.9414 44.0142 51.277 43.1976C51.139 42.9986 50.955 42.7331 50.8936 42.4319C50.8679 42.2532 50.9086 42.0285 50.9188 41.9723C50.9391 41.86 50.9595 41.7476 50.9798 41.6353C51.0714 41.1297 51.1068 40.6139 51.086 40.088C51.1714 38.0148 51.2007 35.9314 51.2197 33.9042L51.8018 33.8936C51.7823 35.2825 51.6965 36.7174 51.4421 38.1218C51.32 38.796 51.1878 39.5262 51.0095 40.1902C50.9484 40.5272 50.8312 40.8541 50.7038 41.2372C50.6171 41.3955 50.5866 41.5641 50.4999 41.7224C50.4795 41.8348 50.4132 41.8808 50.3928 41.9931C50.3827 42.0493 50.3163 42.0953 50.3061 42.1515C50.296 42.2076 50.296 42.2076 50.2296 42.2536C50.1633 42.2996 50.1531 42.3558 50.0867 42.4018L50.1531 42.3558C49.3162 43.1325 48.2391 43.6337 47.1209 43.7212C45.9925 43.865 44.915 43.7278 43.868 43.4222C42.8108 43.1727 41.7842 42.7547 40.8239 42.2906C39.8636 41.8266 38.9135 41.3064 38.0297 40.7402L37.7692 40.577L38.0549 40.2806C38.1213 40.2346 38.1213 40.2346 38.1876 40.1886C38.254 40.1426 38.2641 40.0864 38.3305 40.0404C38.407 39.9383 38.4835 39.8361 38.5702 39.6777C38.7335 39.4172 38.8967 39.1567 39.0037 38.886C39.274 38.3547 39.5545 37.7673 39.7686 37.2259C40.2631 36.0971 40.7015 34.9581 41.1398 33.8191L41.6813 34.0332C41.0642 35.1978 40.3808 36.4085 39.7177 37.5068C39.3811 38.084 38.9883 38.6511 38.5495 39.1518C38.4628 39.3101 38.3301 39.4021 38.2434 39.5605C38.1567 39.7189 38.0239 39.8109 37.8811 39.959C37.8045 40.0612 37.483 40.235 37.3604 40.2709C37.2379 40.3067 37.1052 40.3987 36.9163 40.4805C35.7525 41.14 34.5326 41.7893 33.241 42.1936C31.9493 42.5979 30.6219 42.8796 29.2688 42.9827L28.9879 42.9318L28.9061 42.7429C28.6553 41.8852 28.6292 41.0682 28.6031 40.2512C28.6332 39.4444 28.7297 38.5916 28.9283 37.8153C29.1269 37.039 29.3919 36.2167 29.7029 35.4608C29.8303 35.0777 30.07 34.715 30.1974 34.332L30.7942 33.2797L30.8963 33.3562L30.3558 34.4187C30.2284 34.8017 30.0448 35.1746 29.9174 35.5577C29.6626 36.3238 29.4078 37.0899 29.2654 37.8764C29.1229 38.6628 29.0367 39.4595 29.0627 40.2765C29.099 41.0373 29.1812 41.8644 29.4524 42.6098L29.1357 42.4364C30.4326 42.3232 31.76 42.0414 32.9853 41.6832C34.2207 41.2687 35.3744 40.6654 36.5382 40.0059C36.6709 39.9139 36.8597 39.8321 36.9823 39.7962C37.1048 39.7604 37.115 39.7042 37.1711 39.7144C37.2375 39.6684 37.2937 39.6786 37.3038 39.6224C37.4365 39.5304 37.5131 39.4282 37.6559 39.2801C37.7325 39.1779 37.8753 39.0297 37.9519 38.9275C38.3345 38.4166 38.7273 37.8496 39.0537 37.3285C39.727 36.174 40.4002 35.0196 41.0173 33.8549L41.5587 34.069C41.1102 35.2642 40.6718 36.4032 40.1773 37.532C40.0397 37.9712 39.7694 38.5025 39.489 39.0899C39.3257 39.3504 39.2085 39.6773 38.9891 39.9277C38.9024 40.086 38.8259 40.1882 38.683 40.3364C38.6167 40.3824 38.5963 40.4947 38.53 40.5407C38.4636 40.5867 38.3871 40.6889 38.2646 40.7247L38.2898 40.2651C39.1736 40.8313 40.0675 41.3414 41.0278 41.8054C41.9881 42.2694 42.9687 42.6211 43.9697 42.8604C44.9707 43.0997 45.9921 43.2267 46.9979 43.1188C48.0038 43.0109 48.9482 42.6017 49.6524 41.917L49.7187 41.871C49.7187 41.871 49.6626 41.8608 49.6524 41.917C49.6626 41.8608 49.6626 41.8608 49.7289 41.8148C49.7391 41.7587 49.8156 41.6565 49.8258 41.6003C49.9125 41.442 49.943 41.2734 50.0297 41.1151C50.1469 40.7882 50.208 40.4511 50.3252 40.1243C50.5035 39.4603 50.6256 38.7862 50.7477 38.1121C50.9357 36.7537 51.0675 35.3851 51.087 33.9962L51.6691 33.9856C51.6399 36.069 51.6107 38.1524 51.4691 40.2154C51.4337 40.7312 51.3983 41.2469 51.3067 41.7525C51.266 41.9772 51.1386 42.3603 51.1846 42.4266C51.2103 42.6053 51.3483 42.8044 51.4863 43.0034C52.0945 43.8098 52.9017 44.4782 53.7191 45.0904C54.5365 45.7026 55.4203 46.2688 56.3244 46.7226C56.7995 46.9827 57.2285 47.1765 57.724 47.3242C57.9385 47.4211 58.2194 47.472 58.4542 47.4565C58.5666 47.4769 58.6891 47.441 58.7555 47.395C58.8218 47.349 58.9545 47.257 59.0209 47.211C59.3168 46.8585 59.5207 46.3733 59.6685 45.8779C59.8162 45.3824 59.964 44.887 60.0555 44.3815C60.2387 43.3703 60.4218 42.3591 60.5488 41.3378L60.6152 41.2918Z" fill="#883832"/>
<path d="M37.9391 57.8975C38.5216 58.5252 39.1807 59.0507 39.9265 59.4179C40.6722 59.785 41.4945 60.05 42.281 60.1924C43.1236 60.3451 43.9406 60.319 44.824 60.2469C45.2375 60.2058 45.6613 60.1085 46.0749 60.0673C46.4986 59.97 46.9224 59.8727 47.3462 59.7754L47.4178 60.0205C47.0401 60.1841 46.6061 60.3376 46.162 60.5473C45.7383 60.6446 45.3043 60.798 44.8244 60.8852C43.9207 61.0696 42.9914 61.0753 42.0926 60.9126C41.1937 60.7498 40.2693 60.4083 39.4877 59.9186C39.0688 59.6687 38.7163 59.3727 38.4199 59.087C38.1337 58.745 37.7914 58.3929 37.5715 58.005L37.9391 57.8975Z" fill="#CB6254"/>
<path d="M44.3568 56.7391L43.1112 57.2098L42.0434 56.3782L42.1655 55.704L44.4687 56.1212L44.3568 56.7391Z" fill="#C65C55"/>
<path d="M49.332 59.3808C49.6381 58.9721 50.0004 58.5736 50.3985 58.2976C50.5312 58.2056 50.5976 58.1596 50.7865 58.0777C50.909 58.0419 51.154 57.9702 51.3686 58.0671C51.4707 58.1436 51.5167 58.21 51.5627 58.2763C51.6087 58.3427 51.6547 58.409 51.6446 58.4652C51.6804 58.5878 51.7724 58.7205 51.752 58.8328L51.8595 59.2004C51.8954 59.3229 51.9414 59.3893 51.8392 59.3127C51.7268 59.2924 51.8392 59.3127 51.9157 59.2106C51.9821 59.1646 52.1148 59.0726 52.1811 59.0266C52.5792 58.7505 52.9313 58.4082 53.3294 58.1322L53.5696 58.4078C53.2635 58.8165 52.9114 59.1588 52.5031 59.491C52.3704 59.583 52.3041 59.629 52.1714 59.721C52.105 59.767 52.0387 59.813 51.9723 59.859C51.906 59.905 51.7834 59.9408 51.5587 59.9001C51.3902 59.8696 51.3084 59.6807 51.2624 59.6144C51.2164 59.548 51.1805 59.4255 51.1907 59.3693L51.1394 59.0119C51.1036 58.8894 51.0678 58.7669 51.0779 58.7107C51.0881 58.6545 51.0319 58.6444 51.0421 58.5882C50.9961 58.5218 50.9961 58.5218 50.9961 58.5218C50.9961 58.5218 50.9399 58.5117 50.8736 58.5577C50.7511 58.5935 50.6847 58.6395 50.5622 58.6753C50.1742 58.8951 49.766 59.2273 49.3577 59.5595L49.332 59.3808Z" fill="#F79968"/>
<path d="M32.2551 56.2877C32.5612 55.879 32.9235 55.4805 33.3216 55.2045C33.4543 55.1125 33.5207 55.0665 33.7095 54.9846C33.8321 54.9488 34.0771 54.8772 34.2917 54.974C34.3938 55.0506 34.4398 55.1169 34.4858 55.1833C34.5318 55.2496 34.5778 55.316 34.5677 55.3721C34.6035 55.4947 34.6955 55.6274 34.6751 55.7397L34.7826 56.1073C34.8184 56.2298 34.8644 56.2962 34.7623 56.2197C34.6499 56.1993 34.7623 56.2197 34.8388 56.1175C34.9052 56.0715 35.0379 55.9795 35.1042 55.9335C35.5023 55.6575 35.8544 55.3151 36.2525 55.0391L36.4927 55.3147C36.1866 55.7234 35.8345 56.0657 35.4262 56.3979C35.2935 56.4899 35.2272 56.5359 35.0945 56.6279C35.0281 56.6739 34.9618 56.7199 34.8954 56.7659C34.8291 56.8119 34.7065 56.8478 34.4818 56.8071C34.3133 56.7765 34.2315 56.5877 34.1855 56.5213C34.1395 56.455 34.1036 56.3324 34.1138 56.2763L34.0625 55.9189C34.0267 55.7963 33.9909 55.6738 34.001 55.6176C34.0112 55.5615 33.955 55.5513 33.9652 55.4951C33.9192 55.4288 33.9192 55.4288 33.9192 55.4288C33.9192 55.4288 33.863 55.4186 33.7967 55.4646C33.6742 55.5004 33.6078 55.5464 33.4853 55.5822C33.0973 55.8021 32.6891 56.1343 32.2808 56.4664L32.2551 56.2877Z" fill="#F79968"/>
<path d="M37.8384 52.3675C37.1643 52.2454 36.7503 51.6482 36.8724 50.9741L37.3913 48.1091C37.5134 47.435 38.1106 47.021 38.7847 47.1431C39.4588 47.2652 39.8728 47.8624 39.7507 48.5365L39.2318 51.4015C39.0535 52.0654 38.4564 52.4794 37.8384 52.3675Z" fill="#F68A3B" stroke="#CC6328" stroke-width="0.62017" stroke-miterlimit="10"/>
<path d="M38.1231 50.7944C38.3403 50.8338 38.612 50.3375 38.73 49.686C38.848 49.0344 38.7676 48.4744 38.5505 48.4351C38.3333 48.3957 38.0616 48.892 37.9436 49.5435C37.8256 50.1951 37.9059 50.7551 38.1231 50.7944Z" fill="#CC6328"/>
<path d="M38.6173 49.0274C38.9276 49.0836 39.2246 48.8776 39.2808 48.5674C39.337 48.2571 39.131 47.9601 38.8208 47.9039C38.5105 47.8477 38.2135 48.0536 38.1573 48.3639C38.1011 48.6741 38.307 48.9712 38.6173 49.0274Z" fill="#FCCFB9"/>
<path d="M53.3407 51.3459C53.6509 51.4021 53.948 51.1962 54.0042 50.8859C54.0604 50.5757 53.8544 50.2786 53.5442 50.2224C53.2339 50.1662 52.9369 50.3722 52.8807 50.6824C52.8245 50.9927 53.0304 51.2897 53.3407 51.3459Z" fill="#FCCFB9"/>
<path d="M66.6835 36.9372C66.6657 40.8792 64.2979 43.0612 64.2979 43.0612C47.7616 24.8072 24.0443 42.0365 24.0443 42.0365C20.6008 39.2661 18.5507 35.5297 17.3635 31.8335C15.1683 25.0538 15.797 18.3795 15.7816 18.1446C15.8068 17.685 16.8374 16.4793 18.5125 16.8407C20.2438 17.2123 34.0079 13.6133 36.0506 13.8672C38.1035 14.065 45.6412 15.3722 49.333 15.1706C53.0247 14.9689 54.276 15.4277 61.1113 19.9727C62.3476 20.8349 63.6042 21.5847 64.8149 22.2681C70.0764 25.2517 74.4484 26.7398 75.5113 27.9186C76.7582 29.3629 66.6835 36.9372 66.6835 36.9372Z" fill="#F68A3B"/>
<path d="M57.4416 52.0888L62.4064 46.78" stroke="#8A3933" stroke-width="0.62017" stroke-miterlimit="10"/>
<path d="M30.0539 48.5787L26.1226 41.7747" stroke="#8A3933" stroke-width="0.62017" stroke-miterlimit="10"/>
<path d="M24.0445 42.0366C20.601 39.2662 18.5509 35.5298 17.3637 31.8336C24.0939 24.4658 33.5342 22.6365 33.6466 22.6569C27.5928 25.9698 24.0445 42.0366 24.0445 42.0366Z" fill="url(#paint9_linear_810_664)"/>
<path d="M64.3081 43.005C64.3081 43.005 64.9874 28.0431 58.1379 25.178C58.1379 25.178 64.3527 25.7815 66.6938 36.881C66.6096 40.869 64.3081 43.005 64.3081 43.005Z" fill="url(#paint10_linear_810_664)"/>
<path d="M66.6837 36.9372C66.6837 36.9372 64.8478 25.291 58.1279 25.2343C54.3083 25.1807 59.5872 23.584 64.7589 22.2579C70.0204 25.2416 74.3924 26.7297 75.4553 27.9085C76.7584 29.3629 66.6837 36.9372 66.6837 36.9372Z" fill="url(#paint11_linear_810_664)"/>
<path d="M59.0847 50.7038C59.274 51.2603 59.4072 51.8066 59.4841 52.3427C59.5509 52.935 59.5615 53.5171 59.281 54.1045C59.1178 54.365 58.9444 54.6817 58.633 54.7994C58.3778 54.9272 58.0664 55.0449 57.7192 55.04C57.3719 55.0351 57.0654 54.8056 56.9376 54.5503C56.8097 54.2951 56.7483 53.9939 56.743 53.7028C56.8146 53.9479 56.9424 54.2031 57.1366 54.4123C57.3308 54.6215 57.4993 54.6521 57.7342 54.6366C57.9691 54.6211 58.1681 54.4831 58.357 54.4013C58.5459 54.3195 58.6428 54.1049 58.7396 53.8904C58.8772 53.4512 58.9126 52.9354 58.8357 52.3993C58.7587 51.8632 58.6716 51.3833 58.4721 50.883L59.0847 50.7038Z" fill="#8A3933"/>
<path d="M28.9391 46.4042C28.633 46.8129 28.3167 47.2778 28.0668 47.6967C27.8067 48.1717 27.6589 48.6671 27.6337 49.1267C27.6492 49.3616 27.6646 49.5965 27.8128 49.7393C27.9508 49.9384 28.1552 50.0915 28.3135 50.1782C28.5281 50.275 28.7629 50.2596 28.9518 50.1777C29.1509 50.0397 29.3499 49.9017 29.5693 49.6514C29.4623 49.9221 29.2991 50.1826 29.0898 50.3768C28.8806 50.571 28.513 50.6784 28.1861 50.5612C27.8593 50.444 27.6549 50.2909 27.4147 50.0154C27.1644 49.796 27.1131 49.4386 27.0516 49.1373C26.995 48.4889 27.2091 47.9474 27.4794 47.4162C27.7496 46.885 28.0659 46.4201 28.4282 46.0216L28.9391 46.4042Z" fill="#8A3933"/>
<path d="M48.054 49.4602C48.054 49.4602 51.6193 43.5498 56.5145 48.5558L55.7651 50.4507C55.8213 50.4609 53.8008 45.2794 48.054 49.4602Z" fill="#462E2D"/>
<path d="M49.0791 47.3251L49.544 47.6414L50.0089 47.9576L49.6108 48.2336L49.2228 48.4535L49.1459 47.9174L49.0791 47.3251Z" fill="#462E2D"/>
<path d="M52.5245 45.9185L52.816 46.5515L53.0615 47.1182L52.5457 47.0828L52.0198 47.1035L52.2441 46.506L52.5245 45.9185Z" fill="#462E2D"/>
<path d="M56.8001 47.6212L56.5148 48.5559L56.1631 49.5365L55.4479 49.0008L54.7326 48.4652L55.6872 47.9998L56.8001 47.6212Z" fill="#462E2D"/>
<path d="M40.4459 49.1844C40.4459 49.1844 39.8692 42.1177 31.1552 45.7031L32.203 47.2853C32.203 47.2853 33.9171 44.8689 36.8383 45.398C39.7594 45.9271 40.4459 49.1844 40.4459 49.1844Z" fill="#462E2D"/>
<path d="M39.7079 45.5697L39.1617 45.7029L38.6154 45.836L38.8914 46.2341L39.2337 46.5862L39.4377 46.101L39.7079 45.5697Z" fill="#462E2D"/>
<path d="M36.0915 43.7543L35.8212 44.2856L35.4846 44.8628L36.0003 44.8982L36.5723 44.9438L36.337 44.321L36.0915 43.7543Z" fill="#462E2D"/>
<path d="M30.7358 44.8149L31.1653 45.6469L31.7173 46.4431L32.4472 45.9371L33.1669 45.4873L32.6458 45.1608L30.7358 44.8149Z" fill="#462E2D"/>
<path d="M51.5519 64.4244C51.5519 64.4244 51.4754 64.5265 51.3988 64.6287C51.2967 64.5522 51.1281 64.5217 51.0158 64.5013C50.454 64.3996 49.9232 64.7676 49.8215 65.3293C49.8011 65.4417 49.7808 65.554 49.8166 65.6766L49.7604 65.6664C49.311 65.585 48.9231 65.8048 48.6833 66.1675L48.6272 66.1574C48.1216 66.0658 47.6673 66.3316 47.4634 66.8169C47.4072 66.8067 47.2949 66.7863 47.2387 66.7762C46.8454 66.7049 46.4677 66.8686 46.2381 67.1751C46.1819 67.165 46.0696 67.1446 46.0134 67.1344C45.6202 67.0632 45.1761 67.2729 45.0027 67.5896C44.8545 67.4467 44.6961 67.36 44.5276 67.3295C44.0782 67.2481 43.6903 67.4679 43.4505 67.8306C43.3023 67.6877 43.098 67.5347 42.8733 67.494C42.5362 67.4329 42.2248 67.5506 42.0156 67.7448C41.8776 67.5457 41.6272 67.3263 41.3464 67.2754C41.0655 67.2246 40.7642 67.2861 40.5652 67.4241C40.4272 67.225 40.1667 67.0618 39.8858 67.0109C39.7173 66.9804 39.4824 66.9959 39.3497 67.0879C39.2015 66.945 38.9971 66.7919 38.7724 66.7512C38.6039 66.7207 38.4252 66.7464 38.3027 66.7822C38.1952 66.4146 37.909 66.0727 37.5158 66.0015C37.3473 65.9709 37.1124 65.9864 36.9797 66.0784C36.9487 65.6087 36.6267 65.1442 36.1211 65.0526C36.0088 65.0323 35.8301 65.0579 35.7177 65.0376L35.7279 64.9814C35.8296 64.4196 35.4616 63.8888 34.8999 63.7871C35.0016 63.2253 34.6336 62.6945 34.0718 62.5928C34.0157 62.5826 33.9595 62.5724 33.9033 62.5623C33.9135 62.5061 33.9237 62.4499 33.9338 62.3937C34.0356 61.832 33.6676 61.3012 33.1058 61.1994L33.0496 61.1892C32.9015 61.0464 32.6869 60.9495 32.5184 60.919L28.8108 60.2474L22.8484 93.1666L51.3297 98.3252L57.2819 65.4622L51.5519 64.4244Z" fill="url(#paint12_linear_810_664)"/>
<path d="M57.2817 65.4622L51.3193 98.3813L49.297 98.015L47.2926 109.082L20.8337 104.289L22.8381 93.2227L24.8425 82.1561L28.8004 60.3036L32.5081 60.9751C32.6766 61.0056 32.8911 61.1025 33.0393 61.2454L33.0955 61.2556C33.6572 61.3573 34.0252 61.8881 33.9235 62.4499C33.9133 62.5061 33.9031 62.5622 33.893 62.6184C33.9492 62.6286 34.0053 62.6388 34.0615 62.6489C34.6233 62.7507 34.9913 63.2815 34.8895 63.8432C35.4513 63.945 35.8193 64.4758 35.7176 65.0376L35.7074 65.0937C35.8299 65.0579 35.9984 65.0884 36.1108 65.1088C36.6164 65.2004 36.9486 65.6086 36.9693 66.1346C37.1582 66.0527 37.3369 66.0271 37.5054 66.0576C37.8987 66.1288 38.195 66.4146 38.2923 66.8383C38.471 66.8127 38.5936 66.7769 38.7621 66.8074C38.9868 66.8481 39.2013 66.945 39.3393 67.144C39.5282 67.0622 39.7069 67.0365 39.8754 67.0671C40.1563 67.1179 40.4168 67.2812 40.5548 67.4802C40.7539 67.3422 41.0551 67.2807 41.336 67.3316C41.6169 67.3825 41.8774 67.5457 42.0053 67.8009C42.2145 67.6067 42.5259 67.4891 42.8629 67.5501C43.0876 67.5908 43.3022 67.6877 43.4402 67.8868C43.6238 67.5139 44.0679 67.3042 44.5173 67.3856C44.6858 67.4161 44.9003 67.513 44.9923 67.6457C45.2219 67.3392 45.6098 67.1194 46.0031 67.1906C46.0592 67.2008 46.1716 67.2211 46.2278 67.2313C46.4573 66.9248 46.8351 66.7611 47.2283 66.8323C47.2845 66.8425 47.3969 66.8628 47.453 66.873C47.5906 66.4338 48.1112 66.1219 48.6168 66.2135L48.673 66.2237C48.8566 65.8508 49.3007 65.6412 49.7501 65.7226L49.8063 65.7327C49.7704 65.6102 49.7908 65.4978 49.8111 65.3855C49.9129 64.8237 50.4437 64.4557 51.0054 64.5575C51.1178 64.5778 51.2762 64.6645 51.3885 64.6849C51.5314 64.5367 51.5416 64.4805 51.5416 64.4805L57.2817 65.4622ZM57.9452 65.0021L57.3834 64.9004L51.6535 63.8626L51.3164 63.8015L51.2297 63.9599C51.1735 63.9497 51.1735 63.9497 51.1174 63.9395C50.2747 63.7869 49.4887 64.2828 49.2799 65.1152C48.9787 65.1767 48.6571 65.3505 48.4479 65.5447C47.9781 65.5757 47.534 65.7853 47.2381 66.1379C46.8347 66.1228 46.4671 66.2303 46.1353 66.4603C45.7421 66.3891 45.3082 66.5426 44.9764 66.7726C44.8641 66.7522 44.7619 66.6757 44.7057 66.6655C44.2563 66.5841 43.8325 66.6814 43.4344 66.9574C43.2557 66.9831 43.1434 66.9627 42.9749 66.9322C42.694 66.8813 42.4029 66.8866 42.0915 67.0043C41.8872 66.8512 41.6726 66.7544 41.4479 66.7137C41.1671 66.6628 40.9322 66.6783 40.6871 66.7499C40.4828 66.5969 40.2682 66.5 39.9874 66.4491C39.8188 66.4186 39.6503 66.3881 39.4716 66.4137C39.2672 66.2607 39.0527 66.1638 38.828 66.1231C38.7718 66.1129 38.6595 66.0926 38.6033 66.0824C38.3733 65.7506 38.0208 65.4547 37.5714 65.3733C37.5152 65.3631 37.4028 65.3428 37.3467 65.3326C37.137 64.8885 36.7385 64.5262 36.2329 64.4347C36.1458 63.9547 35.8697 63.5566 35.4509 63.3067C35.3739 62.7706 35.0519 62.3061 34.5105 62.092C34.464 61.3874 33.9837 60.8363 33.2636 60.6478C33.1614 60.5713 33.0592 60.4948 32.9469 60.4744L32.957 60.4182L32.5638 60.347L28.8562 59.6755L28.2944 59.5737L28.1927 60.1355L24.2449 81.9318L22.2405 92.9984L20.2361 104.065L20.1343 104.627L20.6961 104.729L47.155 109.521L47.7167 109.623L47.8185 109.061L49.7212 98.556L51.1817 98.8205L51.7435 98.9223L51.8452 98.3605L57.7873 65.5537L57.889 64.992L57.9452 65.0021Z" fill="#939393"/>
<path d="M87.5657 108.718C85.8595 115.255 54.2623 116.088 45.2498 116.196C43.7384 116.212 42.8652 116.228 42.8652 116.228C54.077 68.4209 51.562 64.3682 51.562 64.3682C52.379 64.3421 53.1858 64.3722 53.9926 64.4023C68.5409 65.1227 69.9916 73.4501 77.193 83.3412C84.7726 93.707 89.5316 101.067 87.5657 108.718Z" fill="#B13C25" stroke="#682321" stroke-width="1.24034" stroke-miterlimit="10"/>
<g opacity="0.2">
<path d="M60.6761 93.1718C60.9451 90.7257 61.3725 88.3663 62.0347 85.9914C62.3607 84.8321 62.6969 83.6165 63.314 82.4519C63.5944 81.8645 63.9311 81.2872 64.6047 80.771C64.8038 80.633 64.9927 80.5512 65.2377 80.4796L65.6615 80.3823C65.9065 80.3106 66.2078 80.2491 66.463 80.1213C67.5759 79.7427 68.5508 79.165 69.7964 78.6944C70.1078 78.5767 70.4754 78.4693 70.935 78.4945C71.0474 78.5148 71.2159 78.5453 71.3282 78.5657C71.3844 78.5759 71.4866 78.6524 71.5428 78.6626L71.6449 78.7391C71.6449 78.7391 71.7471 78.8156 71.7931 78.882C72.0997 79.1116 72.0846 79.515 72.1102 79.6937C72.0899 79.806 72.0797 79.8622 72.0594 79.9745C72.0492 80.0307 72.0289 80.1431 71.9727 80.1329C71.7789 80.562 71.5595 80.8123 71.3401 81.0627C71.1207 81.313 70.9013 81.5634 70.6921 81.7576C68.9214 83.5255 67.1251 85.1148 64.9762 86.4081C66.19 84.1912 68.0987 82.6223 69.6447 80.8136C69.8539 80.6194 70.0171 80.3589 70.1702 80.1545C70.3232 79.9502 70.4864 79.6896 70.563 79.5875C70.563 79.5875 70.563 79.5875 70.5528 79.6437C70.5426 79.6998 70.5426 79.6998 70.5785 79.8224C70.6245 79.8887 70.6603 80.0112 70.7063 80.0776C70.7523 80.1439 70.8085 80.1541 70.7523 80.1439C70.7523 80.1439 70.7523 80.1439 70.8085 80.1541C70.8085 80.1541 70.8085 80.1541 70.7523 80.1439C70.6399 80.1236 70.3949 80.1952 70.1498 80.2669C69.1033 80.5995 67.9496 81.2028 66.7244 81.5611C66.413 81.6787 66.1117 81.7402 65.7543 81.7915L65.5195 81.807L65.3969 81.8428C65.3408 81.8327 65.3306 81.8888 65.3306 81.8888C65.2744 81.8787 65.2081 81.9247 65.1417 81.9707C64.81 82.2007 64.4375 82.6554 64.1774 83.1304C63.5909 84.1266 63.1525 85.2656 62.7243 86.3484C62.2859 87.4874 61.9599 88.6467 61.5777 89.7959C61.3282 90.8531 61.0022 92.0124 60.6761 93.1718Z" fill="#682321"/>
</g>
<path d="M45.2501 116.196C43.7387 116.212 42.8655 116.228 42.8655 116.228C54.0773 68.4209 51.5623 64.3682 51.5623 64.3682C52.3793 64.3421 53.1861 64.3722 53.9929 64.4023C54.2636 64.5094 58.9271 66.6304 45.2501 116.196Z" fill="#99342D"/>
<path d="M87.5657 108.718C85.8595 115.255 54.2623 116.088 45.2498 116.196C43.7384 116.212 42.8652 116.228 42.8652 116.228C54.077 68.4209 51.562 64.3682 51.562 64.3682C52.379 64.3421 53.1858 64.3722 53.9926 64.4023C68.5409 65.1227 69.9916 73.4501 77.193 83.3412C84.7726 93.707 89.5316 101.067 87.5657 108.718Z" stroke="#682321" stroke-width="1.24034" stroke-miterlimit="10"/>
<path opacity="0.4" d="M65.2451 99.337C62.0886 98.1851 57.6507 97.3813 57.6507 97.3813C57.6507 97.3813 60.942 101.633 62.6388 103.797C64.3917 105.971 62.9464 113.309 62.9464 113.309C62.9464 113.309 61.7093 111.171 60.0683 108.379C59.9303 108.18 59.8024 107.924 59.6644 107.725C58.6829 106.097 57.6094 104.336 56.5717 102.698C56.5257 102.631 56.4797 102.565 56.4337 102.499C55.7539 101.447 55.1099 100.518 54.5119 99.6557C54.3739 99.4567 54.2819 99.324 54.2 99.1351C51.7819 94.8679 57.9684 91.4629 59.0075 87.6478C59.522 85.7683 59.2292 83.2205 58.7988 81.1119C58.763 80.9894 58.7732 80.9332 58.7374 80.8107C58.2712 78.5795 57.6573 76.8438 57.6573 76.8438L61.3255 79.6549C61.3255 79.6549 66.5374 84.8343 66.0596 88.1128C65.5716 91.4476 69.0067 96.8273 71.3926 98.7099C73.8143 100.715 68.4015 100.489 65.2451 99.337Z" fill="#682321"/>
<path d="M-16.641 89.8434C-17.3361 96.5638 11.9616 108.426 20.3636 111.689C21.7733 112.234 22.5855 112.555 22.5855 112.555C28.8538 63.8524 32.6305 60.9393 32.6305 60.9393C31.8745 60.6283 31.1084 60.3735 30.3423 60.1187C16.4655 55.6907 12.1863 62.9803 1.97314 69.7172C-8.76062 76.766 -15.8548 81.9792 -16.641 89.8434Z" fill="#B13C25" stroke="#682321" stroke-width="1.24034" stroke-miterlimit="10"/>
<g opacity="0.2">
<path d="M13.9937 84.7165C14.095 83.5165 14.1964 82.3164 14.2415 81.1062C14.2866 79.896 14.388 78.6959 14.3769 77.4756C14.3659 76.2552 14.3447 75.0909 14.1448 73.9524C14.0678 73.4163 13.8785 72.8598 13.6485 72.5281C13.6025 72.4617 13.5565 72.3953 13.5003 72.3852C13.5003 72.3852 13.4441 72.375 13.4543 72.3188L13.3521 72.2423L13.1376 72.1454C12.8771 71.9822 12.5604 71.8088 12.31 71.5894C11.2882 70.8241 10.4094 69.9107 9.55611 69.176C9.35175 69.0229 9.1474 68.8699 9.03504 68.8495C9.03504 68.8495 9.03505 68.8495 8.97887 68.8394C8.97887 68.8394 8.97887 68.8394 9.03504 68.8495C9.03504 68.8495 9.09122 68.8597 9.1014 68.8035C9.22392 68.7677 9.29027 68.7217 9.31062 68.6093C9.38715 68.5072 9.38715 68.5072 9.39732 68.451C9.4075 68.3948 9.39732 68.451 9.4075 68.3948C9.44332 68.5173 9.5048 68.8186 9.57646 69.0636C9.64811 69.3087 9.76576 69.6201 9.83742 69.8651C10.5946 72.091 11.8318 74.2297 12.2471 76.7417C10.7445 74.787 9.56356 72.6585 8.52545 70.3818C8.4078 70.0704 8.27997 69.8151 8.16231 69.5037C8.04466 69.1923 7.927 68.8809 7.89605 68.4112C7.90622 68.355 7.9164 68.2988 7.8704 68.2325C7.88057 68.1763 7.89074 68.1201 7.92127 67.9516C7.95179 67.783 8.13537 67.4102 8.50295 67.3027C8.5693 67.2567 8.69183 67.2209 8.69183 67.2209L8.81435 67.185C8.87053 67.1952 8.99305 67.1594 9.04923 67.1696C9.21776 67.2001 9.33011 67.2204 9.44246 67.2408C9.87152 67.4345 10.1781 67.6641 10.4386 67.8273C11.44 68.7049 12.2066 69.598 13.0598 70.3327C13.254 70.542 13.5145 70.7052 13.7189 70.8582L14.0816 71.098C14.2859 71.251 14.4341 71.3939 14.5721 71.593C15.0219 72.3127 15.0786 72.9611 15.1913 73.6198C15.3045 74.9167 15.2594 76.1269 15.1479 77.3831C15.0271 79.9721 14.5896 82.3877 13.9937 84.7165Z" fill="#682321"/>
<path d="M12.5346 79.6368C10.6198 79.6381 8.7049 79.6393 6.80022 79.5845C5.82488 79.5238 4.89554 79.5296 3.9202 79.469C3.46062 79.4437 2.94486 79.4083 2.43927 79.3168C2.21457 79.2761 1.93369 79.2252 1.70899 79.1845C1.59663 79.1641 1.42811 79.1336 1.26975 79.0469C1.21358 79.0367 1.1114 78.9602 1.00922 78.8837C0.953046 78.8735 0.907046 78.8072 0.815043 78.6745C0.769042 78.6081 0.779215 78.5519 0.733213 78.4856C0.687212 78.4192 0.707562 78.3069 0.717737 78.2507L0.727051 76.918L1.66212 77.8416C2.89355 79.0509 4.30369 80.2346 5.74434 81.2498C6.45958 81.7855 7.19518 82.2088 7.98694 82.6423C8.78888 83.0197 9.601 83.3408 10.5303 83.3351C9.63683 83.4633 8.69201 83.2342 7.87989 82.913C7.0116 82.5817 6.20966 82.2044 5.41789 81.7709C4.62613 81.3374 3.84453 80.8477 3.11912 80.3682C2.33753 79.8785 1.62229 79.3429 0.917219 78.751L1.86161 78.3419C1.87178 78.2857 1.88196 78.2295 1.83595 78.1632C1.84613 78.107 1.78995 78.0968 1.78995 78.0968L1.74395 78.0305C1.74395 78.0305 1.74395 78.0305 1.80013 78.0406C1.8563 78.0508 1.95848 78.1273 2.07083 78.1477C2.28536 78.2446 2.51007 78.2852 2.73477 78.3259C3.17401 78.4635 3.62341 78.5449 4.07282 78.6263C5.02781 78.7993 5.9368 78.9059 6.89179 79.0789C8.76595 79.3023 10.6503 79.4695 12.5346 79.6368Z" fill="#682321"/>
</g>
<path d="M20.3636 111.689C21.7733 112.234 22.5854 112.555 22.5854 112.555C28.8538 63.8524 32.6304 60.9393 32.6304 60.9393C31.8745 60.6283 31.1084 60.3735 30.3423 60.1187C29.995 60.1138 24.8941 60.4083 20.3636 111.689Z" fill="#99342D"/>
<path d="M-16.641 89.8434C-17.3361 96.5638 11.9616 108.426 20.3636 111.689C21.7733 112.234 22.5855 112.555 22.5855 112.555C28.8538 63.8524 32.6305 60.9393 32.6305 60.9393C31.8745 60.6283 31.1084 60.3735 30.3423 60.1187C16.4655 55.6907 12.1863 62.9803 1.97314 69.7172C-8.76062 76.766 -15.8548 81.9792 -16.641 89.8434Z" stroke="#682321" stroke-width="1.24034" stroke-miterlimit="10"/>
<path opacity="0.4" d="M7.55208 88.8876C10.912 88.916 15.3499 89.7198 15.3499 89.7198C15.3499 89.7198 10.7766 92.5466 8.42869 93.978C6.02459 95.3991 4.80405 102.779 4.80405 102.779C4.80405 102.779 6.71274 101.21 9.22877 99.1705C9.42782 99.0325 9.63705 98.8383 9.8361 98.7003C11.3263 97.5198 12.9493 96.2472 14.4957 95.0768C14.562 95.0308 14.6284 94.9848 14.6947 94.9388C15.7002 94.1926 16.6291 93.5486 17.4917 92.9506C17.6907 92.8126 17.8234 92.7206 17.9663 92.5724C21.7275 89.4244 17.1282 84.0659 17.4932 80.1287C17.6706 78.1882 18.8384 75.9049 19.981 74.0812C20.0575 73.979 20.0677 73.9228 20.1442 73.8207C21.3633 71.8948 22.547 70.4846 22.547 70.4846L18.1259 71.8306C18.1259 71.8306 11.4285 74.8529 10.726 78.0908C10.0134 81.3848 4.90966 85.2179 2.01502 86.1441C-0.945972 87.1163 4.19213 88.8592 7.55208 88.8876Z" fill="#682321"/>
<path opacity="0.2" d="M11.8306 88.3281C14.5063 88.2906 17.8769 88.901 17.8769 88.901C17.8769 88.901 14.3041 91.3289 12.4003 92.5506C11.0835 93.4145 10.1921 96.7342 9.72362 98.68L9.71345 98.7361C11.1475 97.5454 12.8266 96.283 14.3832 95.0565C14.4496 95.0105 14.5159 94.9645 14.5823 94.9185C15.7306 94.0241 16.8585 93.2421 17.8436 92.6082C21.6048 89.4602 17.0056 84.1017 17.3706 80.1645C17.548 78.224 18.7158 75.9407 19.8584 74.117C19.9349 74.0148 19.9451 73.9586 20.0216 73.8565C18.9905 74.424 14.9223 76.7041 14.3623 79.1555C13.7974 81.9541 9.71459 85.276 7.42241 86.0792C5.17623 86.9488 9.21116 88.3758 11.8306 88.3281Z" fill="#682321"/>
<path d="M52.2793 15.2401C54.3017 15.6064 56.4063 16.7998 61.0551 19.9626C62.2914 20.8247 63.5481 21.5745 64.7587 22.2579C70.0202 25.2416 74.3922 26.7296 75.4551 27.9085C76.748 29.4191 66.6273 36.927 66.6273 36.927C66.6095 40.8691 64.2417 43.0511 64.2417 43.0511C64.3235 43.24 64.4053 43.4288 64.4872 43.6177C65.8831 46.4814 71.5232 50.5779 69.8312 55.4352C69.8312 55.4352 74.0347 56.8927 69.7435 61.6853C69.7435 61.6853 69.8324 64.7184 66.9674 64.1995C66.7989 64.169 66.5742 64.1283 66.3596 64.0314C66.3596 64.0314 66.4582 66.37 64.7534 67.4537C69.9999 70.8407 72.2915 76.7676 77.0805 83.3208C84.6601 93.6866 89.4752 101.057 87.5093 108.707C85.8031 115.245 54.206 116.078 45.1935 116.186C43.682 116.202 42.8089 116.218 42.8089 116.218C43.4096 113.542 44.036 111.045 44.5399 108.583L23.5862 104.788C23.261 107.224 22.9054 109.828 22.5293 112.545C22.5293 112.545 21.7172 112.224 20.3075 111.679C11.9055 108.416 -17.3922 96.5536 -16.6972 89.8333C-15.8548 81.9792 -8.81676 76.7559 1.97318 69.7172C11.1809 63.7265 15.5628 57.1517 26.4047 59.1154C27.6406 59.3393 28.9123 59.6856 30.3423 60.1187C30.9961 60.3532 31.706 60.5978 32.416 60.8424L32.4262 60.7862C32.4722 60.8526 32.5283 60.8628 32.5743 60.9291C32.6203 60.9955 32.6765 61.0056 32.7225 61.072C32.8349 61.0923 32.9371 61.1689 33.0291 61.3016L33.0852 61.3117C33.5346 61.3931 33.877 61.7452 33.9181 62.1588C34.2247 62.3884 34.521 62.6741 34.7815 62.8374L34.9545 61.8824C34.0194 60.9588 33.2272 59.887 32.5677 58.7232C32.4452 58.759 32.3329 58.7387 32.2103 58.7745C30.8931 59.0001 29.6829 58.9549 28.6717 58.7718C26.4808 58.375 24.9942 57.2934 24.7894 56.5021C24.7894 56.5021 24.1409 56.5587 23.523 56.4468C22.905 56.3349 22.3176 56.0544 22.261 55.406C22.0456 54.0325 22.5226 49.4774 24.9173 49.389C24.9173 49.389 21.5398 45.9343 24.0443 42.0365C20.6008 39.2661 18.5507 35.5297 17.3635 31.8335C15.1684 25.0539 15.7869 18.4357 15.7816 18.1446C15.8068 17.6851 16.7711 16.5253 18.4002 16.8203C18.4564 16.8305 18.4564 16.8305 18.5125 16.8407C18.5125 16.8407 18.5125 16.8407 18.5687 16.8509C20.4225 17.1866 33.9978 13.6695 36.0506 13.8672C38.1035 14.065 45.6413 15.3722 49.333 15.1706C50.4512 15.083 51.3805 15.0773 52.2793 15.2401ZM52.6863 12.9931C51.5066 12.7794 50.3986 12.8108 49.168 12.878C46.5844 13.0482 41.5542 12.3112 38.5565 11.8843C37.5351 11.7573 36.8049 11.6251 36.2329 11.5795C35.043 11.422 32.6332 11.9138 27.0222 13.1023C24.1886 13.6914 19.8489 14.5879 18.8634 14.5835C18.8072 14.5733 18.8072 14.5733 18.751 14.5631C17.2904 14.2986 15.8865 14.6825 14.8045 15.5309C13.9778 16.2514 13.4677 17.1454 13.4275 18.0084L13.4173 18.0645C13.2912 20.3624 13.1217 26.4237 15.1019 32.4682C16.4425 36.5983 18.4413 39.9773 21.1647 42.5593C20.4003 44.8576 20.8767 47.0326 21.6795 48.6865C19.9601 50.8118 19.7787 54.3762 19.9481 55.6833C20.0095 55.9845 20.071 56.2857 20.1988 56.5409C14.7356 57.234 10.77 60.2289 6.39618 63.5561C4.58436 64.9105 2.76237 66.321 0.649319 67.7369C-10.2733 74.8675 -18.1076 80.6429 -19.0207 89.5285C-19.2844 92.2656 -17.7089 96.3802 -2.73211 104.024C5.45096 108.175 14.6346 111.927 19.4051 113.778C20.871 114.333 21.6831 114.655 21.6831 114.655L24.4003 115.669L24.7405 112.83C24.9538 111.012 25.213 109.26 25.4161 107.498L41.7071 110.449C41.3355 112.18 40.8976 113.957 40.4596 115.735L39.7824 118.513L42.6828 118.516C42.6828 118.516 43.5559 118.5 45.1236 118.494C50.24 118.434 60.146 118.198 69.2754 117.125C85.9818 115.219 88.9566 111.928 89.6135 109.263C91.8749 100.621 86.5639 92.4649 78.8361 81.9562C77.3438 79.9454 76.1323 77.9854 74.9106 76.0816C72.7074 72.5495 70.77 69.4717 67.9037 67.0379C67.9904 66.8796 68.0771 66.7212 68.1178 66.4965C69.1237 66.3886 69.8434 65.9388 70.3282 65.5044C71.3642 64.5897 71.7565 63.3844 71.853 62.5315C73.5622 60.4623 74.1633 58.4245 73.672 56.653C73.3955 55.6166 72.8333 54.8766 72.2866 54.3714C72.6976 50.5006 69.9941 47.168 68.139 44.9174C67.6689 44.31 67.1885 43.7589 66.8665 43.2944C67.5857 42.2063 68.4833 40.4542 68.7319 38.1205C69.6046 37.4663 70.9622 36.3777 72.3962 35.187C76.6524 31.5485 77.5858 29.9189 77.7074 28.6065C77.7937 27.8099 77.5889 27.0186 77.0524 26.4572C76.1377 25.4213 74.59 24.6768 71.9696 23.4479C70.2074 22.6066 68.0723 21.5817 65.7531 20.2913C64.4863 19.5977 63.2858 18.8581 62.2079 18.0827C57.3648 14.7107 55.1581 13.4407 52.6863 12.9931Z" fill="#682321"/>
</g>
<path fill-rule="evenodd" clip-rule="evenodd" d="M55.9792 1.54565C46.1685 10.2421 45.663 25.694 54.8501 36.0584C64.0373 46.4228 79.4382 47.775 89.249 39.0786L55.9792 1.54565Z" fill="#D9D9D9"/>
<defs>
<linearGradient id="paint0_linear_810_664" x1="46.8209" y1="54.477" x2="52.161" y2="27.447" gradientUnits="userSpaceOnUse">
<stop stop-color="#BB5A3B"/>
<stop offset="0.2251" stop-color="#A43F2B"/>
</linearGradient>
<linearGradient id="paint1_linear_810_664" x1="25.0793" y1="55.1525" x2="30.0646" y2="56.0555" gradientUnits="userSpaceOnUse">
<stop stop-color="#BB5A3B"/>
<stop offset="1" stop-color="#BB5A3B"/>
</linearGradient>
<linearGradient id="paint2_linear_810_664" x1="40.4304" y1="73.8067" x2="41.6416" y2="68.614" gradientUnits="userSpaceOnUse">
<stop offset="0.3924" stop-color="#FAB180"/>
<stop offset="0.7025" stop-color="#ED8D5D"/>
</linearGradient>
<linearGradient id="paint3_linear_810_664" x1="40.4927" y1="65.2498" x2="46.7974" y2="31.531" gradientUnits="userSpaceOnUse">
<stop offset="0.3924" stop-color="#FAB180"/>
<stop offset="0.7025" stop-color="#ED8D5D"/>
</linearGradient>
<linearGradient id="paint4_linear_810_664" x1="31.6898" y1="49.6573" x2="23.5146" y2="46.0113" gradientUnits="userSpaceOnUse">
<stop offset="0.4096" stop-color="#E75F5D" stop-opacity="0"/>
<stop offset="1" stop-color="#E75F5D"/>
</linearGradient>
<linearGradient id="paint5_linear_810_664" x1="54.8093" y1="53.2345" x2="64.0521" y2="51.3709" gradientUnits="userSpaceOnUse">
<stop offset="0.4096" stop-color="#E75F5D" stop-opacity="0"/>
<stop offset="1" stop-color="#E75F5D"/>
</linearGradient>
<linearGradient id="paint6_linear_810_664" x1="47.7449" y1="51.2594" x2="55.4183" y2="52.6492" gradientUnits="userSpaceOnUse">
<stop stop-color="#DEDED0"/>
<stop offset="0.2251" stop-color="#DEDED0"/>
</linearGradient>
<linearGradient id="paint7_linear_810_664" x1="31.9076" y1="48.9391" x2="40.1906" y2="50.4393" gradientUnits="userSpaceOnUse">
<stop stop-color="#DEDED0"/>
<stop offset="0.2251" stop-color="#DEDED0"/>
</linearGradient>
<linearGradient id="paint8_linear_810_664" x1="29.6493" y1="34.8607" x2="60.8617" y2="40.514" gradientUnits="userSpaceOnUse">
<stop stop-color="#BB5A3B"/>
<stop offset="0.2251" stop-color="#A43F2B"/>
</linearGradient>
<linearGradient id="paint9_linear_810_664" x1="17.6194" y1="30.3102" x2="31.7986" y2="32.8783" gradientUnits="userSpaceOnUse">
<stop stop-color="#EA7425" stop-opacity="0"/>
<stop offset="1" stop-color="#EA7425"/>
</linearGradient>
<linearGradient id="paint10_linear_810_664" x1="56.6726" y1="33.285" x2="67.1281" y2="35.1787" gradientUnits="userSpaceOnUse">
<stop stop-color="#EA7425" stop-opacity="0"/>
<stop offset="1" stop-color="#EA7425"/>
</linearGradient>
<linearGradient id="paint11_linear_810_664" x1="56.2905" y1="27.8629" x2="75.0705" y2="31.2644" gradientUnits="userSpaceOnUse">
<stop stop-color="#EA7425" stop-opacity="0"/>
<stop offset="1" stop-color="#EA7425"/>
</linearGradient>
<linearGradient id="paint12_linear_810_664" x1="42.1124" y1="66.2604" x2="37.5169" y2="95.4497" gradientUnits="userSpaceOnUse">
<stop offset="0.2872" stop-color="#DEDED0"/>
<stop offset="0.7305" stop-color="#CCCCCB"/>
</linearGradient>
</defs>
</svg>
