<svg width="61" height="56" viewBox="0 0 61 56" fill="none" xmlns="http://www.w3.org/2000/svg">
<path d="M48 0.0927734H13C6.1075 0.0927734 0.5 5.70027 0.5 12.5928V42.5928C0.5 49.4853 6.1075 55.0928 13 55.0928H48C54.8925 55.0928 60.5 49.4853 60.5 42.5928V12.5928C60.5 5.70027 54.8925 0.0927734 48 0.0927734ZM16.75 43.8428C14.68 43.8428 13 42.1628 13 40.0928C13 38.0228 14.68 36.3428 16.75 36.3428C18.82 36.3428 20.5 38.0228 20.5 40.0928C20.5 42.1628 18.82 43.8428 16.75 43.8428ZM16.75 31.3428C14.68 31.3428 13 29.6628 13 27.5928C13 25.5228 14.68 23.8428 16.75 23.8428C18.82 23.8428 20.5 25.5228 20.5 27.5928C20.5 29.6628 18.82 31.3428 16.75 31.3428ZM16.75 18.8428C14.68 18.8428 13 17.1628 13 15.0928C13 13.0228 14.68 11.3428 16.75 11.3428C18.82 11.3428 20.5 13.0228 20.5 15.0928C20.5 17.1628 18.82 18.8428 16.75 18.8428ZM45.5 42.5928H28C26.62 42.5928 25.5 41.4728 25.5 40.0928C25.5 38.7128 26.62 37.5928 28 37.5928H45.5C46.88 37.5928 48 38.7128 48 40.0928C48 41.4728 46.88 42.5928 45.5 42.5928ZM45.5 30.0928H28C26.62 30.0928 25.5 28.9728 25.5 27.5928C25.5 26.2128 26.62 25.0928 28 25.0928H45.5C46.88 25.0928 48 26.2128 48 27.5928C48 28.9728 46.88 30.0928 45.5 30.0928ZM45.5 17.5928H28C26.62 17.5928 25.5 16.4728 25.5 15.0928C25.5 13.7128 26.62 12.5928 28 12.5928H45.5C46.88 12.5928 48 13.7128 48 15.0928C48 16.4728 46.88 17.5928 45.5 17.5928Z" fill="#141414"/>
</svg>
