<svg width="60" height="61" viewBox="0 0 60 61" fill="none" xmlns="http://www.w3.org/2000/svg">
<path d="M59.2595 59.8458C58.772 60.3332 58.1321 60.5781 57.4922 60.5781C56.8523 60.5781 56.2124 60.3332 55.725 59.8458L40.8045 44.9269C36.4926 48.4561 30.9883 50.5805 24.9966 50.5805C11.2135 50.5805 0 39.3683 0 25.5866C0 11.8049 11.2135 0.592661 24.9966 0.592661C32.5181 0.592661 39.2572 3.94685 43.8441 9.22057L28.5511 26.8563L23.7318 22.0375C22.7269 21.0327 21.3246 20.4978 19.9223 20.5603C18.5075 20.6253 17.1727 21.2876 16.2678 22.3749L8.07891 32.2C7.19403 33.2597 7.33901 34.8369 8.39886 35.7192C8.8688 36.1091 9.43372 36.299 9.99865 36.299C10.716 36.299 11.426 35.9916 11.9234 35.3992L20.2023 25.5691L25.0216 30.3879C26.0115 31.3777 27.3913 31.9026 28.7836 31.8676C30.1859 31.8151 31.5132 31.1777 32.4281 30.118L46.8337 13.442C48.8434 17.0412 50.0007 21.1777 50.0007 25.5841C50.0007 31.5777 47.876 37.0813 44.3465 41.3903L59.267 56.3092C60.2443 57.2864 60.2443 58.866 59.267 59.8433L59.2595 59.8458ZM54.3701 4.71166C55.2725 3.66692 55.155 2.0873 54.1102 1.18502C53.0703 0.287735 51.4905 0.395209 50.5857 1.44246L43.8416 9.21807C44.9739 10.5178 45.9788 11.9274 46.8237 13.442L54.3676 4.70916L54.3701 4.71166Z" fill="#E8E6E3"/>
</svg>
