<svg width="61" height="61" viewBox="0 0 61 61" fill="none" xmlns="http://www.w3.org/2000/svg">
<path d="M30.3794 0.592773C24.446 0.592773 18.6458 2.35224 13.7123 5.64868C8.77882 8.94513 4.93365 13.6305 2.66302 19.1123C0.392393 24.5941 -0.201707 30.626 0.955849 36.4455C2.11341 42.2649 4.97063 47.6104 9.1662 51.806C13.3618 56.0015 18.7073 58.8588 24.5267 60.0163C30.3461 61.1739 36.3781 60.5798 41.8599 58.3091C47.3417 56.0385 52.027 52.1934 55.3235 47.2599C58.6199 42.3264 60.3794 36.5262 60.3794 30.5928C60.3708 22.6389 57.2073 15.0133 51.5831 9.38907C45.9589 3.76484 38.3333 0.601376 30.3794 0.592773ZM40.3794 33.0928H32.8794V40.5928C32.8794 41.2558 32.616 41.8917 32.1472 42.3605C31.6783 42.8294 31.0424 43.0928 30.3794 43.0928C29.7164 43.0928 29.0805 42.8294 28.6116 42.3605C28.1428 41.8917 27.8794 41.2558 27.8794 40.5928V33.0928H20.3794C19.7164 33.0928 19.0805 32.8294 18.6116 32.3605C18.1428 31.8917 17.8794 31.2558 17.8794 30.5928C17.8794 29.9297 18.1428 29.2938 18.6116 28.825C19.0805 28.3562 19.7164 28.0928 20.3794 28.0928H27.8794V20.5928C27.8794 19.9297 28.1428 19.2938 28.6116 18.825C29.0805 18.3562 29.7164 18.0928 30.3794 18.0928C31.0424 18.0928 31.6783 18.3562 32.1472 18.825C32.616 19.2938 32.8794 19.9297 32.8794 20.5928V28.0928H40.3794C41.0424 28.0928 41.6783 28.3562 42.1472 28.825C42.616 29.2938 42.8794 29.9297 42.8794 30.5928C42.8794 31.2558 42.616 31.8917 42.1472 32.3605C41.6783 32.8294 41.0424 33.0928 40.3794 33.0928Z" fill="#141414"/>
</svg>
