<svg width="46" height="61" viewBox="0 0 46 61" fill="none" xmlns="http://www.w3.org/2000/svg">
<path d="M40.1827 27.564H5.81767C4.7872 27.5632 3.77917 27.2628 2.91628 26.6993C2.05338 26.1358 1.37284 25.3335 0.957474 24.39C0.542109 23.4466 0.40984 22.4027 0.576765 21.3854C0.743689 20.3681 1.20261 19.4213 1.89767 18.6602L18.1152 2.18078C18.7462 1.50231 19.5116 0.962719 20.3625 0.596382C21.2134 0.230045 22.1313 0.0449838 23.0576 0.0529831C23.984 0.0609823 24.8985 0.261866 25.743 0.642844C26.5875 1.02382 27.3434 1.57654 27.9627 2.26582L44.0402 18.5927C44.7537 19.3473 45.2307 20.2945 45.4122 21.3173C45.5937 22.3401 45.4718 23.3936 45.0615 24.3479C44.6512 25.3021 43.9705 26.1152 43.1034 26.6867C42.2364 27.2583 41.221 27.5633 40.1827 27.564ZM23.0002 60.0526C22.0637 60.0523 21.1377 59.8545 20.2827 59.4723C19.4277 59.0901 18.6627 58.5319 18.0377 57.8342L1.96017 41.5173C1.24628 40.763 0.768997 39.816 0.587322 38.7932C0.405648 37.7705 0.527546 36.7169 0.937948 35.7627C1.34835 34.8085 2.02926 33.9955 2.89651 33.4243C3.76376 32.8531 4.77933 32.5486 5.81767 32.5486H40.1827C41.2126 32.5491 42.2203 32.8492 43.0829 33.4123C43.9455 33.9753 44.6259 34.7771 45.0412 35.72C45.4566 36.6629 45.589 37.7063 45.4224 38.7232C45.2558 39.74 44.7972 40.6865 44.1027 41.4473L27.8852 57.9268C27.2632 58.6011 26.5076 59.1384 25.6665 59.5045C24.8254 59.8705 23.9174 60.0572 23.0002 60.0526Z" fill="#E8E6E3"/>
</svg>
