<svg width="448" height="486" viewBox="0 0 448 486" fill="none" xmlns="http://www.w3.org/2000/svg">
<ellipse cx="358.381" cy="330.195" rx="65.6173" ry="67.1522" fill="#363062"/>
<ellipse cx="358.381" cy="330.195" rx="38.1045" ry="38.9958" fill="#818FB4"/>
<ellipse cx="89.6161" cy="330.195" rx="65.6173" ry="67.1522" fill="#363062"/>
<ellipse cx="89.6163" cy="330.195" rx="38.1045" ry="38.9958" fill="#818FB4"/>
<ellipse cx="223.999" cy="302.243" rx="148.564" ry="152.039" fill="#363062"/>
<ellipse cx="223.999" cy="342.406" rx="131.977" ry="119.396" fill="#363062"/>
<path d="M85.824 267.656C85.824 242.346 106.342 221.828 131.651 221.828H316.346C341.656 221.828 362.173 242.346 362.173 267.656V347.479C362.173 372.789 341.655 393.306 316.346 393.306H131.651C106.342 393.306 85.824 372.789 85.824 347.479V267.656Z" fill="#363062"/>
<path fill-rule="evenodd" clip-rule="evenodd" d="M223.999 340.836C211.475 361.118 189.372 374.588 164.195 374.588C125.153 374.588 93.5037 342.198 93.5037 302.243C93.5037 262.288 125.153 229.898 164.195 229.898C189.372 229.898 211.475 243.368 223.999 263.65C236.522 243.368 258.625 229.898 283.802 229.898C322.844 229.898 354.493 262.288 354.493 302.243C354.493 342.198 322.844 374.588 283.802 374.588C258.625 374.588 236.522 361.118 223.999 340.836Z" fill="#818FB4"/>
<ellipse cx="222.516" cy="363.674" rx="96.98" ry="87.7349" fill="#818FB4"/>
<rect x="248.108" y="245.623" width="71.389" height="113.239" rx="35.6945" fill="white"/>
<path fill-rule="evenodd" clip-rule="evenodd" d="M262.79 283.939C271.925 283.939 279.33 276.361 279.33 267.012C279.33 262.87 277.876 259.076 275.463 256.134C276.721 255.925 278.013 255.816 279.33 255.816C292.279 255.816 302.776 266.313 302.776 279.262V306.751C302.776 319.699 292.279 330.196 279.33 330.196C266.382 330.196 255.885 319.699 255.885 306.751V282.398C257.986 283.388 260.325 283.939 262.79 283.939Z" fill="#4A4A4A"/>
<rect x="128.501" y="245.623" width="71.389" height="113.239" rx="35.6945" fill="white"/>
<path fill-rule="evenodd" clip-rule="evenodd" d="M143.183 283.939C152.318 283.939 159.723 276.361 159.723 267.012C159.723 262.87 158.27 259.076 155.856 256.134C157.114 255.925 158.406 255.817 159.723 255.817C172.672 255.817 183.169 266.313 183.169 279.262V306.751C183.169 319.699 172.672 330.196 159.723 330.196C146.775 330.196 136.278 319.699 136.278 306.751V282.398C138.379 283.388 140.718 283.939 143.183 283.939Z" fill="#4A4A4A"/>
<path d="M210.932 419.888C232.666 421.52 276.132 414.746 276.132 374.588" stroke="#363062" stroke-width="11.4569" stroke-linecap="round"/>
<path d="M223.999 374.588L212.908 354.929L235.09 354.929L223.999 374.588Z" fill="#F5E8C7"/>
<path d="M80.1196 151.422C80.1196 125.724 100.952 104.891 126.651 104.891H321.347C347.045 104.891 367.878 125.724 367.878 151.422V181.873C367.878 188.201 362.748 193.33 356.421 193.33H91.5765C85.2491 193.33 80.1196 188.201 80.1196 181.873V151.422Z" fill="#435585"/>
<path d="M127.721 209.903H320.277V209.903C320.277 235.213 299.759 255.816 274.449 255.816H173.548C148.239 255.816 127.721 235.213 127.721 209.903V209.903Z" fill="#0C082A"/>
<path d="M93.5037 193.33H354.493V208.248C354.493 214.576 349.364 219.705 343.036 219.705H104.961C98.6331 219.705 93.5037 214.576 93.5037 208.248V193.33Z" fill="#435585"/>
<path fill-rule="evenodd" clip-rule="evenodd" d="M349.373 138.681C363.636 112.661 369.054 97.2831 376.871 69.2885C354.64 88.4119 343.838 100.542 329.62 126.463C318.335 145.076 315.147 157.343 311.289 179.049C317.648 167.367 323.041 157.819 331.461 143.603C346.392 118.123 354.815 104.522 369.896 80.9754C356.38 105.445 348.566 119.341 333.581 144.915C325.057 159.393 319.284 168.814 312.107 180.023C329.62 166.772 338.354 157.884 349.373 138.681Z" fill="#F5E8C7"/>
<path fill-rule="evenodd" clip-rule="evenodd" d="M324.909 145.315C330.253 121.891 331.08 108.739 330.999 85.2648C317.973 105.176 312.265 117.049 306.934 140.386C302.272 157.39 302.492 167.622 304.26 185.317C306.625 174.812 308.71 166.18 312.115 153.239C318.095 130.079 321.638 117.613 328.157 95.9171C323.052 117.969 320.046 130.524 314.045 153.768C310.616 166.936 308.209 175.557 305.107 185.884C315.766 171.603 320.583 162.715 324.909 145.315Z" fill="#F5E8C7"/>
<path fill-rule="evenodd" clip-rule="evenodd" d="M311.451 148.333C305.77 129.148 301.011 119.303 291.395 102.395C290.101 122.321 290.816 133.324 296.471 152.441C300.029 166.701 304.354 173.992 312.835 186.009C310.264 177.418 308.254 170.3 305.443 159.507C300.329 140.242 297.81 129.733 293.681 111.295C298.975 129.388 301.918 139.731 307.051 159.066C309.938 170.033 311.711 177.282 313.677 186.058C315.556 171.205 315.413 162.737 311.451 148.333Z" fill="#F5E8C7"/>
<path fill-rule="evenodd" clip-rule="evenodd" d="M80.1353 150.204C80.1249 150.609 80.1196 151.015 80.1196 151.422V181.873C80.1196 188.201 85.2491 193.33 91.5765 193.33H356.421C362.748 193.33 367.878 188.201 367.878 181.873V151.422C367.878 151.015 367.873 150.609 367.862 150.204H80.1353Z" fill="#F5E8C7"/>
<mask id="mask0_805_170" style="mask-type:alpha" maskUnits="userSpaceOnUse" x="80" y="150" width="288" height="44">
<path fill-rule="evenodd" clip-rule="evenodd" d="M80.1353 150.204C80.1249 150.609 80.1196 151.015 80.1196 151.422V181.873C80.1196 188.201 85.2491 193.33 91.5765 193.33H356.421C362.748 193.33 367.878 188.201 367.878 181.873V151.422C367.878 151.015 367.873 150.609 367.862 150.204H80.1353Z" fill="#F5E8C7"/>
</mask>
<g mask="url(#mask0_805_170)">
<rect width="20.6717" height="87.2494" transform="matrix(0.929411 -0.369045 0.354507 0.935053 68.0598 138.122)" fill="#EED9A4"/>
<rect width="20.6717" height="87.2494" transform="matrix(0.929411 -0.369045 0.354507 0.935053 97.8999 138.122)" fill="#EED9A4"/>
<rect width="20.6717" height="87.2494" transform="matrix(0.929411 -0.369045 0.354507 0.935053 127.74 138.122)" fill="#EED9A4"/>
<rect width="20.6717" height="87.2494" transform="matrix(0.929411 -0.369045 0.354507 0.935053 157.58 138.122)" fill="#EED9A4"/>
<rect width="20.6717" height="87.2494" transform="matrix(0.929411 -0.369045 0.354507 0.935053 187.42 138.122)" fill="#EED9A4"/>
<rect width="20.6717" height="87.2494" transform="matrix(0.929411 -0.369045 0.354507 0.935053 217.26 138.122)" fill="#EED9A4"/>
<rect width="20.6717" height="87.2494" transform="matrix(0.929411 -0.369045 0.354507 0.935053 247.1 138.122)" fill="#EED9A4"/>
<rect width="20.6717" height="87.2494" transform="matrix(0.929411 -0.369045 0.354507 0.935053 276.94 138.122)" fill="#EED9A4"/>
<rect width="20.6717" height="87.2494" transform="matrix(0.929411 -0.369045 0.354507 0.935053 306.78 138.122)" fill="#EED9A4"/>
<rect width="20.6717" height="87.2494" transform="matrix(0.929411 -0.369045 0.354507 0.935053 336.619 138.122)" fill="#EED9A4"/>
</g>
<ellipse cx="358.381" cy="330.195" rx="65.6173" ry="67.1522" fill="#363062"/>
<ellipse cx="358.381" cy="330.195" rx="38.1045" ry="38.9958" fill="#818FB4"/>
<ellipse cx="89.6161" cy="330.195" rx="65.6173" ry="67.1522" fill="#363062"/>
<ellipse cx="89.6163" cy="330.195" rx="38.1045" ry="38.9958" fill="#818FB4"/>
<ellipse cx="223.999" cy="302.243" rx="148.564" ry="152.039" fill="#363062"/>
<ellipse cx="223.999" cy="342.406" rx="131.977" ry="119.396" fill="#363062"/>
<path d="M85.824 267.656C85.824 242.346 106.342 221.828 131.651 221.828H316.346C341.656 221.828 362.173 242.346 362.173 267.656V347.479C362.173 372.789 341.655 393.306 316.346 393.306H131.651C106.342 393.306 85.824 372.789 85.824 347.479V267.656Z" fill="#363062"/>
<path fill-rule="evenodd" clip-rule="evenodd" d="M223.999 340.836C211.475 361.118 189.372 374.588 164.195 374.588C125.153 374.588 93.5037 342.198 93.5037 302.243C93.5037 262.288 125.153 229.898 164.195 229.898C189.372 229.898 211.475 243.368 223.999 263.65C236.522 243.368 258.625 229.898 283.802 229.898C322.844 229.898 354.493 262.288 354.493 302.243C354.493 342.198 322.844 374.588 283.802 374.588C258.625 374.588 236.522 361.118 223.999 340.836Z" fill="#818FB4"/>
<ellipse cx="222.516" cy="363.674" rx="96.98" ry="87.7349" fill="#818FB4"/>
<rect x="248.108" y="245.623" width="71.389" height="113.239" rx="35.6945" fill="white"/>
<path fill-rule="evenodd" clip-rule="evenodd" d="M262.79 283.939C271.925 283.939 279.33 276.361 279.33 267.012C279.33 262.87 277.876 259.076 275.463 256.134C276.721 255.925 278.013 255.816 279.33 255.816C292.279 255.816 302.776 266.313 302.776 279.262V306.751C302.776 319.699 292.279 330.196 279.33 330.196C266.382 330.196 255.885 319.699 255.885 306.751V282.398C257.986 283.388 260.325 283.939 262.79 283.939Z" fill="#4A4A4A"/>
<rect x="128.501" y="245.623" width="71.389" height="113.239" rx="35.6945" fill="white"/>
<path fill-rule="evenodd" clip-rule="evenodd" d="M143.183 283.939C152.318 283.939 159.723 276.361 159.723 267.012C159.723 262.87 158.27 259.076 155.856 256.134C157.114 255.925 158.406 255.816 159.723 255.816C172.672 255.816 183.169 266.313 183.169 279.262V306.751C183.169 319.699 172.672 330.196 159.723 330.196C146.775 330.196 136.278 319.699 136.278 306.751V282.398C138.379 283.388 140.718 283.939 143.183 283.939Z" fill="#4A4A4A"/>
<path d="M210.932 419.888C232.666 421.52 276.132 414.746 276.132 374.588" stroke="#363062" stroke-width="11.4569" stroke-linecap="round"/>
<path d="M223.999 374.588L212.908 354.929L235.09 354.929L223.999 374.588Z" fill="#F5E8C7"/>
<path d="M80.1196 151.422C80.1196 125.724 100.952 104.891 126.651 104.891H321.347C347.045 104.891 367.878 125.724 367.878 151.422V181.873C367.878 188.201 362.748 193.33 356.421 193.33H91.5765C85.2491 193.33 80.1196 188.201 80.1196 181.873V151.422Z" fill="#435585"/>
<path d="M127.721 209.903H320.277V209.903C320.277 235.213 299.759 255.816 274.449 255.816H173.548C148.239 255.816 127.721 235.213 127.721 209.903V209.903Z" fill="#0C082A"/>
<path d="M93.5037 193.33H354.493V208.248C354.493 214.576 349.364 219.705 343.036 219.705H104.961C98.6331 219.705 93.5037 214.576 93.5037 208.248V193.33Z" fill="#435585"/>
<path fill-rule="evenodd" clip-rule="evenodd" d="M80.1353 150.204C80.1249 150.609 80.1196 151.015 80.1196 151.422V181.873C80.1196 188.201 85.2491 193.33 91.5765 193.33H356.421C362.748 193.33 367.878 188.201 367.878 181.873V151.422C367.878 151.015 367.873 150.609 367.862 150.204H80.1353Z" fill="#F5E8C7"/>
<mask id="mask1_805_170" style="mask-type:alpha" maskUnits="userSpaceOnUse" x="80" y="150" width="288" height="44">
<path fill-rule="evenodd" clip-rule="evenodd" d="M80.1353 150.204C80.1249 150.609 80.1196 151.015 80.1196 151.422V181.873C80.1196 188.201 85.2491 193.33 91.5765 193.33H356.421C362.748 193.33 367.878 188.201 367.878 181.873V151.422C367.878 151.015 367.873 150.609 367.862 150.204H80.1353Z" fill="#F5E8C7"/>
</mask>
<g mask="url(#mask1_805_170)">
<rect width="20.6717" height="87.2494" transform="matrix(0.929411 -0.369045 0.354507 0.935053 68.0598 138.122)" fill="#EED9A4"/>
<rect width="20.6717" height="87.2494" transform="matrix(0.929411 -0.369045 0.354507 0.935053 97.8999 138.122)" fill="#EED9A4"/>
<rect width="20.6717" height="87.2494" transform="matrix(0.929411 -0.369045 0.354507 0.935053 127.74 138.122)" fill="#EED9A4"/>
<rect width="20.6717" height="87.2494" transform="matrix(0.929411 -0.369045 0.354507 0.935053 157.58 138.122)" fill="#EED9A4"/>
<rect width="20.6717" height="87.2494" transform="matrix(0.929411 -0.369045 0.354507 0.935053 187.42 138.122)" fill="#EED9A4"/>
<rect width="20.6717" height="87.2494" transform="matrix(0.929411 -0.369045 0.354507 0.935053 217.26 138.122)" fill="#EED9A4"/>
<rect width="20.6717" height="87.2494" transform="matrix(0.929411 -0.369045 0.354507 0.935053 247.1 138.122)" fill="#EED9A4"/>
<rect width="20.6717" height="87.2494" transform="matrix(0.929411 -0.369045 0.354507 0.935053 276.94 138.122)" fill="#EED9A4"/>
<rect width="20.6717" height="87.2494" transform="matrix(0.929411 -0.369045 0.354507 0.935053 306.78 138.122)" fill="#EED9A4"/>
<rect width="20.6717" height="87.2494" transform="matrix(0.929411 -0.369045 0.354507 0.935053 336.619 138.122)" fill="#EED9A4"/>
</g>
<mask id="path-64-outside-1_805_170" maskUnits="userSpaceOnUse" x="-0.0012207" y="0.288574" width="448" height="485" fill="black">
<rect fill="white" x="-0.0012207" y="0.288574" width="448" height="485"/>
<path fill-rule="evenodd" clip-rule="evenodd" d="M367.862 150.204C367.593 139.735 363.866 130.126 357.782 122.477C366.194 105.107 370.812 90.9878 376.871 69.2886C360.356 83.4954 350.148 93.8423 340.161 108.852C337.147 107.518 333.965 106.494 330.655 105.822C330.954 99.5984 331.025 92.9906 330.999 85.2648C326.222 92.5675 322.429 98.7889 319.277 104.891H292.808C292.349 104.075 291.878 103.244 291.395 102.395C291.34 103.243 291.288 104.074 291.241 104.891H126.651C101.36 104.891 80.7814 125.068 80.1353 150.204C80.1352 150.21 80.135 150.215 80.1349 150.221C80.1248 150.62 80.1197 151.021 80.1197 151.422V181.873C80.1197 188.201 85.2491 193.33 91.5766 193.33H120.339L120.338 193.331H93.5037V208.248C93.5037 212.778 96.1324 216.694 99.9475 218.553C91.1227 232.225 84.3982 247.442 80.2444 263.723C48.4443 268.376 23.9988 296.364 23.9988 330.195C23.9988 367.282 53.3767 397.347 89.6161 397.347C95.1511 397.347 100.526 396.646 105.661 395.325C127.226 434.717 172.116 461.801 223.999 461.801C275.881 461.801 320.772 434.717 342.337 395.325C347.471 396.646 352.846 397.347 358.381 397.347C394.621 397.347 423.999 367.282 423.999 330.195C423.999 296.364 399.553 268.376 367.753 263.722C363.599 247.442 356.875 232.225 348.05 218.553C351.865 216.693 354.493 212.778 354.493 208.248V193.331H327.659L327.658 193.33H356.421C362.748 193.33 367.878 188.201 367.878 181.873V151.422C367.878 151.015 367.873 150.609 367.862 150.204ZM325.423 105.067C325.622 105.084 325.82 105.103 326.018 105.123C326.697 102.218 327.404 99.1708 328.157 95.9172C327.186 99.1501 326.281 102.178 325.423 105.067ZM369.896 80.9753C361.698 93.7746 355.468 103.635 349.09 114.063C349.638 114.47 350.176 114.89 350.705 115.32C356.801 104.606 362.493 94.3765 369.896 80.9753Z"/>
</mask>
<path d="M357.782 122.477L336.669 112.252L330.237 125.533L339.424 137.081L357.782 122.477ZM367.862 150.204L344.412 150.806L344.412 150.807L367.862 150.204ZM376.871 69.2886L399.465 75.5973L420.297 0.98935L361.573 51.505L376.871 69.2886ZM340.161 108.852L330.667 130.303L348.742 138.303L359.691 121.846L340.161 108.852ZM330.655 105.822L307.224 104.698L306.259 124.806L325.987 128.811L330.655 105.822ZM330.999 85.2648L354.457 85.1843L354.188 6.96824L311.368 72.4226L330.999 85.2648ZM319.277 104.891V128.349H333.565L340.121 115.654L319.277 104.891ZM292.808 104.891L272.367 116.399L279.094 128.349H292.808V104.891ZM291.395 102.395L311.786 90.7975L273.062 22.7112L267.986 100.875L291.395 102.395ZM291.241 104.891V128.349H313.373L314.659 106.254L291.241 104.891ZM80.1353 150.204L56.685 149.601L56.6849 149.604L80.1353 150.204ZM80.1349 150.221L56.6845 149.622L56.6843 149.627L80.1349 150.221ZM120.339 193.33L136.926 209.917L176.972 169.872H120.339V193.33ZM120.338 193.331V216.789H130.055L136.926 209.918L120.338 193.331ZM93.5037 193.331V169.872H70.0457V193.331H93.5037ZM99.9475 218.553L119.657 231.274L133.999 209.053L110.225 197.466L99.9475 218.553ZM80.2444 263.723L83.6413 286.933L99.1094 284.67L102.974 269.522L80.2444 263.723ZM105.661 395.325L126.237 384.061L117.48 368.064L99.8175 372.606L105.661 395.325ZM342.337 395.325L348.18 372.606L330.518 368.064L321.76 384.06L342.337 395.325ZM367.753 263.722L345.023 269.522L348.888 284.669L364.356 286.933L367.753 263.722ZM348.05 218.553L337.772 197.466L313.998 209.054L328.341 231.274L348.05 218.553ZM354.493 193.331H377.951V169.872H354.493V193.331ZM327.659 193.331L311.072 209.918L317.942 216.789H327.659V193.331ZM327.658 193.33V169.872H271.026L311.071 209.917L327.658 193.33ZM326.018 105.123L323.692 128.465L344.18 130.507L348.862 110.456L326.018 105.123ZM325.423 105.067L302.934 98.3947L294.758 125.952L323.395 128.437L325.423 105.067ZM328.157 95.9172L351.011 101.208L305.692 89.1667L328.157 95.9172ZM349.09 114.063L329.079 101.823L317.9 120.099L335.09 132.885L349.09 114.063ZM369.896 80.9753L390.429 92.3172L350.141 68.324L369.896 80.9753ZM350.705 115.32L335.894 133.511L357.387 151.01L371.094 126.922L350.705 115.32ZM339.424 137.081C342.446 140.88 344.278 145.61 344.412 150.806L391.313 149.601C390.908 133.86 385.287 119.372 376.14 107.874L339.424 137.081ZM354.277 62.9799C348.375 84.117 344.198 96.7071 336.669 112.252L378.894 132.702C388.191 113.507 393.249 97.8585 399.465 75.5973L354.277 62.9799ZM359.691 121.846C368.015 109.337 376.458 100.587 392.169 87.0722L361.573 51.505C344.254 66.4036 332.281 78.348 320.631 95.8573L359.691 121.846ZM325.987 128.811C327.617 129.142 329.182 129.645 330.667 130.303L349.656 87.401C345.112 85.3899 340.313 83.8464 335.323 82.8333L325.987 128.811ZM307.541 85.3454C307.567 92.9167 307.494 99.0634 307.224 104.698L354.086 106.947C354.413 100.133 354.484 93.0645 354.457 85.1843L307.541 85.3454ZM340.121 115.654C342.745 110.573 346.049 105.108 350.629 98.107L311.368 72.4226C306.394 80.0266 302.113 87.005 298.434 94.128L340.121 115.654ZM292.808 128.349H319.277V81.433H292.808V128.349ZM271.004 113.992C271.473 114.816 271.926 115.617 272.367 116.399L313.249 93.3827C312.771 92.5337 312.283 91.6724 311.786 90.7975L271.004 113.992ZM314.659 106.254C314.704 105.495 314.752 104.715 314.804 103.915L267.986 100.875C267.928 101.77 267.873 102.654 267.822 103.528L314.659 106.254ZM126.651 128.349H291.241V81.433H126.651V128.349ZM103.586 150.806C103.906 138.355 114.113 128.349 126.651 128.349V81.433C88.6061 81.433 57.6571 111.782 56.685 149.601L103.586 150.806ZM103.585 150.82C103.585 150.818 103.585 150.815 103.585 150.812C103.586 150.809 103.586 150.806 103.586 150.803L56.6849 149.604C56.6848 149.607 56.6848 149.61 56.6847 149.613C56.6846 149.616 56.6845 149.619 56.6845 149.622L103.585 150.82ZM103.578 151.422C103.578 151.219 103.58 151.016 103.585 150.815L56.6843 149.627C56.6692 150.224 56.6616 150.823 56.6616 151.422H103.578ZM56.6616 151.422V181.873H103.578V151.422H56.6616ZM91.5766 169.872C98.2046 169.872 103.578 175.245 103.578 181.873H56.6616C56.6616 201.156 72.2936 216.788 91.5766 216.788V169.872ZM91.5766 216.788H120.339V169.872H91.5766V216.788ZM136.926 209.918L136.926 209.917L103.752 176.743L103.751 176.743L136.926 209.918ZM93.5037 216.789H120.338V169.872H93.5037V216.789ZM116.962 208.248V193.331H70.0457V208.248H116.962ZM110.225 197.466C114.165 199.387 116.962 203.469 116.962 208.248H70.0457C70.0457 222.087 78.0994 234 89.6701 239.64L110.225 197.466ZM102.974 269.522C106.493 255.729 112.188 242.845 119.657 231.274L80.2384 205.832C70.0573 221.605 62.3028 239.156 57.5145 257.923L102.974 269.522ZM47.4568 330.195C47.4568 307.767 63.598 289.867 83.6413 286.933L76.8475 240.512C33.2905 246.886 0.540724 284.961 0.540724 330.195H47.4568ZM89.6161 373.889C66.8405 373.889 47.4568 354.841 47.4568 330.195H0.540724C0.540724 379.723 39.9128 420.805 89.6161 420.805V373.889ZM99.8175 372.606C96.5737 373.441 93.1614 373.889 89.6161 373.889V420.805C97.1408 420.805 104.478 419.851 111.504 418.044L99.8175 372.606ZM223.999 438.343C180.154 438.343 143.436 415.478 126.237 384.061L85.0843 406.59C111.015 453.957 164.078 485.259 223.999 485.259V438.343ZM321.76 384.06C304.561 415.478 267.843 438.343 223.999 438.343V485.259C283.92 485.259 336.982 453.957 362.913 406.59L321.76 384.06ZM358.381 373.889C354.836 373.889 351.424 373.441 348.18 372.606L336.494 418.044C343.519 419.851 350.857 420.805 358.381 420.805V373.889ZM400.541 330.195C400.541 354.841 381.157 373.889 358.381 373.889V420.805C408.085 420.805 447.457 379.723 447.457 330.195H400.541ZM364.356 286.933C384.399 289.866 400.541 307.767 400.541 330.195H447.457C447.457 284.961 414.707 246.886 371.15 240.512L364.356 286.933ZM328.341 231.274C335.809 242.845 341.504 255.729 345.023 269.522L390.483 257.923C385.694 239.156 377.94 221.605 367.759 205.832L328.341 231.274ZM331.035 208.248C331.035 203.469 333.832 199.387 337.772 197.466L358.328 239.64C369.898 234 377.951 222.087 377.951 208.248H331.035ZM331.035 193.331V208.248H377.951V193.331H331.035ZM327.659 216.789H354.493V169.872H327.659V216.789ZM311.071 209.917L311.072 209.918L344.246 176.743L344.246 176.743L311.071 209.917ZM327.658 216.788H356.421V169.872H327.658V216.788ZM344.42 181.873C344.42 175.245 349.793 169.872 356.421 169.872V216.788C375.704 216.788 391.336 201.156 391.336 181.873H344.42ZM391.336 181.873V151.422H344.42V181.873H391.336ZM344.412 150.807C344.417 151.011 344.42 151.216 344.42 151.422H391.336C391.336 150.813 391.328 150.206 391.313 149.601L344.412 150.807ZM328.345 81.7803C328.048 81.7507 327.75 81.7229 327.452 81.697L323.395 128.437C323.494 128.446 323.593 128.455 323.692 128.465L328.345 81.7803ZM305.304 90.6262C304.553 93.8707 303.849 96.9026 303.175 99.7891L348.862 110.456C349.544 107.533 350.256 104.471 351.011 101.208L305.304 90.6262ZM347.912 111.74C348.76 108.883 349.657 105.882 350.623 102.668L305.692 89.1667C304.715 92.4182 303.801 95.4731 302.934 98.3947L347.912 111.74ZM369.102 126.303C375.359 116.073 381.491 106.365 389.65 93.6266L350.141 68.324C341.905 81.1844 335.577 91.198 329.079 101.823L369.102 126.303ZM365.516 97.129C364.722 96.4827 363.914 95.8531 363.09 95.2407L335.09 132.885C335.362 133.088 335.63 133.296 335.894 133.511L365.516 97.129ZM349.362 69.6334C341.975 83.0062 336.339 93.1343 330.317 103.719L371.094 126.922C377.263 116.079 383.012 105.747 390.429 92.3172L349.362 69.6334Z" fill="#F5E8C7" mask="url(#path-64-outside-1_805_170)"/>
</svg>
