<svg width="401" height="401" viewBox="0 0 401 401" fill="none" xmlns="http://www.w3.org/2000/svg">
<g clip-path="url(#clip0_805_99)">
<rect x="0.719238" y="0.643921" width="400" height="400" rx="200" fill="#3066BE"/>
<rect x="128.793" y="369.313" width="144.29" height="235.716" fill="#C48455"/>
<rect x="128.793" y="369.313" width="144.29" height="89.384" fill="#B36832"/>
<path fill-rule="evenodd" clip-rule="evenodd" d="M411.171 -30.0524H-10.0239V580.275L29.5744 512.425L70.9855 583.381H73.718L115.129 512.425L156.54 583.381H159.275L200.686 512.425L242.097 583.381H244.829L286.24 512.425L327.651 583.381H330.384L371.795 512.425L411.171 579.895V-30.0524Z" fill="url(#paint0_linear_805_99)"/>
<circle cx="110.47" cy="183.039" r="59.0329" fill="#B68262"/>
<path fill-rule="evenodd" clip-rule="evenodd" d="M349.414 215.551C349.613 213.581 349.715 211.581 349.715 209.558C349.715 176.955 323.285 150.526 290.682 150.526C258.079 150.526 231.649 176.955 231.649 209.558C231.649 211.582 231.75 213.581 231.949 215.552C234.952 185.764 260.102 162.512 290.682 162.512C321.261 162.512 346.411 185.763 349.414 215.551Z" fill="#B68262"/>
<path d="M204.382 337.572C202.472 340.1 198.675 340.1 196.765 337.572L149.499 274.999C147.124 271.855 149.367 267.35 153.308 267.35L247.839 267.35C251.779 267.35 254.022 271.855 251.647 274.999L204.382 337.572Z" fill="#D4A577"/>
<circle cx="297.838" cy="342.613" r="6.26841" fill="#D4A577"/>
<circle cx="297.838" cy="367.309" r="6.26841" fill="#D4A577"/>
<circle cx="310.187" cy="354.961" r="6.26841" transform="rotate(90 310.187 354.961)" fill="#D4A577"/>
<circle cx="285.49" cy="354.961" r="6.26841" transform="rotate(90 285.49 354.961)" fill="#D4A577"/>
<circle cx="105.89" cy="342.613" r="6.26841" fill="#D4A577"/>
<circle cx="105.89" cy="367.309" r="6.26841" fill="#D4A577"/>
<circle cx="118.237" cy="354.961" r="6.26841" transform="rotate(90 118.237 354.961)" fill="#D4A577"/>
<circle cx="93.5424" cy="354.961" r="6.26841" transform="rotate(90 93.5424 354.961)" fill="#D4A577"/>
<path fill-rule="evenodd" clip-rule="evenodd" d="M133.972 414.815C161.316 414.815 185.554 401.518 200.573 381.038C215.591 401.518 239.83 414.815 267.173 414.815C308.909 414.815 343.409 383.838 348.936 343.621C349.445 347.328 349.708 351.114 349.708 354.962C349.708 400.544 312.756 437.496 267.173 437.496C239.83 437.496 215.592 424.199 200.573 403.719C185.554 424.199 161.316 437.496 133.972 437.496C88.3894 437.496 51.4373 400.544 51.4373 354.961C51.4373 351.114 51.7005 347.328 52.21 343.621C57.7366 383.837 92.2368 414.815 133.972 414.815Z" fill="#D4A577"/>
<rect x="193.046" y="399.95" width="18.0514" height="56.3877" rx="9.02569" fill="#D4A577"/>
<g style="mix-blend-mode:multiply" opacity="0.25">
<rect x="-10.0239" y="59.6191" width="421.194" height="141.353" fill="#B68262"/>
</g>
<path fill-rule="evenodd" clip-rule="evenodd" d="M587.247 178.212C587.247 -34.5147 414.799 -206.963 202.072 -206.963C-10.6539 -206.963 -183.103 -34.5147 -183.103 178.212H587.247Z" fill="#D4A577"/>
<path fill-rule="evenodd" clip-rule="evenodd" d="M486.058 178.212L543.164 178.212C543.164 -10.167 390.453 -162.878 202.074 -162.878C13.6951 -162.878 -139.016 -10.1672 -139.016 178.211L486.058 178.212ZM486.058 178.212C486.058 21.3707 358.913 -105.774 202.072 -105.774C45.2315 -105.774 -81.9132 21.3706 -81.9134 178.211L486.058 178.212Z" fill="#3066BE"/>
<path d="M233.827 43.5668C241.412 43.5668 248.998 44.6253 256.054 46.7421V70.2044C249.174 67.3818 241.765 65.7942 233.827 65.7942C201.191 65.7942 174.73 92.2553 174.73 124.891C174.73 131.418 175.789 137.592 177.729 143.414H154.62C153.209 137.416 152.503 131.241 152.503 124.891C152.503 107.779 157.795 91.3733 167.674 77.6135C163.44 75.8494 159.383 73.2033 156.031 69.6751C148.975 62.7952 145.094 53.4456 145.094 43.5668C145.094 39.8622 145.799 36.1577 146.858 32.4531H171.026C168.203 35.2756 167.321 39.6858 167.321 43.5668C167.321 47.6242 168.909 51.3287 171.731 54.1513C176.671 59.0907 184.609 59.9727 190.254 56.2682C203.132 47.977 218.127 43.5668 233.827 43.5668Z" fill="#3066BE"/>
<path d="M235.341 96.721C235.341 100.871 233.992 104.711 231.606 107.927C233.992 111.662 235.341 116.02 235.341 120.586C235.341 133.141 225.173 143.413 212.514 143.413C208.26 143.413 206.392 143.102 202.761 141.234V128.16C204.836 130.028 207.949 130.339 211.477 130.339C218.117 130.339 222.371 125.981 222.371 120.586C222.371 117.473 220.919 114.671 218.532 112.804C216.665 111.455 215.627 109.172 215.834 106.889C216.042 104.607 217.391 102.532 219.466 101.494C221.23 100.56 222.371 98.6925 222.371 96.721C222.371 93.712 220.089 91.2218 216.457 91.2218C213.448 91.2218 210.958 92.3631 208.156 94.7496V80.327C210.231 78.8744 212.825 78.1481 216.872 78.1481C227.144 78.1481 235.341 86.4488 235.341 96.721Z" fill="#3066BE"/>
</g>
<defs>
<linearGradient id="paint0_linear_805_99" x1="200.574" y1="-30.0524" x2="200.574" y2="583.381" gradientUnits="userSpaceOnUse">
<stop stop-color="#E3B88D"/>
<stop offset="1" stop-color="#E2B387"/>
</linearGradient>
<clipPath id="clip0_805_99">
<rect x="0.719238" y="0.643921" width="400" height="400" rx="200" fill="white"/>
</clipPath>
</defs>
</svg>
